<svg width="400" height="279" viewBox="0 0 400 279" fill="none" xmlns="http://www.w3.org/2000/svg">
<g clip-path="url(#clip0_10_2)">
<path d="M0 240.083H391" stroke="#B8A9BE" stroke-width="0.5" stroke-miterlimit="10"/>
<path d="M0 193.083H18" stroke="#B8A9BE" stroke-width="0.5" stroke-miterlimit="10"/>
<path d="M0 146.083H18" stroke="#B8A9BE" stroke-width="0.5" stroke-miterlimit="10"/>
<path d="M0 99.0833H18" stroke="#B8A9BE" stroke-width="0.5" stroke-miterlimit="10"/>
<path d="M0 52.0833H18" stroke="#B8A9BE" stroke-width="0.5" stroke-miterlimit="10"/>
<path d="M97.1755 239.684H77.0486V99.758C77.0486 98.654 77.6299 97.759 78.3471 97.759H95.8769C96.5941 97.759 97.1755 98.654 97.1755 99.758V239.684Z" fill="#BC75D9"/>
<path d="M162.101 239.684H141.974V98.7585C141.974 97.6545 142.555 96.7596 143.272 96.7596H160.802C161.519 96.7596 162.101 97.6545 162.101 98.7585V239.684Z" fill="#BC75D9"/>
<path d="M227.675 239.684H207.549V96.7596C207.549 95.6556 208.13 94.7606 208.847 94.7606H226.377C227.094 94.7606 227.675 95.6556 227.675 96.7596V239.684Z" fill="#BC75D9"/>
<path d="M292.601 239.684H272.474V89.7633C272.474 88.6593 273.055 87.7644 273.772 87.7644H291.302C292.019 87.7644 292.601 88.6593 292.601 89.7633V239.684Z" fill="#BC75D9"/>
<path d="M357.526 239.684H337.399V92.7617C337.399 91.6577 337.981 90.7628 338.698 90.7628H356.228C356.945 90.7628 357.526 91.6577 357.526 92.7617V239.684Z" fill="#BC75D9"/>
<path d="M118.601 239.684H98.4739V68.7745C98.4739 67.6705 99.0552 66.7755 99.7724 66.7755H117.302C118.019 66.7755 118.601 67.6705 118.601 68.7745V239.684Z" fill="#EDE977"/>
<path d="M183.526 239.684H163.399V70.7734C163.399 69.6694 163.981 68.7745 164.698 68.7745H182.228C182.945 68.7745 183.526 69.6694 183.526 70.7734V239.684Z" fill="#EDE977"/>
<path d="M249.101 239.684H228.974V66.7755C228.974 65.6715 229.555 64.7766 230.272 64.7766H247.802C248.519 64.7766 249.101 65.6715 249.101 66.7755V239.684Z" fill="#EDE977"/>
<path d="M314.026 239.684H293.899V65.7761C293.899 64.6721 294.481 63.7771 295.198 63.7771H312.728C313.445 63.7771 314.026 64.6721 314.026 65.7761V239.684Z" fill="#EDE977"/>
<path d="M378.952 239.684H358.825V64.7766C358.825 63.6726 359.406 62.7776 360.123 62.7776H377.653C378.37 62.7776 378.952 63.6726 378.952 64.7766V239.684Z" fill="#EDE977"/>
<path d="M5.21094 42.1533C4.5957 42.1533 4.11947 42.3265 3.78223 42.6729C3.44954 43.0146 3.2832 43.5 3.2832 44.1289C3.2832 44.7578 3.45182 45.2477 3.78906 45.5986C4.13086 45.945 4.60482 46.1182 5.21094 46.1182C5.83073 46.1182 6.30697 45.9473 6.63965 45.6055C6.97689 45.2591 7.14551 44.7669 7.14551 44.1289C7.14551 43.5046 6.97461 43.0192 6.63281 42.6729C6.29557 42.3265 5.82161 42.1533 5.21094 42.1533ZM4.00781 41.5791C3.41992 41.4287 2.95964 41.1484 2.62695 40.7383C2.29883 40.3281 2.13477 39.8337 2.13477 39.2549C2.13477 38.4437 2.41048 37.8011 2.96191 37.3271C3.51335 36.8486 4.26302 36.6094 5.21094 36.6094C6.16341 36.6094 6.91536 36.8486 7.4668 37.3271C8.01823 37.8011 8.29395 38.4437 8.29395 39.2549C8.29395 39.8337 8.1276 40.3281 7.79492 40.7383C7.4668 41.1484 7.00879 41.4287 6.4209 41.5791C7.10449 41.7295 7.6263 42.0326 7.98633 42.4883C8.35091 42.944 8.5332 43.5342 8.5332 44.2588C8.5332 45.1794 8.23926 45.8994 7.65137 46.4189C7.06348 46.9385 6.25 47.1982 5.21094 47.1982C4.17188 47.1982 3.3584 46.9408 2.77051 46.4258C2.18717 45.9062 1.89551 45.1885 1.89551 44.2725C1.89551 43.5433 2.07552 42.9508 2.43555 42.4951C2.80013 42.0348 3.32422 41.7295 4.00781 41.5791ZM3.50879 39.3848C3.50879 39.9316 3.65462 40.3486 3.94629 40.6357C4.23796 40.9229 4.65951 41.0664 5.21094 41.0664C5.76693 41.0664 6.19076 40.9229 6.48242 40.6357C6.77409 40.3486 6.91992 39.9316 6.91992 39.3848C6.91992 38.8288 6.77409 38.4049 6.48242 38.1133C6.19531 37.8216 5.77148 37.6758 5.21094 37.6758C4.65951 37.6758 4.23796 37.8239 3.94629 38.1201C3.65462 38.4118 3.50879 38.8333 3.50879 39.3848Z" fill="#CEBCD4"/>
<path d="M7.77441 83.0195V84.291C7.4873 84.1224 7.18197 83.9948 6.8584 83.9082C6.53483 83.8171 6.19759 83.7715 5.84668 83.7715C4.97168 83.7715 4.30859 84.1019 3.85742 84.7627C3.40625 85.4189 3.18066 86.3874 3.18066 87.668C3.39941 87.2122 3.70247 86.8636 4.08984 86.6221C4.47721 86.376 4.92155 86.2529 5.42285 86.2529C6.40723 86.2529 7.16829 86.556 7.70605 87.1621C8.24837 87.7637 8.51953 88.6182 8.51953 89.7256C8.51953 90.8285 8.24154 91.6829 7.68555 92.2891C7.12956 92.8952 6.34798 93.1982 5.34082 93.1982C4.15592 93.1982 3.28776 92.7744 2.73633 91.9268C2.1849 91.0745 1.90918 89.7347 1.90918 87.9072C1.90918 86.1846 2.23958 84.8721 2.90039 83.9697C3.56576 83.0628 4.52734 82.6094 5.78516 82.6094C6.1224 82.6094 6.45964 82.6458 6.79688 82.7188C7.13411 82.7871 7.45996 82.8874 7.77441 83.0195ZM5.31348 87.333C4.72559 87.333 4.26302 87.5449 3.92578 87.9688C3.58854 88.3926 3.41992 88.9782 3.41992 89.7256C3.41992 90.473 3.58854 91.0586 3.92578 91.4824C4.26302 91.9062 4.72559 92.1182 5.31348 92.1182C5.92415 92.1182 6.38444 91.9176 6.69434 91.5166C7.00423 91.111 7.15918 90.514 7.15918 89.7256C7.15918 88.9326 7.00423 88.3356 6.69434 87.9346C6.38444 87.5335 5.92415 87.333 5.31348 87.333Z" fill="#CEBCD4"/>
<path d="M6.02441 132.052L2.80469 137.445H6.02441V132.052ZM5.79883 130.794H7.39844V137.445H8.75879V138.566H7.39844V141H6.02441V138.566H1.69727V137.261L5.79883 130.794Z" fill="#CEBCD4"/>
<path d="M3.5498 186.838H8.23926V188H2.03906V186.838C2.89128 185.94 3.63639 185.147 4.27441 184.459C4.91243 183.771 5.35221 183.285 5.59375 183.003C6.04948 182.447 6.3571 181.998 6.5166 181.656C6.67611 181.31 6.75586 180.957 6.75586 180.597C6.75586 180.027 6.58724 179.58 6.25 179.257C5.91732 178.933 5.45931 178.771 4.87598 178.771C4.46126 178.771 4.02604 178.847 3.57031 178.997C3.11458 179.147 2.63151 179.375 2.12109 179.681V178.286C2.59049 178.063 3.05078 177.894 3.50195 177.78C3.95768 177.666 4.40658 177.609 4.84863 177.609C5.84668 177.609 6.64876 177.876 7.25488 178.409C7.86556 178.938 8.1709 179.633 8.1709 180.494C8.1709 180.932 8.06836 181.369 7.86328 181.807C7.66276 182.244 7.33464 182.727 6.87891 183.256C6.6237 183.552 6.25228 183.962 5.76465 184.486C5.28158 185.01 4.54329 185.794 3.5498 186.838Z" fill="#CEBCD4"/>
<path d="M5.21094 223.644C6.30013 223.644 7.12272 224.088 7.67871 224.977C8.23926 225.865 8.51953 227.18 8.51953 228.921C8.51953 230.662 8.23926 231.977 7.67871 232.865C7.12272 233.754 6.30013 234.198 5.21094 234.198C4.12174 234.198 3.29915 233.754 2.74316 232.865C2.18717 231.977 1.90918 230.662 1.90918 228.921C1.90918 227.18 2.18717 225.865 2.74316 224.977C3.29915 224.088 4.12174 223.644 5.21094 223.644ZM5.21094 233.104C5.85807 233.104 6.33887 232.76 6.65332 232.072C6.97233 231.384 7.13184 230.334 7.13184 228.921C7.13184 228.169 7.08626 227.49 6.99512 226.884L3.74121 231.977C4.08301 232.729 4.57292 233.104 5.21094 233.104ZM5.21094 224.737C4.56836 224.737 4.08757 225.081 3.76855 225.77C3.4541 226.458 3.29688 227.508 3.29688 228.921C3.29688 229.563 3.34017 230.165 3.42676 230.726L6.6123 225.646C6.26595 225.04 5.79883 224.737 5.21094 224.737Z" fill="#CEBCD4"/>
<path d="M93.5186 252.9L88.123 254.931L93.5186 256.943V258.105L86.8091 255.452V254.398L93.5186 251.745V252.9ZM95.7974 257.927H97.7905V250.767L95.4038 251.916V250.685L97.7778 249.555H99.0601V257.927H101.028V259H95.7974V257.927ZM105.827 249.383C106.838 249.383 107.602 249.796 108.118 250.621C108.639 251.446 108.899 252.667 108.899 254.284C108.899 255.9 108.639 257.121 108.118 257.946C107.602 258.771 106.838 259.184 105.827 259.184C104.815 259.184 104.051 258.771 103.535 257.946C103.019 257.121 102.761 255.9 102.761 254.284C102.761 252.667 103.019 251.446 103.535 250.621C104.051 249.796 104.815 249.383 105.827 249.383ZM105.827 258.168C106.428 258.168 106.874 257.849 107.166 257.21C107.462 256.571 107.61 255.596 107.61 254.284C107.61 253.585 107.568 252.955 107.483 252.392L104.462 257.121C104.779 257.819 105.234 258.168 105.827 258.168ZM105.827 250.399C105.23 250.399 104.784 250.718 104.487 251.357C104.195 251.996 104.049 252.972 104.049 254.284C104.049 254.88 104.09 255.439 104.17 255.959L107.128 251.243C106.806 250.68 106.373 250.399 105.827 250.399ZM83.8638 269.715C83.6691 270.21 83.4215 270.862 83.1211 271.67C82.7021 272.787 82.4207 273.468 82.2769 273.714C82.0822 274.044 81.8389 274.292 81.5469 274.457C81.2549 274.622 80.9142 274.704 80.5249 274.704H79.5854V273.727H80.2773C80.6201 273.727 80.8888 273.627 81.0835 273.428C81.2782 273.229 81.5257 272.715 81.8262 271.886L79.0776 264.891H80.3154L82.4229 270.451L84.4985 264.891H85.7363L83.8638 269.715ZM93.3599 267.861V268.433H88.3008V268.471C88.2669 269.44 88.451 270.136 88.853 270.559C89.2593 270.982 89.8306 271.194 90.5669 271.194C90.9393 271.194 91.3286 271.135 91.7349 271.016C92.1411 270.898 92.5749 270.718 93.0361 270.477V271.638C92.5918 271.82 92.1623 271.956 91.7476 272.044C91.3371 272.138 90.9393 272.184 90.5542 272.184C89.4497 272.184 88.5864 271.854 87.9644 271.194C87.3423 270.529 87.0312 269.615 87.0312 268.452C87.0312 267.318 87.3359 266.412 87.9453 265.735C88.5547 265.058 89.3672 264.719 90.3828 264.719C91.2884 264.719 92.0015 265.026 92.522 265.64C93.0467 266.253 93.326 266.994 93.3599 267.861ZM92.1919 267.519C92.1411 267.028 91.9613 266.604 91.6523 266.249C91.3477 265.889 90.9076 265.709 90.332 265.709C89.7692 265.709 89.3058 265.896 88.9419 266.268C88.578 266.64 88.3791 267.059 88.3452 267.525L92.1919 267.519ZM98.5396 268.426H98.1523C97.471 268.426 96.9569 268.547 96.6099 268.788C96.2671 269.025 96.0957 269.381 96.0957 269.854C96.0957 270.282 96.2248 270.614 96.4829 270.851C96.741 271.088 97.0986 271.207 97.5557 271.207C98.1989 271.207 98.7046 270.984 99.0728 270.54C99.4409 270.091 99.6271 269.474 99.6313 268.687V268.426H98.5396ZM100.806 267.944V272H99.6313V270.946C99.3817 271.369 99.0664 271.683 98.6855 271.886C98.3089 272.085 97.8498 272.184 97.3081 272.184C96.5845 272.184 96.0068 271.981 95.5752 271.575C95.1436 271.164 94.9277 270.616 94.9277 269.931C94.9277 269.139 95.1922 268.538 95.7212 268.128C96.2544 267.717 97.0352 267.512 98.0635 267.512H99.6313V267.328C99.6271 266.761 99.4832 266.351 99.1997 266.097C98.9162 265.839 98.4634 265.709 97.8413 265.709C97.4435 265.709 97.0415 265.767 96.6353 265.881C96.229 265.995 95.8333 266.162 95.4482 266.382V265.214C95.8799 265.049 96.2925 264.927 96.686 264.846C97.0838 264.762 97.4689 264.719 97.8413 264.719C98.4295 264.719 98.931 264.806 99.3457 264.979C99.7646 265.153 100.103 265.413 100.361 265.76C100.522 265.972 100.636 266.234 100.704 266.547C100.772 266.856 100.806 267.322 100.806 267.944ZM109.248 266.357C108.998 266.162 108.744 266.021 108.486 265.932C108.228 265.843 107.945 265.798 107.636 265.798C106.908 265.798 106.351 266.027 105.966 266.484C105.581 266.941 105.389 267.601 105.389 268.464V272H104.214V264.891H105.389V266.281C105.583 265.777 105.882 265.392 106.284 265.125C106.69 264.855 107.17 264.719 107.725 264.719C108.012 264.719 108.281 264.755 108.531 264.827C108.78 264.899 109.02 265.011 109.248 265.164V266.357ZM115.926 265.138V266.281C115.591 266.086 115.255 265.94 114.917 265.843C114.578 265.745 114.233 265.697 113.882 265.697C113.353 265.697 112.957 265.784 112.695 265.957C112.437 266.126 112.308 266.387 112.308 266.738C112.308 267.055 112.405 267.292 112.6 267.449C112.794 267.605 113.279 267.758 114.053 267.906L114.523 267.995C115.103 268.105 115.541 268.325 115.837 268.655C116.137 268.985 116.288 269.414 116.288 269.943C116.288 270.646 116.038 271.196 115.539 271.594C115.039 271.987 114.345 272.184 113.457 272.184C113.105 272.184 112.737 272.146 112.352 272.07C111.967 271.998 111.55 271.888 111.102 271.74V270.534C111.537 270.758 111.954 270.927 112.352 271.042C112.75 271.152 113.126 271.207 113.482 271.207C113.998 271.207 114.398 271.103 114.682 270.896C114.965 270.684 115.107 270.39 115.107 270.013C115.107 269.472 114.589 269.097 113.552 268.89L113.501 268.877L113.063 268.788C112.39 268.657 111.899 268.437 111.59 268.128C111.281 267.815 111.127 267.389 111.127 266.852C111.127 266.171 111.358 265.646 111.819 265.278C112.28 264.905 112.938 264.719 113.793 264.719C114.174 264.719 114.54 264.755 114.891 264.827C115.242 264.895 115.587 264.999 115.926 265.138Z" fill="#CEBCD4"/>
<path d="M145.131 257.927H147.125V250.767L144.738 251.916V250.685L147.112 249.555H148.394V257.927H150.362V259H145.131V257.927ZM155.161 249.383C156.172 249.383 156.936 249.796 157.452 250.621C157.973 251.446 158.233 252.667 158.233 254.284C158.233 255.9 157.973 257.121 157.452 257.946C156.936 258.771 156.172 259.184 155.161 259.184C154.149 259.184 153.385 258.771 152.869 257.946C152.353 257.121 152.095 255.9 152.095 254.284C152.095 252.667 152.353 251.446 152.869 250.621C153.385 249.796 154.149 249.383 155.161 249.383ZM155.161 258.168C155.762 258.168 156.208 257.849 156.5 257.21C156.796 256.571 156.944 255.596 156.944 254.284C156.944 253.585 156.902 252.955 156.817 252.392L153.796 257.121C154.113 257.819 154.568 258.168 155.161 258.168ZM155.161 250.399C154.564 250.399 154.118 250.718 153.821 251.357C153.529 251.996 153.383 252.972 153.383 254.284C153.383 254.88 153.424 255.439 153.504 255.959L156.462 251.243C156.14 250.68 155.707 250.399 155.161 250.399ZM159.731 254.404H166.459V255.477H159.731V254.404ZM169.284 257.921H173.639V259H167.881V257.921C168.673 257.087 169.365 256.351 169.957 255.712C170.549 255.073 170.958 254.622 171.182 254.36C171.605 253.844 171.891 253.427 172.039 253.109C172.187 252.788 172.261 252.46 172.261 252.125C172.261 251.597 172.105 251.182 171.792 250.881C171.483 250.581 171.057 250.431 170.516 250.431C170.131 250.431 169.726 250.5 169.303 250.64C168.88 250.78 168.431 250.991 167.958 251.275V249.98C168.393 249.773 168.821 249.616 169.24 249.51C169.663 249.404 170.08 249.352 170.49 249.352C171.417 249.352 172.162 249.599 172.725 250.094C173.292 250.585 173.575 251.23 173.575 252.03C173.575 252.437 173.48 252.843 173.29 253.249C173.103 253.655 172.799 254.104 172.375 254.595C172.139 254.87 171.794 255.251 171.341 255.737C170.892 256.224 170.207 256.952 169.284 257.921ZM178.66 249.383C179.671 249.383 180.435 249.796 180.951 250.621C181.472 251.446 181.732 252.667 181.732 254.284C181.732 255.9 181.472 257.121 180.951 257.946C180.435 258.771 179.671 259.184 178.66 259.184C177.648 259.184 176.884 258.771 176.368 257.946C175.852 257.121 175.594 255.9 175.594 254.284C175.594 252.667 175.852 251.446 176.368 250.621C176.884 249.796 177.648 249.383 178.66 249.383ZM178.66 258.168C179.261 258.168 179.707 257.849 179.999 257.21C180.295 256.571 180.443 255.596 180.443 254.284C180.443 253.585 180.401 252.955 180.316 252.392L177.295 257.121C177.612 257.819 178.067 258.168 178.66 258.168ZM178.66 250.399C178.063 250.399 177.617 250.718 177.32 251.357C177.028 251.996 176.882 252.972 176.882 254.284C176.882 254.88 176.923 255.439 177.003 255.959L179.961 251.243C179.639 250.68 179.206 250.399 178.66 250.399Z" fill="#CEBCD4"/>
<path d="M210.785 257.921H215.14V259H209.382V257.921C210.174 257.087 210.866 256.351 211.458 255.712C212.05 255.073 212.459 254.622 212.683 254.36C213.106 253.844 213.392 253.427 213.54 253.109C213.688 252.788 213.762 252.46 213.762 252.125C213.762 251.597 213.606 251.182 213.292 250.881C212.984 250.581 212.558 250.431 212.017 250.431C211.632 250.431 211.227 250.5 210.804 250.64C210.381 250.78 209.932 250.991 209.458 251.275V249.98C209.894 249.773 210.322 249.616 210.741 249.51C211.164 249.404 211.581 249.352 211.991 249.352C212.918 249.352 213.663 249.599 214.226 250.094C214.793 250.585 215.076 251.23 215.076 252.03C215.076 252.437 214.981 252.843 214.791 253.249C214.604 253.655 214.3 254.104 213.876 254.595C213.639 254.87 213.295 255.251 212.842 255.737C212.393 256.224 211.708 256.952 210.785 257.921ZM220.161 249.383C221.172 249.383 221.936 249.796 222.452 250.621C222.973 251.446 223.233 252.667 223.233 254.284C223.233 255.9 222.973 257.121 222.452 257.946C221.936 258.771 221.172 259.184 220.161 259.184C219.149 259.184 218.385 258.771 217.869 257.946C217.353 257.121 217.095 255.9 217.095 254.284C217.095 252.667 217.353 251.446 217.869 250.621C218.385 249.796 219.149 249.383 220.161 249.383ZM220.161 258.168C220.762 258.168 221.208 257.849 221.5 257.21C221.796 256.571 221.944 255.596 221.944 254.284C221.944 253.585 221.902 252.955 221.817 252.392L218.796 257.121C219.113 257.819 219.568 258.168 220.161 258.168ZM220.161 250.399C219.564 250.399 219.118 250.718 218.821 251.357C218.529 251.996 218.383 252.972 218.383 254.284C218.383 254.88 218.424 255.439 218.504 255.959L221.462 251.243C221.14 250.68 220.707 250.399 220.161 250.399ZM224.731 254.404H231.459V255.477H224.731V254.404ZM236.842 253.928C237.464 254.093 237.94 254.387 238.271 254.811C238.601 255.229 238.766 255.754 238.766 256.385C238.766 257.257 238.472 257.942 237.883 258.441C237.299 258.937 236.489 259.184 235.452 259.184C235.016 259.184 234.572 259.144 234.119 259.063C233.666 258.983 233.222 258.867 232.786 258.714V257.438C233.218 257.663 233.643 257.83 234.062 257.94C234.481 258.05 234.898 258.105 235.312 258.105C236.015 258.105 236.555 257.946 236.931 257.629C237.308 257.312 237.496 256.854 237.496 256.258C237.496 255.708 237.308 255.272 236.931 254.95C236.555 254.624 236.045 254.461 235.401 254.461H234.424V253.408H235.401C235.99 253.408 236.449 253.279 236.779 253.021C237.109 252.762 237.274 252.403 237.274 251.941C237.274 251.455 237.119 251.082 236.811 250.824C236.506 250.562 236.07 250.431 235.503 250.431C235.126 250.431 234.737 250.473 234.335 250.558C233.933 250.642 233.512 250.769 233.072 250.938V249.758C233.584 249.622 234.039 249.521 234.437 249.453C234.839 249.385 235.194 249.352 235.503 249.352C236.425 249.352 237.162 249.584 237.712 250.05C238.266 250.511 238.543 251.125 238.543 251.891C238.543 252.411 238.397 252.845 238.105 253.192C237.818 253.539 237.397 253.784 236.842 253.928ZM243.66 249.383C244.671 249.383 245.435 249.796 245.951 250.621C246.472 251.446 246.732 252.667 246.732 254.284C246.732 255.9 246.472 257.121 245.951 257.946C245.435 258.771 244.671 259.184 243.66 259.184C242.648 259.184 241.884 258.771 241.368 257.946C240.852 257.121 240.594 255.9 240.594 254.284C240.594 252.667 240.852 251.446 241.368 250.621C241.884 249.796 242.648 249.383 243.66 249.383ZM243.66 258.168C244.261 258.168 244.707 257.849 244.999 257.21C245.295 256.571 245.443 255.596 245.443 254.284C245.443 253.585 245.401 252.955 245.316 252.392L242.295 257.121C242.612 257.819 243.067 258.168 243.66 258.168ZM243.66 250.399C243.063 250.399 242.617 250.718 242.32 251.357C242.028 251.996 241.882 252.972 241.882 254.284C241.882 254.88 241.923 255.439 242.003 255.959L244.961 251.243C244.639 250.68 244.206 250.399 243.66 250.399Z" fill="#CEBCD4"/>
<path d="M278.343 253.928C278.965 254.093 279.441 254.387 279.771 254.811C280.102 255.229 280.267 255.754 280.267 256.385C280.267 257.257 279.972 257.942 279.384 258.441C278.8 258.937 277.99 259.184 276.953 259.184C276.517 259.184 276.073 259.144 275.62 259.063C275.167 258.983 274.723 258.867 274.287 258.714V257.438C274.719 257.663 275.144 257.83 275.563 257.94C275.982 258.05 276.399 258.105 276.813 258.105C277.516 258.105 278.056 257.946 278.432 257.629C278.809 257.312 278.997 256.854 278.997 256.258C278.997 255.708 278.809 255.272 278.432 254.95C278.056 254.624 277.546 254.461 276.902 254.461H275.925V253.408H276.902C277.491 253.408 277.95 253.279 278.28 253.021C278.61 252.762 278.775 252.403 278.775 251.941C278.775 251.455 278.62 251.082 278.312 250.824C278.007 250.562 277.571 250.431 277.004 250.431C276.627 250.431 276.238 250.473 275.836 250.558C275.434 250.642 275.013 250.769 274.573 250.938V249.758C275.085 249.622 275.54 249.521 275.938 249.453C276.34 249.385 276.695 249.352 277.004 249.352C277.926 249.352 278.663 249.584 279.213 250.05C279.767 250.511 280.044 251.125 280.044 251.891C280.044 252.411 279.898 252.845 279.606 253.192C279.319 253.539 278.898 253.784 278.343 253.928ZM285.161 249.383C286.172 249.383 286.936 249.796 287.452 250.621C287.973 251.446 288.233 252.667 288.233 254.284C288.233 255.9 287.973 257.121 287.452 257.946C286.936 258.771 286.172 259.184 285.161 259.184C284.149 259.184 283.385 258.771 282.869 257.946C282.353 257.121 282.095 255.9 282.095 254.284C282.095 252.667 282.353 251.446 282.869 250.621C283.385 249.796 284.149 249.383 285.161 249.383ZM285.161 258.168C285.762 258.168 286.208 257.849 286.5 257.21C286.796 256.571 286.944 255.596 286.944 254.284C286.944 253.585 286.902 252.955 286.817 252.392L283.796 257.121C284.113 257.819 284.568 258.168 285.161 258.168ZM285.161 250.399C284.564 250.399 284.118 250.718 283.821 251.357C283.529 251.996 283.383 252.972 283.383 254.284C283.383 254.88 283.424 255.439 283.504 255.959L286.462 251.243C286.14 250.68 285.707 250.399 285.161 250.399ZM289.731 254.404H296.459V255.477H289.731V254.404ZM301.582 250.691L298.592 255.699H301.582V250.691ZM301.373 249.523H302.858V255.699H304.121V256.74H302.858V259H301.582V256.74H297.564V255.528L301.373 249.523ZM308.66 249.383C309.671 249.383 310.435 249.796 310.951 250.621C311.472 251.446 311.732 252.667 311.732 254.284C311.732 255.9 311.472 257.121 310.951 257.946C310.435 258.771 309.671 259.184 308.66 259.184C307.648 259.184 306.884 258.771 306.368 257.946C305.852 257.121 305.594 255.9 305.594 254.284C305.594 252.667 305.852 251.446 306.368 250.621C306.884 249.796 307.648 249.383 308.66 249.383ZM308.66 258.168C309.261 258.168 309.707 257.849 309.999 257.21C310.295 256.571 310.443 255.596 310.443 254.284C310.443 253.585 310.401 252.955 310.316 252.392L307.295 257.121C307.612 257.819 308.067 258.168 308.66 258.168ZM308.66 250.399C308.063 250.399 307.617 250.718 307.32 251.357C307.028 251.996 306.882 252.972 306.882 254.284C306.882 254.88 306.923 255.439 307.003 255.959L309.961 251.243C309.639 250.68 309.206 250.399 308.66 250.399Z" fill="#CEBCD4"/>
<path d="M351.916 250.691L348.926 255.699H351.916V250.691ZM351.707 249.523H353.192V255.699H354.455V256.74H353.192V259H351.916V256.74H347.898V255.528L351.707 249.523ZM358.994 249.383C360.005 249.383 360.769 249.796 361.285 250.621C361.806 251.446 362.066 252.667 362.066 254.284C362.066 255.9 361.806 257.121 361.285 257.946C360.769 258.771 360.005 259.184 358.994 259.184C357.982 259.184 357.218 258.771 356.702 257.946C356.186 257.121 355.928 255.9 355.928 254.284C355.928 252.667 356.186 251.446 356.702 250.621C357.218 249.796 357.982 249.383 358.994 249.383ZM358.994 258.168C359.595 258.168 360.041 257.849 360.333 257.21C360.629 256.571 360.777 255.596 360.777 254.284C360.777 253.585 360.735 252.955 360.65 252.392L357.629 257.121C357.946 257.819 358.401 258.168 358.994 258.168ZM358.994 250.399C358.397 250.399 357.951 250.718 357.654 251.357C357.362 251.996 357.216 252.972 357.216 254.284C357.216 254.88 357.257 255.439 357.337 255.959L360.295 251.243C359.973 250.68 359.54 250.399 358.994 250.399ZM367.487 251.522V254.334H370.312V255.407H367.487V258.219H366.42V255.407H363.602V254.334H366.42V251.522H367.487Z" fill="#CEBCD4"/>
<path d="M4.91016 248.237L4.02783 252.115H5.79883L4.91016 248.237ZM3.76758 246.523H6.05908L8.61719 256H6.74463L6.16064 253.658H3.65332L3.08203 256H1.20947L3.76758 246.523ZM13.9302 252.331C13.9302 251.696 13.8096 251.188 13.5684 250.808C13.3271 250.423 13.0098 250.23 12.6162 250.23C12.2269 250.23 11.9116 250.42 11.6704 250.801C11.4334 251.182 11.3149 251.692 11.3149 252.331C11.3149 252.974 11.4334 253.486 11.6704 253.867C11.9116 254.248 12.2269 254.438 12.6162 254.438C13.0098 254.438 13.3271 254.248 13.5684 253.867C13.8096 253.482 13.9302 252.97 13.9302 252.331ZM15.79 255.467C15.79 256.605 15.5319 257.426 15.0156 257.93C14.5036 258.438 13.6699 258.691 12.5146 258.691C12.1253 258.691 11.7402 258.662 11.3594 258.603C10.9785 258.548 10.5913 258.461 10.1978 258.342V256.635C10.549 256.829 10.9066 256.973 11.2705 257.066C11.6344 257.16 12.009 257.206 12.394 257.206C12.9188 257.206 13.306 257.081 13.5557 256.832C13.8053 256.586 13.9302 256.201 13.9302 255.676V254.908C13.7482 255.247 13.507 255.499 13.2065 255.664C12.9061 255.829 12.54 255.911 12.1084 255.911C11.2959 255.911 10.6506 255.594 10.1724 254.959C9.69417 254.324 9.45508 253.463 9.45508 252.375C9.45508 251.25 9.69417 250.357 10.1724 249.697C10.6506 249.037 11.2917 248.707 12.0957 248.707C12.502 248.707 12.8638 248.802 13.1812 248.992C13.4985 249.183 13.7482 249.451 13.9302 249.798V248.891H15.79V255.467ZM23.6611 255.651C23.2295 255.829 22.7894 255.962 22.3408 256.051C21.8923 256.14 21.4183 256.184 20.9189 256.184C19.7298 256.184 18.82 255.867 18.1895 255.232C17.5632 254.593 17.25 253.675 17.25 252.477C17.25 251.318 17.5526 250.401 18.1577 249.729C18.7629 249.056 19.5881 248.719 20.6333 248.719C21.687 248.719 22.5037 249.032 23.0835 249.659C23.6675 250.281 23.9595 251.159 23.9595 252.293V253.048H19.1416C19.1458 253.607 19.3109 254.024 19.6367 254.299C19.9626 254.574 20.4492 254.711 21.0967 254.711C21.5241 254.711 21.9451 254.65 22.3599 254.527C22.7746 254.405 23.2083 254.21 23.6611 253.943V255.651ZM22.0869 251.652C22.0785 251.161 21.9515 250.791 21.7061 250.541C21.4648 250.287 21.1073 250.16 20.6333 250.16C20.2059 250.16 19.8652 250.291 19.6113 250.554C19.3574 250.812 19.2072 251.18 19.1606 251.658L22.0869 251.652ZM37.4292 252.331C37.4292 251.696 37.3086 251.188 37.0674 250.808C36.8262 250.423 36.5088 250.23 36.1152 250.23C35.7259 250.23 35.4106 250.42 35.1694 250.801C34.9325 251.182 34.814 251.692 34.814 252.331C34.814 252.974 34.9325 253.486 35.1694 253.867C35.4106 254.248 35.7259 254.438 36.1152 254.438C36.5088 254.438 36.8262 254.248 37.0674 253.867C37.3086 253.482 37.4292 252.97 37.4292 252.331ZM39.2891 255.467C39.2891 256.605 39.0309 257.426 38.5146 257.93C38.0026 258.438 37.1689 258.691 36.0137 258.691C35.6243 258.691 35.2393 258.662 34.8584 258.603C34.4775 258.548 34.0903 258.461 33.6968 258.342V256.635C34.048 256.829 34.4056 256.973 34.7695 257.066C35.1335 257.16 35.508 257.206 35.8931 257.206C36.4178 257.206 36.805 257.081 37.0547 256.832C37.3044 256.586 37.4292 256.201 37.4292 255.676V254.908C37.2472 255.247 37.006 255.499 36.7056 255.664C36.4051 255.829 36.0391 255.911 35.6074 255.911C34.7949 255.911 34.1496 255.594 33.6714 254.959C33.1932 254.324 32.9541 253.463 32.9541 252.375C32.9541 251.25 33.1932 250.357 33.6714 249.697C34.1496 249.037 34.7907 248.707 35.5947 248.707C36.001 248.707 36.3628 248.802 36.6802 248.992C36.9976 249.183 37.2472 249.451 37.4292 249.798V248.891H39.2891V255.467ZM44.6084 252.661C43.9144 252.661 43.4299 252.75 43.1548 252.928C42.8797 253.105 42.7422 253.41 42.7422 253.842C42.7422 254.163 42.8374 254.419 43.0278 254.61C43.2183 254.8 43.4764 254.896 43.8022 254.896C44.2931 254.896 44.674 254.711 44.9448 254.343C45.2157 253.971 45.3511 253.452 45.3511 252.788V252.661H44.6084ZM47.1982 251.944V256H45.3511V255.207C45.1268 255.52 44.839 255.761 44.4878 255.93C44.1366 256.099 43.7493 256.184 43.3262 256.184C42.5179 256.184 41.8874 255.97 41.4346 255.543C40.986 255.116 40.7617 254.519 40.7617 253.753C40.7617 252.924 41.0304 252.312 41.5679 251.918C42.1053 251.521 42.9368 251.322 44.0625 251.322H45.3511V251.011C45.3511 250.71 45.241 250.484 45.021 250.332C44.8052 250.175 44.4857 250.097 44.0625 250.097C43.6182 250.097 43.1865 250.154 42.7676 250.268C42.3529 250.378 41.9191 250.556 41.4663 250.801V249.214C41.8768 249.045 42.2936 248.92 42.7168 248.84C43.14 248.759 43.5885 248.719 44.0625 248.719C45.2178 248.719 46.0282 248.954 46.4937 249.424C46.9634 249.894 47.1982 250.734 47.1982 251.944ZM50.8037 254.997V258.704H48.9502V248.891H50.8037V249.957C50.9984 249.547 51.2544 249.238 51.5718 249.03C51.8892 248.823 52.2616 248.719 52.689 248.719C53.5015 248.719 54.132 249.045 54.5806 249.697C55.0291 250.348 55.2534 251.267 55.2534 252.452C55.2534 253.653 55.0249 254.576 54.5679 255.219C54.1151 255.862 53.4676 256.184 52.6255 256.184C52.2446 256.184 51.9019 256.087 51.5972 255.892C51.2967 255.693 51.0322 255.395 50.8037 254.997ZM53.3936 252.439C53.3936 251.753 53.2793 251.216 53.0508 250.827C52.8223 250.437 52.507 250.243 52.105 250.243C51.703 250.243 51.3856 250.437 51.1528 250.827C50.9201 251.216 50.8037 251.753 50.8037 252.439C50.8037 253.125 50.9201 253.662 51.1528 254.051C51.3856 254.441 51.703 254.635 52.105 254.635C52.507 254.635 52.8223 254.441 53.0508 254.051C53.2793 253.662 53.3936 253.125 53.3936 252.439Z" fill="#CEBCD4"/>
<path d="M0 240.083H391" stroke="#B8A9BE" stroke-width="0.5" stroke-miterlimit="10"/>
<path d="M0 193.083H18" stroke="#B8A9BE" stroke-width="0.5" stroke-miterlimit="10"/>
<path d="M0 146.083H18" stroke="#B8A9BE" stroke-width="0.5" stroke-miterlimit="10"/>
<path d="M0 99.0833H18" stroke="#B8A9BE" stroke-width="0.5" stroke-miterlimit="10"/>
<path d="M0 52.0833H18" stroke="#B8A9BE" stroke-width="0.5" stroke-miterlimit="10"/>
<path d="M5.21094 42.1533C4.5957 42.1533 4.11947 42.3265 3.78223 42.6729C3.44954 43.0146 3.2832 43.5 3.2832 44.1289C3.2832 44.7578 3.45182 45.2477 3.78906 45.5986C4.13086 45.945 4.60482 46.1182 5.21094 46.1182C5.83073 46.1182 6.30697 45.9473 6.63965 45.6055C6.97689 45.2591 7.14551 44.7669 7.14551 44.1289C7.14551 43.5046 6.97461 43.0192 6.63281 42.6729C6.29557 42.3265 5.82161 42.1533 5.21094 42.1533ZM4.00781 41.5791C3.41992 41.4287 2.95964 41.1484 2.62695 40.7383C2.29883 40.3281 2.13477 39.8337 2.13477 39.2549C2.13477 38.4437 2.41048 37.8011 2.96191 37.3271C3.51335 36.8486 4.26302 36.6094 5.21094 36.6094C6.16341 36.6094 6.91536 36.8486 7.4668 37.3271C8.01823 37.8011 8.29395 38.4437 8.29395 39.2549C8.29395 39.8337 8.1276 40.3281 7.79492 40.7383C7.4668 41.1484 7.00879 41.4287 6.4209 41.5791C7.10449 41.7295 7.6263 42.0326 7.98633 42.4883C8.35091 42.944 8.5332 43.5342 8.5332 44.2588C8.5332 45.1794 8.23926 45.8994 7.65137 46.4189C7.06348 46.9385 6.25 47.1982 5.21094 47.1982C4.17188 47.1982 3.3584 46.9408 2.77051 46.4258C2.18717 45.9062 1.89551 45.1885 1.89551 44.2725C1.89551 43.5433 2.07552 42.9508 2.43555 42.4951C2.80013 42.0348 3.32422 41.7295 4.00781 41.5791ZM3.50879 39.3848C3.50879 39.9316 3.65462 40.3486 3.94629 40.6357C4.23796 40.9229 4.65951 41.0664 5.21094 41.0664C5.76693 41.0664 6.19076 40.9229 6.48242 40.6357C6.77409 40.3486 6.91992 39.9316 6.91992 39.3848C6.91992 38.8288 6.77409 38.4049 6.48242 38.1133C6.19531 37.8216 5.77148 37.6758 5.21094 37.6758C4.65951 37.6758 4.23796 37.8239 3.94629 38.1201C3.65462 38.4118 3.50879 38.8333 3.50879 39.3848ZM23.7158 35.6934C23.1097 36.7324 22.6562 37.7692 22.3555 38.8037C22.0592 39.8337 21.9111 40.8727 21.9111 41.9209C21.9111 42.9645 22.0592 44.0036 22.3555 45.0381C22.6562 46.0726 23.1097 47.1139 23.7158 48.1621H22.6221C21.9339 47.0775 21.4212 46.0225 21.084 44.9971C20.7467 43.9671 20.5781 42.9417 20.5781 41.9209C20.5781 40.9046 20.7467 39.8815 21.084 38.8516C21.4212 37.8216 21.9339 36.7689 22.6221 35.6934H23.7158ZM28.8701 46.0361V49.9121H27.6055V39.3438H28.8701V40.3213C29.0798 39.943 29.3577 39.6559 29.7041 39.46C30.055 39.2594 30.4583 39.1592 30.9141 39.1592C31.8392 39.1592 32.5638 39.5169 33.0879 40.2324C33.6165 40.9479 33.8809 41.9391 33.8809 43.2061C33.8809 44.4502 33.6165 45.4277 33.0879 46.1387C32.5592 46.8451 31.8346 47.1982 30.9141 47.1982C30.4492 47.1982 30.0413 47.1003 29.6904 46.9043C29.3441 46.7038 29.0706 46.4144 28.8701 46.0361ZM32.5615 43.1787C32.5615 42.2035 32.4066 41.4674 32.0967 40.9707C31.7913 40.474 31.3356 40.2256 30.7295 40.2256C30.1188 40.2256 29.6562 40.4762 29.3418 40.9775C29.0273 41.4743 28.8701 42.208 28.8701 43.1787C28.8701 44.1449 29.0273 44.8786 29.3418 45.3799C29.6562 45.8812 30.1188 46.1318 30.7295 46.1318C31.3356 46.1318 31.7913 45.8835 32.0967 45.3867C32.4066 44.89 32.5615 44.154 32.5615 43.1787ZM38.9531 40.2256C38.3151 40.2256 37.832 40.474 37.5039 40.9707C37.1758 41.4674 37.0117 42.2035 37.0117 43.1787C37.0117 44.1494 37.1758 44.8854 37.5039 45.3867C37.832 45.8835 38.3151 46.1318 38.9531 46.1318C39.5957 46.1318 40.0811 45.8835 40.4092 45.3867C40.7373 44.8854 40.9014 44.1494 40.9014 43.1787C40.9014 42.2035 40.7373 41.4674 40.4092 40.9707C40.0811 40.474 39.5957 40.2256 38.9531 40.2256ZM38.9531 39.1592C40.015 39.1592 40.8262 39.5033 41.3867 40.1914C41.9518 40.8796 42.2344 41.8753 42.2344 43.1787C42.2344 44.4867 41.9541 45.4847 41.3936 46.1729C40.833 46.8564 40.0195 47.1982 38.9531 47.1982C37.8913 47.1982 37.0801 46.8564 36.5195 46.1729C35.959 45.4847 35.6787 44.4867 35.6787 43.1787C35.6787 41.8753 35.959 40.8796 36.5195 40.1914C37.0801 39.5033 37.8913 39.1592 38.9531 39.1592ZM49.8291 39.6104V40.8408C49.4691 40.6312 49.1068 40.474 48.7422 40.3691C48.3776 40.2643 48.0062 40.2119 47.6279 40.2119C47.0583 40.2119 46.6322 40.3053 46.3496 40.4922C46.0716 40.6745 45.9326 40.9548 45.9326 41.333C45.9326 41.6748 46.0374 41.93 46.2471 42.0986C46.4567 42.2673 46.9785 42.4313 47.8125 42.5908L48.3184 42.6865C48.9427 42.805 49.4144 43.042 49.7334 43.3975C50.057 43.7529 50.2188 44.2155 50.2188 44.7852C50.2188 45.5417 49.9499 46.1341 49.4121 46.5625C48.8743 46.9863 48.127 47.1982 47.1699 47.1982C46.7917 47.1982 46.3952 47.1572 45.9805 47.0752C45.5658 46.9977 45.1169 46.8792 44.6338 46.7197V45.4209C45.1032 45.6624 45.5521 45.8447 45.9805 45.9678C46.4089 46.0863 46.8145 46.1455 47.1973 46.1455C47.7533 46.1455 48.1839 46.0339 48.4893 45.8105C48.7946 45.5827 48.9473 45.266 48.9473 44.8604C48.9473 44.277 48.389 43.8737 47.2725 43.6504L47.2178 43.6367L46.7461 43.541C46.0215 43.3997 45.4928 43.1628 45.1602 42.8301C44.8275 42.4928 44.6611 42.0348 44.6611 41.4561C44.6611 40.7223 44.9095 40.1572 45.4062 39.7607C45.903 39.3597 46.6117 39.1592 47.5322 39.1592C47.9424 39.1592 48.3366 39.1979 48.7148 39.2754C49.0931 39.3483 49.4645 39.46 49.8291 39.6104ZM53.7734 39.3711H56.9932V46.0225H59.4883V47H53.2402V46.0225H55.7354V40.3486H53.7734V39.3711ZM55.7354 36.3975H56.9932V37.9834H55.7354V36.3975ZM64.2461 37.1699V39.3438H67.1035V40.3213H64.2461V44.4775C64.2461 45.0426 64.3532 45.4368 64.5674 45.6602C64.7816 45.8835 65.1553 45.9951 65.6885 45.9951H67.1035V47H65.5654C64.6221 47 63.9567 46.8109 63.5693 46.4326C63.182 46.0544 62.9883 45.4027 62.9883 44.4775V40.3213H60.9443V39.3438H62.9883V37.1699H64.2461ZM70.6445 39.3711H73.8643V46.0225H76.3594V47H70.1113V46.0225H72.6064V40.3486H70.6445V39.3711ZM72.6064 36.3975H73.8643V37.9834H72.6064V36.3975ZM77.6035 39.3438H78.9092L81.1309 45.7695L83.3594 39.3438H84.665L81.9443 47H80.3242L77.6035 39.3438ZM93.0117 42.543V43.1582H87.5635V43.1992C87.527 44.2428 87.7253 44.9925 88.1582 45.4482C88.5957 45.904 89.2109 46.1318 90.0039 46.1318C90.4049 46.1318 90.8242 46.068 91.2617 45.9404C91.6992 45.8128 92.1663 45.6191 92.6631 45.3594V46.6104C92.1846 46.8063 91.722 46.9521 91.2754 47.0479C90.8333 47.1481 90.4049 47.1982 89.9902 47.1982C88.8008 47.1982 87.8711 46.8428 87.2012 46.1318C86.5312 45.4163 86.1963 44.432 86.1963 43.1787C86.1963 41.9574 86.5244 40.9821 87.1807 40.2529C87.8369 39.5238 88.7119 39.1592 89.8057 39.1592C90.7809 39.1592 91.5488 39.4896 92.1094 40.1504C92.6745 40.8112 92.9753 41.6087 93.0117 42.543ZM91.7539 42.1738C91.6992 41.6452 91.5055 41.1895 91.1729 40.8066C90.8447 40.4193 90.3708 40.2256 89.751 40.2256C89.1449 40.2256 88.6458 40.4261 88.2539 40.8271C87.862 41.2282 87.6478 41.6794 87.6113 42.1807L91.7539 42.1738ZM109.493 36.3633V37.4092H108.064C107.613 37.4092 107.299 37.5026 107.121 37.6895C106.948 37.8717 106.861 38.1976 106.861 38.667V39.3438H109.493V40.3213H106.861V47H105.604V40.3213H103.56V39.3438H105.604V38.8105C105.604 37.972 105.795 37.3545 106.178 36.958C106.565 36.5615 107.167 36.3633 107.982 36.3633H109.493ZM118.318 42.543V43.1582H112.87V43.1992C112.834 44.2428 113.032 44.9925 113.465 45.4482C113.902 45.904 114.518 46.1318 115.311 46.1318C115.712 46.1318 116.131 46.068 116.568 45.9404C117.006 45.8128 117.473 45.6191 117.97 45.3594V46.6104C117.491 46.8063 117.029 46.9521 116.582 47.0479C116.14 47.1481 115.712 47.1982 115.297 47.1982C114.107 47.1982 113.178 46.8428 112.508 46.1318C111.838 45.4163 111.503 44.432 111.503 43.1787C111.503 41.9574 111.831 40.9821 112.487 40.2529C113.144 39.5238 114.019 39.1592 115.112 39.1592C116.088 39.1592 116.855 39.4896 117.416 40.1504C117.981 40.8112 118.282 41.6087 118.318 42.543ZM117.061 42.1738C117.006 41.6452 116.812 41.1895 116.479 40.8066C116.151 40.4193 115.677 40.2256 115.058 40.2256C114.451 40.2256 113.952 40.4261 113.561 40.8271C113.169 41.2282 112.954 41.6794 112.918 42.1807L117.061 42.1738ZM126.754 42.543V43.1582H121.306V43.1992C121.269 44.2428 121.467 44.9925 121.9 45.4482C122.338 45.904 122.953 46.1318 123.746 46.1318C124.147 46.1318 124.566 46.068 125.004 45.9404C125.441 45.8128 125.909 45.6191 126.405 45.3594V46.6104C125.927 46.8063 125.464 46.9521 125.018 47.0479C124.576 47.1481 124.147 47.1982 123.732 47.1982C122.543 47.1982 121.613 46.8428 120.943 46.1318C120.273 45.4163 119.938 44.432 119.938 43.1787C119.938 41.9574 120.267 40.9821 120.923 40.2529C121.579 39.5238 122.454 39.1592 123.548 39.1592C124.523 39.1592 125.291 39.4896 125.852 40.1504C126.417 40.8112 126.717 41.6087 126.754 42.543ZM125.496 42.1738C125.441 41.6452 125.248 41.1895 124.915 40.8066C124.587 40.4193 124.113 40.2256 123.493 40.2256C122.887 40.2256 122.388 40.4261 121.996 40.8271C121.604 41.2282 121.39 41.6794 121.354 42.1807L125.496 42.1738ZM132.448 44.2314C132.448 44.7965 132.551 45.2227 132.756 45.5098C132.965 45.7969 133.273 45.9404 133.679 45.9404H135.148V47H133.556C132.804 47 132.22 46.7607 131.806 46.2822C131.396 45.7992 131.19 45.1156 131.19 44.2314V37.3066H129.174V36.3223H132.448V44.2314ZM138.129 39.3711H141.349V46.0225H143.844V47H137.596V46.0225H140.091V40.3486H138.129V39.3711ZM140.091 36.3975H141.349V37.9834H140.091V36.3975ZM151.589 42.2559V47H150.324V42.2559C150.324 41.5677 150.203 41.0618 149.962 40.7383C149.72 40.4147 149.342 40.2529 148.827 40.2529C148.239 40.2529 147.786 40.4626 147.467 40.8818C147.152 41.2965 146.995 41.8936 146.995 42.6729V47H145.737V39.3438H146.995V40.4922C147.218 40.0547 147.521 39.7243 147.904 39.501C148.287 39.2731 148.741 39.1592 149.265 39.1592C150.044 39.1592 150.625 39.4167 151.008 39.9316C151.395 40.4421 151.589 41.2168 151.589 42.2559ZM158.705 43.1104C158.705 42.167 158.55 41.4515 158.24 40.9639C157.935 40.4717 157.488 40.2256 156.9 40.2256C156.285 40.2256 155.816 40.4717 155.492 40.9639C155.169 41.4515 155.007 42.167 155.007 43.1104C155.007 44.0537 155.169 44.7738 155.492 45.2705C155.82 45.7627 156.294 46.0088 156.914 46.0088C157.493 46.0088 157.935 45.7604 158.24 45.2637C158.55 44.7669 158.705 44.0492 158.705 43.1104ZM159.963 46.5078C159.963 47.6562 159.692 48.5267 159.149 49.1191C158.607 49.7116 157.81 50.0078 156.757 50.0078C156.41 50.0078 156.048 49.9759 155.67 49.9121C155.292 49.8483 154.913 49.7549 154.535 49.6318V48.3877C154.982 48.5973 155.387 48.7523 155.752 48.8525C156.117 48.9528 156.451 49.0029 156.757 49.0029C157.436 49.0029 157.93 48.8184 158.24 48.4492C158.55 48.0801 158.705 47.4945 158.705 46.6924V46.6377V45.7832C158.505 46.2116 158.231 46.5306 157.885 46.7402C157.538 46.9499 157.117 47.0547 156.62 47.0547C155.727 47.0547 155.014 46.6969 154.48 45.9814C153.947 45.266 153.681 44.3089 153.681 43.1104C153.681 41.9072 153.947 40.9479 154.48 40.2324C155.014 39.5169 155.727 39.1592 156.62 39.1592C157.112 39.1592 157.529 39.2572 157.871 39.4531C158.213 39.6491 158.491 39.9521 158.705 40.3623V39.3711H159.963V46.5078ZM167.927 39.6104V40.8408C167.567 40.6312 167.204 40.474 166.84 40.3691C166.475 40.2643 166.104 40.2119 165.726 40.2119C165.156 40.2119 164.73 40.3053 164.447 40.4922C164.169 40.6745 164.03 40.9548 164.03 41.333C164.03 41.6748 164.135 41.93 164.345 42.0986C164.554 42.2673 165.076 42.4313 165.91 42.5908L166.416 42.6865C167.04 42.805 167.512 43.042 167.831 43.3975C168.155 43.7529 168.316 44.2155 168.316 44.7852C168.316 45.5417 168.048 46.1341 167.51 46.5625C166.972 46.9863 166.225 47.1982 165.268 47.1982C164.889 47.1982 164.493 47.1572 164.078 47.0752C163.663 46.9977 163.215 46.8792 162.731 46.7197V45.4209C163.201 45.6624 163.65 45.8447 164.078 45.9678C164.507 46.0863 164.912 46.1455 165.295 46.1455C165.851 46.1455 166.282 46.0339 166.587 45.8105C166.892 45.5827 167.045 45.266 167.045 44.8604C167.045 44.277 166.487 43.8737 165.37 43.6504L165.315 43.6367L164.844 43.541C164.119 43.3997 163.59 43.1628 163.258 42.8301C162.925 42.4928 162.759 42.0348 162.759 41.4561C162.759 40.7223 163.007 40.1572 163.504 39.7607C164.001 39.3597 164.709 39.1592 165.63 39.1592C166.04 39.1592 166.434 39.1979 166.812 39.2754C167.191 39.3483 167.562 39.46 167.927 39.6104ZM172.09 35.6934H173.184C173.872 36.7689 174.384 37.8216 174.722 38.8516C175.059 39.8815 175.228 40.9046 175.228 41.9209C175.228 42.9463 175.059 43.974 174.722 45.0039C174.384 46.0339 173.872 47.0866 173.184 48.1621H172.09C172.696 47.1048 173.147 46.0589 173.443 45.0244C173.744 43.9899 173.895 42.9554 173.895 41.9209C173.895 40.8818 173.744 39.8451 173.443 38.8105C173.147 37.776 172.696 36.737 172.09 35.6934Z" fill="#CEBCD4"/>
<path d="M7.77441 83.0195V84.291C7.4873 84.1224 7.18197 83.9948 6.8584 83.9082C6.53483 83.8171 6.19759 83.7715 5.84668 83.7715C4.97168 83.7715 4.30859 84.1019 3.85742 84.7627C3.40625 85.4189 3.18066 86.3874 3.18066 87.668C3.39941 87.2122 3.70247 86.8636 4.08984 86.6221C4.47721 86.376 4.92155 86.2529 5.42285 86.2529C6.40723 86.2529 7.16829 86.556 7.70605 87.1621C8.24837 87.7637 8.51953 88.6182 8.51953 89.7256C8.51953 90.8285 8.24154 91.6829 7.68555 92.2891C7.12956 92.8952 6.34798 93.1982 5.34082 93.1982C4.15592 93.1982 3.28776 92.7744 2.73633 91.9268C2.1849 91.0745 1.90918 89.7347 1.90918 87.9072C1.90918 86.1846 2.23958 84.8721 2.90039 83.9697C3.56576 83.0628 4.52734 82.6094 5.78516 82.6094C6.1224 82.6094 6.45964 82.6458 6.79688 82.7188C7.13411 82.7871 7.45996 82.8874 7.77441 83.0195ZM5.31348 87.333C4.72559 87.333 4.26302 87.5449 3.92578 87.9688C3.58854 88.3926 3.41992 88.9782 3.41992 89.7256C3.41992 90.473 3.58854 91.0586 3.92578 91.4824C4.26302 91.9062 4.72559 92.1182 5.31348 92.1182C5.92415 92.1182 6.38444 91.9176 6.69434 91.5166C7.00423 91.111 7.15918 90.514 7.15918 89.7256C7.15918 88.9326 7.00423 88.3356 6.69434 87.9346C6.38444 87.5335 5.92415 87.333 5.31348 87.333Z" fill="#CEBCD4"/>
<path d="M6.02441 132.052L2.80469 137.445H6.02441V132.052ZM5.79883 130.794H7.39844V137.445H8.75879V138.566H7.39844V141H6.02441V138.566H1.69727V137.261L5.79883 130.794Z" fill="#CEBCD4"/>
<path d="M3.5498 186.838H8.23926V188H2.03906V186.838C2.89128 185.94 3.63639 185.147 4.27441 184.459C4.91243 183.771 5.35221 183.285 5.59375 183.003C6.04948 182.447 6.3571 181.998 6.5166 181.656C6.67611 181.31 6.75586 180.957 6.75586 180.597C6.75586 180.027 6.58724 179.58 6.25 179.257C5.91732 178.933 5.45931 178.771 4.87598 178.771C4.46126 178.771 4.02604 178.847 3.57031 178.997C3.11458 179.147 2.63151 179.375 2.12109 179.681V178.286C2.59049 178.063 3.05078 177.894 3.50195 177.78C3.95768 177.666 4.40658 177.609 4.84863 177.609C5.84668 177.609 6.64876 177.876 7.25488 178.409C7.86556 178.938 8.1709 179.633 8.1709 180.494C8.1709 180.932 8.06836 181.369 7.86328 181.807C7.66276 182.244 7.33464 182.727 6.87891 183.256C6.6237 183.552 6.25228 183.962 5.76465 184.486C5.28158 185.01 4.54329 185.794 3.5498 186.838Z" fill="#CEBCD4"/>
<path d="M5.21094 223.644C6.30013 223.644 7.12272 224.088 7.67871 224.977C8.23926 225.865 8.51953 227.18 8.51953 228.921C8.51953 230.662 8.23926 231.977 7.67871 232.865C7.12272 233.754 6.30013 234.198 5.21094 234.198C4.12174 234.198 3.29915 233.754 2.74316 232.865C2.18717 231.977 1.90918 230.662 1.90918 228.921C1.90918 227.18 2.18717 225.865 2.74316 224.977C3.29915 224.088 4.12174 223.644 5.21094 223.644ZM5.21094 233.104C5.85807 233.104 6.33887 232.76 6.65332 232.072C6.97233 231.384 7.13184 230.334 7.13184 228.921C7.13184 228.169 7.08626 227.49 6.99512 226.884L3.74121 231.977C4.08301 232.729 4.57292 233.104 5.21094 233.104ZM5.21094 224.737C4.56836 224.737 4.08757 225.081 3.76855 225.77C3.4541 226.458 3.29688 227.508 3.29688 228.921C3.29688 229.563 3.34017 230.165 3.42676 230.726L6.6123 225.646C6.26595 225.04 5.79883 224.737 5.21094 224.737Z" fill="#CEBCD4"/>
<path d="M4.91016 248.237L4.02783 252.115H5.79883L4.91016 248.237ZM3.76758 246.523H6.05908L8.61719 256H6.74463L6.16064 253.658H3.65332L3.08203 256H1.20947L3.76758 246.523ZM13.9302 252.331C13.9302 251.696 13.8096 251.188 13.5684 250.808C13.3271 250.423 13.0098 250.23 12.6162 250.23C12.2269 250.23 11.9116 250.42 11.6704 250.801C11.4334 251.182 11.3149 251.692 11.3149 252.331C11.3149 252.974 11.4334 253.486 11.6704 253.867C11.9116 254.248 12.2269 254.438 12.6162 254.438C13.0098 254.438 13.3271 254.248 13.5684 253.867C13.8096 253.482 13.9302 252.97 13.9302 252.331ZM15.79 255.467C15.79 256.605 15.5319 257.426 15.0156 257.93C14.5036 258.438 13.6699 258.691 12.5146 258.691C12.1253 258.691 11.7402 258.662 11.3594 258.603C10.9785 258.548 10.5913 258.461 10.1978 258.342V256.635C10.549 256.829 10.9066 256.973 11.2705 257.066C11.6344 257.16 12.009 257.206 12.394 257.206C12.9188 257.206 13.306 257.081 13.5557 256.832C13.8053 256.586 13.9302 256.201 13.9302 255.676V254.908C13.7482 255.247 13.507 255.499 13.2065 255.664C12.9061 255.829 12.54 255.911 12.1084 255.911C11.2959 255.911 10.6506 255.594 10.1724 254.959C9.69417 254.324 9.45508 253.463 9.45508 252.375C9.45508 251.25 9.69417 250.357 10.1724 249.697C10.6506 249.037 11.2917 248.707 12.0957 248.707C12.502 248.707 12.8638 248.802 13.1812 248.992C13.4985 249.183 13.7482 249.451 13.9302 249.798V248.891H15.79V255.467ZM23.6611 255.651C23.2295 255.829 22.7894 255.962 22.3408 256.051C21.8923 256.14 21.4183 256.184 20.9189 256.184C19.7298 256.184 18.82 255.867 18.1895 255.232C17.5632 254.593 17.25 253.675 17.25 252.477C17.25 251.318 17.5526 250.401 18.1577 249.729C18.7629 249.056 19.5881 248.719 20.6333 248.719C21.687 248.719 22.5037 249.032 23.0835 249.659C23.6675 250.281 23.9595 251.159 23.9595 252.293V253.048H19.1416C19.1458 253.607 19.3109 254.024 19.6367 254.299C19.9626 254.574 20.4492 254.711 21.0967 254.711C21.5241 254.711 21.9451 254.65 22.3599 254.527C22.7746 254.405 23.2083 254.21 23.6611 253.943V255.651ZM22.0869 251.652C22.0785 251.161 21.9515 250.791 21.7061 250.541C21.4648 250.287 21.1073 250.16 20.6333 250.16C20.2059 250.16 19.8652 250.291 19.6113 250.554C19.3574 250.812 19.2072 251.18 19.1606 251.658L22.0869 251.652ZM37.4292 252.331C37.4292 251.696 37.3086 251.188 37.0674 250.808C36.8262 250.423 36.5088 250.23 36.1152 250.23C35.7259 250.23 35.4106 250.42 35.1694 250.801C34.9325 251.182 34.814 251.692 34.814 252.331C34.814 252.974 34.9325 253.486 35.1694 253.867C35.4106 254.248 35.7259 254.438 36.1152 254.438C36.5088 254.438 36.8262 254.248 37.0674 253.867C37.3086 253.482 37.4292 252.97 37.4292 252.331ZM39.2891 255.467C39.2891 256.605 39.0309 257.426 38.5146 257.93C38.0026 258.438 37.1689 258.691 36.0137 258.691C35.6243 258.691 35.2393 258.662 34.8584 258.603C34.4775 258.548 34.0903 258.461 33.6968 258.342V256.635C34.048 256.829 34.4056 256.973 34.7695 257.066C35.1335 257.16 35.508 257.206 35.8931 257.206C36.4178 257.206 36.805 257.081 37.0547 256.832C37.3044 256.586 37.4292 256.201 37.4292 255.676V254.908C37.2472 255.247 37.006 255.499 36.7056 255.664C36.4051 255.829 36.0391 255.911 35.6074 255.911C34.7949 255.911 34.1496 255.594 33.6714 254.959C33.1932 254.324 32.9541 253.463 32.9541 252.375C32.9541 251.25 33.1932 250.357 33.6714 249.697C34.1496 249.037 34.7907 248.707 35.5947 248.707C36.001 248.707 36.3628 248.802 36.6802 248.992C36.9976 249.183 37.2472 249.451 37.4292 249.798V248.891H39.2891V255.467ZM44.6084 252.661C43.9144 252.661 43.4299 252.75 43.1548 252.928C42.8797 253.105 42.7422 253.41 42.7422 253.842C42.7422 254.163 42.8374 254.419 43.0278 254.61C43.2183 254.8 43.4764 254.896 43.8022 254.896C44.2931 254.896 44.674 254.711 44.9448 254.343C45.2157 253.971 45.3511 253.452 45.3511 252.788V252.661H44.6084ZM47.1982 251.944V256H45.3511V255.207C45.1268 255.52 44.839 255.761 44.4878 255.93C44.1366 256.099 43.7493 256.184 43.3262 256.184C42.5179 256.184 41.8874 255.97 41.4346 255.543C40.986 255.116 40.7617 254.519 40.7617 253.753C40.7617 252.924 41.0304 252.312 41.5679 251.918C42.1053 251.521 42.9368 251.322 44.0625 251.322H45.3511V251.011C45.3511 250.71 45.241 250.484 45.021 250.332C44.8052 250.175 44.4857 250.097 44.0625 250.097C43.6182 250.097 43.1865 250.154 42.7676 250.268C42.3529 250.378 41.9191 250.556 41.4663 250.801V249.214C41.8768 249.045 42.2936 248.92 42.7168 248.84C43.14 248.759 43.5885 248.719 44.0625 248.719C45.2178 248.719 46.0282 248.954 46.4937 249.424C46.9634 249.894 47.1982 250.734 47.1982 251.944ZM50.8037 254.997V258.704H48.9502V248.891H50.8037V249.957C50.9984 249.547 51.2544 249.238 51.5718 249.03C51.8892 248.823 52.2616 248.719 52.689 248.719C53.5015 248.719 54.132 249.045 54.5806 249.697C55.0291 250.348 55.2534 251.267 55.2534 252.452C55.2534 253.653 55.0249 254.576 54.5679 255.219C54.1151 255.862 53.4676 256.184 52.6255 256.184C52.2446 256.184 51.9019 256.087 51.5972 255.892C51.2967 255.693 51.0322 255.395 50.8037 254.997ZM53.3936 252.439C53.3936 251.753 53.2793 251.216 53.0508 250.827C52.8223 250.437 52.507 250.243 52.105 250.243C51.703 250.243 51.3856 250.437 51.1528 250.827C50.9201 251.216 50.8037 251.753 50.8037 252.439C50.8037 253.125 50.9201 253.662 51.1528 254.051C51.3856 254.441 51.703 254.635 52.105 254.635C52.507 254.635 52.8223 254.441 53.0508 254.051C53.2793 253.662 53.3936 253.125 53.3936 252.439Z" fill="#CEBCD4"/>
<path d="M19.3423 10.2202V13.9463H20.8594C21.6042 13.9463 22.1353 13.8172 22.4526 13.5591C22.77 13.2967 22.9287 12.8672 22.9287 12.2705C22.9287 11.4834 22.7616 10.946 22.4272 10.6582C22.0929 10.3662 21.5703 10.2202 20.8594 10.2202H19.3423ZM19.3423 6.57666V9.1792H20.834C21.4518 9.1792 21.8983 9.06071 22.1733 8.82373C22.4526 8.58675 22.5923 8.28841 22.5923 7.92871C22.5923 7.45052 22.4548 7.10563 22.1797 6.89404C21.9089 6.68245 21.4603 6.57666 20.834 6.57666H19.3423ZM18.0537 5.52295H20.8594C21.8285 5.52295 22.5754 5.73242 23.1001 6.15137C23.6248 6.57031 23.8872 7.16276 23.8872 7.92871C23.8872 8.33919 23.7476 8.71159 23.4683 9.0459C23.1932 9.38021 22.7785 9.58968 22.2241 9.67432C22.8462 9.76742 23.3328 10.034 23.6841 10.4741C24.0396 10.91 24.2173 11.5511 24.2173 12.3975C24.2173 13.2565 23.9359 13.9061 23.373 14.3462C22.8102 14.7821 21.9723 15 20.8594 15H18.0537V5.52295ZM31.9424 10.8613V11.4326H26.8833V11.4707C26.8494 12.4398 27.0335 13.1359 27.4355 13.5591C27.8418 13.9823 28.4131 14.1938 29.1494 14.1938C29.5218 14.1938 29.9111 14.1346 30.3174 14.0161C30.7236 13.8976 31.1574 13.7178 31.6187 13.4766V14.6382C31.1743 14.8201 30.7448 14.9556 30.3301 15.0444C29.9196 15.1375 29.5218 15.1841 29.1367 15.1841C28.0322 15.1841 27.1689 14.854 26.5469 14.1938C25.9248 13.5295 25.6138 12.6154 25.6138 11.4517C25.6138 10.3175 25.9185 9.41195 26.5278 8.73486C27.1372 8.05778 27.9497 7.71924 28.9653 7.71924C29.8709 7.71924 30.584 8.02604 31.1045 8.63965C31.6292 9.25326 31.9085 9.99382 31.9424 10.8613ZM30.7744 10.5186C30.7236 10.0277 30.5438 9.60449 30.2349 9.24902C29.9302 8.88932 29.4901 8.70947 28.9146 8.70947C28.3517 8.70947 27.8883 8.89567 27.5244 9.26807C27.1605 9.64046 26.9616 10.0594 26.9277 10.5249L30.7744 10.5186ZM38.1123 11.3882C38.1123 10.5122 37.9684 9.84782 37.6807 9.39502C37.3971 8.93799 36.9824 8.70947 36.4365 8.70947C35.8652 8.70947 35.4294 8.93799 35.1289 9.39502C34.8285 9.84782 34.6782 10.5122 34.6782 11.3882C34.6782 12.2642 34.8285 12.9328 35.1289 13.394C35.4336 13.8511 35.8737 14.0796 36.4492 14.0796C36.9867 14.0796 37.3971 13.849 37.6807 13.3877C37.9684 12.9264 38.1123 12.2599 38.1123 11.3882ZM39.2803 14.543C39.2803 15.6094 39.0285 16.4176 38.5249 16.9678C38.0213 17.5179 37.2808 17.793 36.3032 17.793C35.9816 17.793 35.6452 17.7633 35.2939 17.7041C34.9427 17.6449 34.5915 17.5581 34.2402 17.4438V16.2886C34.6549 16.4832 35.0316 16.6271 35.3701 16.7202C35.7087 16.8133 36.0197 16.8599 36.3032 16.8599C36.9338 16.8599 37.3929 16.6885 37.6807 16.3457C37.9684 16.0029 38.1123 15.4591 38.1123 14.7144V14.6636V13.8701C37.9261 14.2679 37.6722 14.5641 37.3506 14.7588C37.029 14.9535 36.6375 15.0508 36.1763 15.0508C35.3468 15.0508 34.6846 14.7186 34.1895 14.0542C33.6943 13.3898 33.4468 12.5011 33.4468 11.3882C33.4468 10.271 33.6943 9.38021 34.1895 8.71582C34.6846 8.05143 35.3468 7.71924 36.1763 7.71924C36.6333 7.71924 37.0205 7.81022 37.3379 7.99219C37.6553 8.17415 37.9134 8.45557 38.1123 8.83643V7.91602H39.2803V14.543ZM42.5049 7.91602H45.4946V14.0923H47.8115V15H42.0098V14.0923H44.3267V8.82373H42.5049V7.91602ZM44.3267 5.15479H45.4946V6.62744H44.3267V5.15479ZM55.0034 10.5947V15H53.8291V10.5947C53.8291 9.95573 53.717 9.486 53.4927 9.18555C53.2684 8.88509 52.9172 8.73486 52.439 8.73486C51.8931 8.73486 51.472 8.92952 51.1758 9.31885C50.8838 9.70394 50.7378 10.2583 50.7378 10.9819V15H49.5698V7.89062H50.7378V8.95703C50.9451 8.55078 51.2266 8.24398 51.582 8.03662C51.9375 7.82503 52.3586 7.71924 52.8452 7.71924C53.5688 7.71924 54.1084 7.95833 54.4639 8.43652C54.8236 8.91048 55.0034 9.62988 55.0034 10.5947ZM62.8364 10.5947V15H61.6621V10.5947C61.6621 9.95573 61.55 9.486 61.3257 9.18555C61.1014 8.88509 60.7502 8.73486 60.272 8.73486C59.7261 8.73486 59.305 8.92952 59.0088 9.31885C58.7168 9.70394 58.5708 10.2583 58.5708 10.9819V15H57.4028V7.89062H58.5708V8.95703C58.7782 8.55078 59.0596 8.24398 59.415 8.03662C59.7705 7.82503 60.1916 7.71924 60.6782 7.71924C61.4019 7.71924 61.9414 7.95833 62.2969 8.43652C62.6566 8.91048 62.8364 9.62988 62.8364 10.5947ZM66.0039 7.91602H68.9937V14.0923H71.3105V15H65.5088V14.0923H67.8257V8.82373H66.0039V7.91602ZM67.8257 5.15479H68.9937V6.62744H67.8257V5.15479ZM78.5024 10.5947V15H77.3281V10.5947C77.3281 9.95573 77.216 9.486 76.9917 9.18555C76.7674 8.88509 76.4162 8.73486 75.938 8.73486C75.3921 8.73486 74.971 8.92952 74.6748 9.31885C74.3828 9.70394 74.2368 10.2583 74.2368 10.9819V15H73.0688V7.89062H74.2368V8.95703C74.4442 8.55078 74.7256 8.24398 75.0811 8.03662C75.4365 7.82503 75.8576 7.71924 76.3442 7.71924C77.0679 7.71924 77.6074 7.95833 77.9629 8.43652C78.3226 8.91048 78.5024 9.62988 78.5024 10.5947ZM85.1104 11.3882C85.1104 10.5122 84.9665 9.84782 84.6787 9.39502C84.3952 8.93799 83.9805 8.70947 83.4346 8.70947C82.8633 8.70947 82.4274 8.93799 82.127 9.39502C81.8265 9.84782 81.6763 10.5122 81.6763 11.3882C81.6763 12.2642 81.8265 12.9328 82.127 13.394C82.4316 13.8511 82.8717 14.0796 83.4473 14.0796C83.9847 14.0796 84.3952 13.849 84.6787 13.3877C84.9665 12.9264 85.1104 12.2599 85.1104 11.3882ZM86.2783 14.543C86.2783 15.6094 86.0265 16.4176 85.5229 16.9678C85.0194 17.5179 84.2788 17.793 83.3013 17.793C82.9797 17.793 82.6432 17.7633 82.292 17.7041C81.9408 17.6449 81.5895 17.5581 81.2383 17.4438V16.2886C81.653 16.4832 82.0296 16.6271 82.3682 16.7202C82.7067 16.8133 83.0177 16.8599 83.3013 16.8599C83.9318 16.8599 84.391 16.6885 84.6787 16.3457C84.9665 16.0029 85.1104 15.4591 85.1104 14.7144V14.6636V13.8701C84.9242 14.2679 84.6702 14.5641 84.3486 14.7588C84.027 14.9535 83.6356 15.0508 83.1743 15.0508C82.3449 15.0508 81.6826 14.7186 81.1875 14.0542C80.6924 13.3898 80.4448 12.5011 80.4448 11.3882C80.4448 10.271 80.6924 9.38021 81.1875 8.71582C81.6826 8.05143 82.3449 7.71924 83.1743 7.71924C83.6313 7.71924 84.0186 7.81022 84.3359 7.99219C84.6533 8.17415 84.9115 8.45557 85.1104 8.83643V7.91602H86.2783V14.543Z" fill="#CEBCD4"/>
<rect x="1" y="5" width="11" height="11" fill="#BC75D9"/>
<path d="M121.25 5.52295H126.875V6.60205H122.533V9.15381H126.684V10.2329H122.533V13.9209H126.995V15H121.25V5.52295ZM134.504 10.5947V15H133.33V10.5947C133.33 9.95573 133.218 9.486 132.994 9.18555C132.769 8.88509 132.418 8.73486 131.94 8.73486C131.394 8.73486 130.973 8.92952 130.677 9.31885C130.385 9.70394 130.239 10.2583 130.239 10.9819V15H129.071V7.89062H130.239V8.95703C130.446 8.55078 130.728 8.24398 131.083 8.03662C131.438 7.82503 131.86 7.71924 132.346 7.71924C133.07 7.71924 133.609 7.95833 133.965 8.43652C134.325 8.91048 134.504 9.62988 134.504 10.5947ZM141.112 8.79834V5.12305H142.28V15H141.112V14.105C140.918 14.4562 140.657 14.7249 140.332 14.9111C140.01 15.0931 139.638 15.1841 139.214 15.1841C138.355 15.1841 137.678 14.8519 137.183 14.1875C136.692 13.5189 136.447 12.5985 136.447 11.4263C136.447 10.271 136.694 9.3654 137.189 8.70947C137.685 8.04932 138.36 7.71924 139.214 7.71924C139.642 7.71924 140.018 7.81234 140.344 7.99854C140.67 8.1805 140.926 8.4471 141.112 8.79834ZM137.678 11.4517C137.678 12.3573 137.822 13.0407 138.11 13.502C138.398 13.9632 138.823 14.1938 139.386 14.1938C139.949 14.1938 140.376 13.9611 140.668 13.4956C140.964 13.0301 141.112 12.3488 141.112 11.4517C141.112 10.5503 140.964 9.86898 140.668 9.40771C140.376 8.94222 139.949 8.70947 139.386 8.70947C138.823 8.70947 138.398 8.9401 138.11 9.40137C137.822 9.86263 137.678 10.5461 137.678 11.4517Z" fill="#CEBCD4"/>
<rect x="104" y="5" width="11" height="11" fill="#EDE977"/>
</g>
<defs>
<clipPath id="clip0_10_2">
<rect width="400" height="279" fill="white"/>
</clipPath>
</defs>
</svg>
