<svg width="400" height="279" viewBox="0 0 400 279" fill="none" xmlns="http://www.w3.org/2000/svg">
<path d="M0 240.083H391" stroke="#B8A9BE" stroke-width="0.5" stroke-miterlimit="10"/>
<path d="M0 193.083H18" stroke="#B8A9BE" stroke-width="0.5" stroke-miterlimit="10"/>
<path d="M0 146.083H18" stroke="#B8A9BE" stroke-width="0.5" stroke-miterlimit="10"/>
<path d="M0 99.0833H18" stroke="#B8A9BE" stroke-width="0.5" stroke-miterlimit="10"/>
<path d="M0 52.0833H18" stroke="#B8A9BE" stroke-width="0.5" stroke-miterlimit="10"/>
<path d="M5.21094 42.1533C4.5957 42.1533 4.11947 42.3265 3.78223 42.6729C3.44954 43.0146 3.2832 43.5 3.2832 44.1289C3.2832 44.7578 3.45182 45.2477 3.78906 45.5986C4.13086 45.945 4.60482 46.1182 5.21094 46.1182C5.83073 46.1182 6.30697 45.9473 6.63965 45.6055C6.97689 45.2591 7.14551 44.7669 7.14551 44.1289C7.14551 43.5046 6.97461 43.0192 6.63281 42.6729C6.29557 42.3265 5.82161 42.1533 5.21094 42.1533ZM4.00781 41.5791C3.41992 41.4287 2.95964 41.1484 2.62695 40.7383C2.29883 40.3281 2.13477 39.8337 2.13477 39.2549C2.13477 38.4437 2.41048 37.8011 2.96191 37.3271C3.51335 36.8486 4.26302 36.6094 5.21094 36.6094C6.16341 36.6094 6.91536 36.8486 7.4668 37.3271C8.01823 37.8011 8.29395 38.4437 8.29395 39.2549C8.29395 39.8337 8.1276 40.3281 7.79492 40.7383C7.4668 41.1484 7.00879 41.4287 6.4209 41.5791C7.10449 41.7295 7.6263 42.0326 7.98633 42.4883C8.35091 42.944 8.5332 43.5342 8.5332 44.2588C8.5332 45.1794 8.23926 45.8994 7.65137 46.4189C7.06348 46.9385 6.25 47.1982 5.21094 47.1982C4.17188 47.1982 3.3584 46.9408 2.77051 46.4258C2.18717 45.9062 1.89551 45.1885 1.89551 44.2725C1.89551 43.5433 2.07552 42.9508 2.43555 42.4951C2.80013 42.0348 3.32422 41.7295 4.00781 41.5791ZM3.50879 39.3848C3.50879 39.9316 3.65462 40.3486 3.94629 40.6357C4.23796 40.9229 4.65951 41.0664 5.21094 41.0664C5.76693 41.0664 6.19076 40.9229 6.48242 40.6357C6.77409 40.3486 6.91992 39.9316 6.91992 39.3848C6.91992 38.8288 6.77409 38.4049 6.48242 38.1133C6.19531 37.8216 5.77148 37.6758 5.21094 37.6758C4.65951 37.6758 4.23796 37.8239 3.94629 38.1201C3.65462 38.4118 3.50879 38.8333 3.50879 39.3848ZM23.7158 35.6934C23.1097 36.7324 22.6562 37.7692 22.3555 38.8037C22.0592 39.8337 21.9111 40.8727 21.9111 41.9209C21.9111 42.9645 22.0592 44.0036 22.3555 45.0381C22.6562 46.0726 23.1097 47.1139 23.7158 48.1621H22.6221C21.9339 47.0775 21.4212 46.0225 21.084 44.9971C20.7467 43.9671 20.5781 42.9417 20.5781 41.9209C20.5781 40.9046 20.7467 39.8815 21.084 38.8516C21.4212 37.8216 21.9339 36.7689 22.6221 35.6934H23.7158ZM28.8701 46.0361V49.9121H27.6055V39.3438H28.8701V40.3213C29.0798 39.943 29.3577 39.6559 29.7041 39.46C30.055 39.2594 30.4583 39.1592 30.9141 39.1592C31.8392 39.1592 32.5638 39.5169 33.0879 40.2324C33.6165 40.9479 33.8809 41.9391 33.8809 43.2061C33.8809 44.4502 33.6165 45.4277 33.0879 46.1387C32.5592 46.8451 31.8346 47.1982 30.9141 47.1982C30.4492 47.1982 30.0413 47.1003 29.6904 46.9043C29.3441 46.7038 29.0706 46.4144 28.8701 46.0361ZM32.5615 43.1787C32.5615 42.2035 32.4066 41.4674 32.0967 40.9707C31.7913 40.474 31.3356 40.2256 30.7295 40.2256C30.1188 40.2256 29.6562 40.4762 29.3418 40.9775C29.0273 41.4743 28.8701 42.208 28.8701 43.1787C28.8701 44.1449 29.0273 44.8786 29.3418 45.3799C29.6562 45.8812 30.1188 46.1318 30.7295 46.1318C31.3356 46.1318 31.7913 45.8835 32.0967 45.3867C32.4066 44.89 32.5615 44.154 32.5615 43.1787ZM38.9531 40.2256C38.3151 40.2256 37.832 40.474 37.5039 40.9707C37.1758 41.4674 37.0117 42.2035 37.0117 43.1787C37.0117 44.1494 37.1758 44.8854 37.5039 45.3867C37.832 45.8835 38.3151 46.1318 38.9531 46.1318C39.5957 46.1318 40.0811 45.8835 40.4092 45.3867C40.7373 44.8854 40.9014 44.1494 40.9014 43.1787C40.9014 42.2035 40.7373 41.4674 40.4092 40.9707C40.0811 40.474 39.5957 40.2256 38.9531 40.2256ZM38.9531 39.1592C40.015 39.1592 40.8262 39.5033 41.3867 40.1914C41.9518 40.8796 42.2344 41.8753 42.2344 43.1787C42.2344 44.4867 41.9541 45.4847 41.3936 46.1729C40.833 46.8564 40.0195 47.1982 38.9531 47.1982C37.8913 47.1982 37.0801 46.8564 36.5195 46.1729C35.959 45.4847 35.6787 44.4867 35.6787 43.1787C35.6787 41.8753 35.959 40.8796 36.5195 40.1914C37.0801 39.5033 37.8913 39.1592 38.9531 39.1592ZM49.8291 39.6104V40.8408C49.4691 40.6312 49.1068 40.474 48.7422 40.3691C48.3776 40.2643 48.0062 40.2119 47.6279 40.2119C47.0583 40.2119 46.6322 40.3053 46.3496 40.4922C46.0716 40.6745 45.9326 40.9548 45.9326 41.333C45.9326 41.6748 46.0374 41.93 46.2471 42.0986C46.4567 42.2673 46.9785 42.4313 47.8125 42.5908L48.3184 42.6865C48.9427 42.805 49.4144 43.042 49.7334 43.3975C50.057 43.7529 50.2188 44.2155 50.2188 44.7852C50.2188 45.5417 49.9499 46.1341 49.4121 46.5625C48.8743 46.9863 48.127 47.1982 47.1699 47.1982C46.7917 47.1982 46.3952 47.1572 45.9805 47.0752C45.5658 46.9977 45.1169 46.8792 44.6338 46.7197V45.4209C45.1032 45.6624 45.5521 45.8447 45.9805 45.9678C46.4089 46.0863 46.8145 46.1455 47.1973 46.1455C47.7533 46.1455 48.1839 46.0339 48.4893 45.8105C48.7946 45.5827 48.9473 45.266 48.9473 44.8604C48.9473 44.277 48.389 43.8737 47.2725 43.6504L47.2178 43.6367L46.7461 43.541C46.0215 43.3997 45.4928 43.1628 45.1602 42.8301C44.8275 42.4928 44.6611 42.0348 44.6611 41.4561C44.6611 40.7223 44.9095 40.1572 45.4062 39.7607C45.903 39.3597 46.6117 39.1592 47.5322 39.1592C47.9424 39.1592 48.3366 39.1979 48.7148 39.2754C49.0931 39.3483 49.4645 39.46 49.8291 39.6104ZM53.7734 39.3711H56.9932V46.0225H59.4883V47H53.2402V46.0225H55.7354V40.3486H53.7734V39.3711ZM55.7354 36.3975H56.9932V37.9834H55.7354V36.3975ZM64.2461 37.1699V39.3438H67.1035V40.3213H64.2461V44.4775C64.2461 45.0426 64.3532 45.4368 64.5674 45.6602C64.7816 45.8835 65.1553 45.9951 65.6885 45.9951H67.1035V47H65.5654C64.6221 47 63.9567 46.8109 63.5693 46.4326C63.182 46.0544 62.9883 45.4027 62.9883 44.4775V40.3213H60.9443V39.3438H62.9883V37.1699H64.2461ZM70.6445 39.3711H73.8643V46.0225H76.3594V47H70.1113V46.0225H72.6064V40.3486H70.6445V39.3711ZM72.6064 36.3975H73.8643V37.9834H72.6064V36.3975ZM77.6035 39.3438H78.9092L81.1309 45.7695L83.3594 39.3438H84.665L81.9443 47H80.3242L77.6035 39.3438ZM93.0117 42.543V43.1582H87.5635V43.1992C87.527 44.2428 87.7253 44.9925 88.1582 45.4482C88.5957 45.904 89.2109 46.1318 90.0039 46.1318C90.4049 46.1318 90.8242 46.068 91.2617 45.9404C91.6992 45.8128 92.1663 45.6191 92.6631 45.3594V46.6104C92.1846 46.8063 91.722 46.9521 91.2754 47.0479C90.8333 47.1481 90.4049 47.1982 89.9902 47.1982C88.8008 47.1982 87.8711 46.8428 87.2012 46.1318C86.5312 45.4163 86.1963 44.432 86.1963 43.1787C86.1963 41.9574 86.5244 40.9821 87.1807 40.2529C87.8369 39.5238 88.7119 39.1592 89.8057 39.1592C90.7809 39.1592 91.5488 39.4896 92.1094 40.1504C92.6745 40.8112 92.9753 41.6087 93.0117 42.543ZM91.7539 42.1738C91.6992 41.6452 91.5055 41.1895 91.1729 40.8066C90.8447 40.4193 90.3708 40.2256 89.751 40.2256C89.1449 40.2256 88.6458 40.4261 88.2539 40.8271C87.862 41.2282 87.6478 41.6794 87.6113 42.1807L91.7539 42.1738ZM109.493 36.3633V37.4092H108.064C107.613 37.4092 107.299 37.5026 107.121 37.6895C106.948 37.8717 106.861 38.1976 106.861 38.667V39.3438H109.493V40.3213H106.861V47H105.604V40.3213H103.56V39.3438H105.604V38.8105C105.604 37.972 105.795 37.3545 106.178 36.958C106.565 36.5615 107.167 36.3633 107.982 36.3633H109.493ZM118.318 42.543V43.1582H112.87V43.1992C112.834 44.2428 113.032 44.9925 113.465 45.4482C113.902 45.904 114.518 46.1318 115.311 46.1318C115.712 46.1318 116.131 46.068 116.568 45.9404C117.006 45.8128 117.473 45.6191 117.97 45.3594V46.6104C117.491 46.8063 117.029 46.9521 116.582 47.0479C116.14 47.1481 115.712 47.1982 115.297 47.1982C114.107 47.1982 113.178 46.8428 112.508 46.1318C111.838 45.4163 111.503 44.432 111.503 43.1787C111.503 41.9574 111.831 40.9821 112.487 40.2529C113.144 39.5238 114.019 39.1592 115.112 39.1592C116.088 39.1592 116.855 39.4896 117.416 40.1504C117.981 40.8112 118.282 41.6087 118.318 42.543ZM117.061 42.1738C117.006 41.6452 116.812 41.1895 116.479 40.8066C116.151 40.4193 115.677 40.2256 115.058 40.2256C114.451 40.2256 113.952 40.4261 113.561 40.8271C113.169 41.2282 112.954 41.6794 112.918 42.1807L117.061 42.1738ZM126.754 42.543V43.1582H121.306V43.1992C121.269 44.2428 121.467 44.9925 121.9 45.4482C122.338 45.904 122.953 46.1318 123.746 46.1318C124.147 46.1318 124.566 46.068 125.004 45.9404C125.441 45.8128 125.909 45.6191 126.405 45.3594V46.6104C125.927 46.8063 125.464 46.9521 125.018 47.0479C124.576 47.1481 124.147 47.1982 123.732 47.1982C122.543 47.1982 121.613 46.8428 120.943 46.1318C120.273 45.4163 119.938 44.432 119.938 43.1787C119.938 41.9574 120.267 40.9821 120.923 40.2529C121.579 39.5238 122.454 39.1592 123.548 39.1592C124.523 39.1592 125.291 39.4896 125.852 40.1504C126.417 40.8112 126.717 41.6087 126.754 42.543ZM125.496 42.1738C125.441 41.6452 125.248 41.1895 124.915 40.8066C124.587 40.4193 124.113 40.2256 123.493 40.2256C122.887 40.2256 122.388 40.4261 121.996 40.8271C121.604 41.2282 121.39 41.6794 121.354 42.1807L125.496 42.1738ZM132.448 44.2314C132.448 44.7965 132.551 45.2227 132.756 45.5098C132.965 45.7969 133.273 45.9404 133.679 45.9404H135.148V47H133.556C132.804 47 132.22 46.7607 131.806 46.2822C131.396 45.7992 131.19 45.1156 131.19 44.2314V37.3066H129.174V36.3223H132.448V44.2314ZM138.129 39.3711H141.349V46.0225H143.844V47H137.596V46.0225H140.091V40.3486H138.129V39.3711ZM140.091 36.3975H141.349V37.9834H140.091V36.3975ZM151.589 42.2559V47H150.324V42.2559C150.324 41.5677 150.203 41.0618 149.962 40.7383C149.72 40.4147 149.342 40.2529 148.827 40.2529C148.239 40.2529 147.786 40.4626 147.467 40.8818C147.152 41.2965 146.995 41.8936 146.995 42.6729V47H145.737V39.3438H146.995V40.4922C147.218 40.0547 147.521 39.7243 147.904 39.501C148.287 39.2731 148.741 39.1592 149.265 39.1592C150.044 39.1592 150.625 39.4167 151.008 39.9316C151.395 40.4421 151.589 41.2168 151.589 42.2559ZM158.705 43.1104C158.705 42.167 158.55 41.4515 158.24 40.9639C157.935 40.4717 157.488 40.2256 156.9 40.2256C156.285 40.2256 155.816 40.4717 155.492 40.9639C155.169 41.4515 155.007 42.167 155.007 43.1104C155.007 44.0537 155.169 44.7738 155.492 45.2705C155.82 45.7627 156.294 46.0088 156.914 46.0088C157.493 46.0088 157.935 45.7604 158.24 45.2637C158.55 44.7669 158.705 44.0492 158.705 43.1104ZM159.963 46.5078C159.963 47.6562 159.692 48.5267 159.149 49.1191C158.607 49.7116 157.81 50.0078 156.757 50.0078C156.41 50.0078 156.048 49.9759 155.67 49.9121C155.292 49.8483 154.913 49.7549 154.535 49.6318V48.3877C154.982 48.5973 155.387 48.7523 155.752 48.8525C156.117 48.9528 156.451 49.0029 156.757 49.0029C157.436 49.0029 157.93 48.8184 158.24 48.4492C158.55 48.0801 158.705 47.4945 158.705 46.6924V46.6377V45.7832C158.505 46.2116 158.231 46.5306 157.885 46.7402C157.538 46.9499 157.117 47.0547 156.62 47.0547C155.727 47.0547 155.014 46.6969 154.48 45.9814C153.947 45.266 153.681 44.3089 153.681 43.1104C153.681 41.9072 153.947 40.9479 154.48 40.2324C155.014 39.5169 155.727 39.1592 156.62 39.1592C157.112 39.1592 157.529 39.2572 157.871 39.4531C158.213 39.6491 158.491 39.9521 158.705 40.3623V39.3711H159.963V46.5078ZM167.927 39.6104V40.8408C167.567 40.6312 167.204 40.474 166.84 40.3691C166.475 40.2643 166.104 40.2119 165.726 40.2119C165.156 40.2119 164.73 40.3053 164.447 40.4922C164.169 40.6745 164.03 40.9548 164.03 41.333C164.03 41.6748 164.135 41.93 164.345 42.0986C164.554 42.2673 165.076 42.4313 165.91 42.5908L166.416 42.6865C167.04 42.805 167.512 43.042 167.831 43.3975C168.155 43.7529 168.316 44.2155 168.316 44.7852C168.316 45.5417 168.048 46.1341 167.51 46.5625C166.972 46.9863 166.225 47.1982 165.268 47.1982C164.889 47.1982 164.493 47.1572 164.078 47.0752C163.663 46.9977 163.215 46.8792 162.731 46.7197V45.4209C163.201 45.6624 163.65 45.8447 164.078 45.9678C164.507 46.0863 164.912 46.1455 165.295 46.1455C165.851 46.1455 166.282 46.0339 166.587 45.8105C166.892 45.5827 167.045 45.266 167.045 44.8604C167.045 44.277 166.487 43.8737 165.37 43.6504L165.315 43.6367L164.844 43.541C164.119 43.3997 163.59 43.1628 163.258 42.8301C162.925 42.4928 162.759 42.0348 162.759 41.4561C162.759 40.7223 163.007 40.1572 163.504 39.7607C164.001 39.3597 164.709 39.1592 165.63 39.1592C166.04 39.1592 166.434 39.1979 166.812 39.2754C167.191 39.3483 167.562 39.46 167.927 39.6104ZM172.09 35.6934H173.184C173.872 36.7689 174.384 37.8216 174.722 38.8516C175.059 39.8815 175.228 40.9046 175.228 41.9209C175.228 42.9463 175.059 43.974 174.722 45.0039C174.384 46.0339 173.872 47.0866 173.184 48.1621H172.09C172.696 47.1048 173.147 46.0589 173.443 45.0244C173.744 43.9899 173.895 42.9554 173.895 41.9209C173.895 40.8818 173.744 39.8451 173.443 38.8105C173.147 37.776 172.696 36.737 172.09 35.6934Z" fill="#CEBCD4"/>
<path d="M7.77441 83.0195V84.291C7.4873 84.1224 7.18197 83.9948 6.8584 83.9082C6.53483 83.8171 6.19759 83.7715 5.84668 83.7715C4.97168 83.7715 4.30859 84.1019 3.85742 84.7627C3.40625 85.4189 3.18066 86.3874 3.18066 87.668C3.39941 87.2122 3.70247 86.8636 4.08984 86.6221C4.47721 86.376 4.92155 86.2529 5.42285 86.2529C6.40723 86.2529 7.16829 86.556 7.70605 87.1621C8.24837 87.7637 8.51953 88.6182 8.51953 89.7256C8.51953 90.8285 8.24154 91.6829 7.68555 92.2891C7.12956 92.8952 6.34798 93.1982 5.34082 93.1982C4.15592 93.1982 3.28776 92.7744 2.73633 91.9268C2.1849 91.0745 1.90918 89.7347 1.90918 87.9072C1.90918 86.1846 2.23958 84.8721 2.90039 83.9697C3.56576 83.0628 4.52734 82.6094 5.78516 82.6094C6.1224 82.6094 6.45964 82.6458 6.79688 82.7188C7.13411 82.7871 7.45996 82.8874 7.77441 83.0195ZM5.31348 87.333C4.72559 87.333 4.26302 87.5449 3.92578 87.9688C3.58854 88.3926 3.41992 88.9782 3.41992 89.7256C3.41992 90.473 3.58854 91.0586 3.92578 91.4824C4.26302 91.9062 4.72559 92.1182 5.31348 92.1182C5.92415 92.1182 6.38444 91.9176 6.69434 91.5166C7.00423 91.111 7.15918 90.514 7.15918 89.7256C7.15918 88.9326 7.00423 88.3356 6.69434 87.9346C6.38444 87.5335 5.92415 87.333 5.31348 87.333Z" fill="#CEBCD4"/>
<path d="M6.02441 132.052L2.80469 137.445H6.02441V132.052ZM5.79883 130.794H7.39844V137.445H8.75879V138.566H7.39844V141H6.02441V138.566H1.69727V137.261L5.79883 130.794Z" fill="#CEBCD4"/>
<path d="M3.5498 186.838H8.23926V188H2.03906V186.838C2.89128 185.94 3.63639 185.147 4.27441 184.459C4.91243 183.771 5.35221 183.285 5.59375 183.003C6.04948 182.447 6.3571 181.998 6.5166 181.656C6.67611 181.31 6.75586 180.957 6.75586 180.597C6.75586 180.027 6.58724 179.58 6.25 179.257C5.91732 178.933 5.45931 178.771 4.87598 178.771C4.46126 178.771 4.02604 178.847 3.57031 178.997C3.11458 179.147 2.63151 179.375 2.12109 179.681V178.286C2.59049 178.063 3.05078 177.894 3.50195 177.78C3.95768 177.666 4.40658 177.609 4.84863 177.609C5.84668 177.609 6.64876 177.876 7.25488 178.409C7.86556 178.938 8.1709 179.633 8.1709 180.494C8.1709 180.932 8.06836 181.369 7.86328 181.807C7.66276 182.244 7.33464 182.727 6.87891 183.256C6.6237 183.552 6.25228 183.962 5.76465 184.486C5.28158 185.01 4.54329 185.794 3.5498 186.838Z" fill="#CEBCD4"/>
<path d="M5.21094 223.644C6.30013 223.644 7.12272 224.088 7.67871 224.977C8.23926 225.865 8.51953 227.18 8.51953 228.921C8.51953 230.662 8.23926 231.977 7.67871 232.865C7.12272 233.754 6.30013 234.198 5.21094 234.198C4.12174 234.198 3.29915 233.754 2.74316 232.865C2.18717 231.977 1.90918 230.662 1.90918 228.921C1.90918 227.18 2.18717 225.865 2.74316 224.977C3.29915 224.088 4.12174 223.644 5.21094 223.644ZM5.21094 233.104C5.85807 233.104 6.33887 232.76 6.65332 232.072C6.97233 231.384 7.13184 230.334 7.13184 228.921C7.13184 228.169 7.08626 227.49 6.99512 226.884L3.74121 231.977C4.08301 232.729 4.57292 233.104 5.21094 233.104ZM5.21094 224.737C4.56836 224.737 4.08757 225.081 3.76855 225.77C3.4541 226.458 3.29688 227.508 3.29688 228.921C3.29688 229.563 3.34017 230.165 3.42676 230.726L6.6123 225.646C6.26595 225.04 5.79883 224.737 5.21094 224.737Z" fill="#CEBCD4"/>
<path d="M6.12256 251.525C6.30876 251.563 6.46956 251.652 6.60498 251.792C6.74463 251.927 6.9139 252.194 7.11279 252.591L8.82666 256H6.77002L5.62744 253.607C5.59359 253.539 5.54915 253.446 5.49414 253.328C5.15983 252.612 4.76628 252.255 4.31348 252.255H3.7168V256H1.84424V246.523H4.54834C5.76709 246.523 6.64095 246.739 7.16992 247.17C7.70312 247.602 7.96973 248.305 7.96973 249.278C7.96973 249.93 7.81104 250.448 7.49365 250.833C7.17627 251.218 6.71924 251.449 6.12256 251.525ZM3.7168 248.097V250.681H4.59912C5.11117 250.681 5.47721 250.581 5.69727 250.382C5.92155 250.179 6.03369 249.847 6.03369 249.386C6.03369 248.924 5.92367 248.594 5.70361 248.396C5.48356 248.197 5.1154 248.097 4.59912 248.097H3.7168ZM13.2764 252.661C12.5824 252.661 12.0978 252.75 11.8228 252.928C11.5477 253.105 11.4102 253.41 11.4102 253.842C11.4102 254.163 11.5054 254.419 11.6958 254.61C11.8862 254.8 12.1444 254.896 12.4702 254.896C12.9611 254.896 13.342 254.711 13.6128 254.343C13.8836 253.971 14.019 253.452 14.019 252.788V252.661H13.2764ZM15.8662 251.944V256H14.019V255.207C13.7948 255.52 13.507 255.761 13.1558 255.93C12.8045 256.099 12.4173 256.184 11.9941 256.184C11.1859 256.184 10.5553 255.97 10.1025 255.543C9.65397 255.116 9.42969 254.519 9.42969 253.753C9.42969 252.924 9.6984 252.312 10.2358 251.918C10.7733 251.521 11.6048 251.322 12.7305 251.322H14.019V251.011C14.019 250.71 13.909 250.484 13.689 250.332C13.4731 250.175 13.1536 250.097 12.7305 250.097C12.2861 250.097 11.8545 250.154 11.4355 250.268C11.0208 250.378 10.5871 250.556 10.1343 250.801V249.214C10.5448 249.045 10.9616 248.92 11.3848 248.84C11.8079 248.759 12.2565 248.719 12.7305 248.719C13.8857 248.719 14.6961 248.954 15.1616 249.424C15.6313 249.894 15.8662 250.734 15.8662 251.944ZM23.4009 255.638C23.0877 255.82 22.7513 255.956 22.3916 256.044C22.0319 256.138 21.6447 256.184 21.23 256.184C20.134 256.184 19.277 255.854 18.6592 255.194C18.0413 254.534 17.7324 253.62 17.7324 252.452C17.7324 251.279 18.0435 250.363 18.6655 249.703C19.2876 249.039 20.1466 248.707 21.2427 248.707C21.6235 248.707 21.9896 248.751 22.3408 248.84C22.6963 248.929 23.0496 249.066 23.4009 249.252V250.954C23.13 250.721 22.8317 250.543 22.5059 250.42C22.1842 250.293 21.8499 250.23 21.5029 250.23C20.8978 250.23 20.4323 250.423 20.1064 250.808C19.7806 251.193 19.6177 251.741 19.6177 252.452C19.6177 253.163 19.7806 253.708 20.1064 254.089C20.4323 254.47 20.8978 254.661 21.5029 254.661C21.8626 254.661 22.1991 254.601 22.5122 254.483C22.8254 254.36 23.1216 254.176 23.4009 253.931V255.638ZM31.4941 255.651C31.0625 255.829 30.6224 255.962 30.1738 256.051C29.7253 256.14 29.2513 256.184 28.752 256.184C27.5628 256.184 26.653 255.867 26.0225 255.232C25.3962 254.593 25.083 253.675 25.083 252.477C25.083 251.318 25.3856 250.401 25.9907 249.729C26.5959 249.056 27.4211 248.719 28.4663 248.719C29.52 248.719 30.3368 249.032 30.9165 249.659C31.5005 250.281 31.7925 251.159 31.7925 252.293V253.048H26.9746C26.9788 253.607 27.1439 254.024 27.4697 254.299C27.7956 254.574 28.2822 254.711 28.9297 254.711C29.3571 254.711 29.7782 254.65 30.1929 254.527C30.6076 254.405 31.0413 254.21 31.4941 253.943V255.651ZM29.9199 251.652C29.9115 251.161 29.7845 250.791 29.5391 250.541C29.2979 250.287 28.9403 250.16 28.4663 250.16C28.0389 250.16 27.6982 250.291 27.4443 250.554C27.1904 250.812 27.0402 251.18 26.9937 251.658L29.9199 251.652Z" fill="#CEBCD4"/>
<path d="M19.3423 10.2202V13.9463H20.8594C21.6042 13.9463 22.1353 13.8172 22.4526 13.5591C22.77 13.2967 22.9287 12.8672 22.9287 12.2705C22.9287 11.4834 22.7616 10.946 22.4272 10.6582C22.0929 10.3662 21.5703 10.2202 20.8594 10.2202H19.3423ZM19.3423 6.57666V9.1792H20.834C21.4518 9.1792 21.8983 9.06071 22.1733 8.82373C22.4526 8.58675 22.5923 8.28841 22.5923 7.92871C22.5923 7.45052 22.4548 7.10563 22.1797 6.89404C21.9089 6.68245 21.4603 6.57666 20.834 6.57666H19.3423ZM18.0537 5.52295H20.8594C21.8285 5.52295 22.5754 5.73242 23.1001 6.15137C23.6248 6.57031 23.8872 7.16276 23.8872 7.92871C23.8872 8.33919 23.7476 8.71159 23.4683 9.0459C23.1932 9.38021 22.7785 9.58968 22.2241 9.67432C22.8462 9.76742 23.3328 10.034 23.6841 10.4741C24.0396 10.91 24.2173 11.5511 24.2173 12.3975C24.2173 13.2565 23.9359 13.9061 23.373 14.3462C22.8102 14.7821 21.9723 15 20.8594 15H18.0537V5.52295ZM31.9424 10.8613V11.4326H26.8833V11.4707C26.8494 12.4398 27.0335 13.1359 27.4355 13.5591C27.8418 13.9823 28.4131 14.1938 29.1494 14.1938C29.5218 14.1938 29.9111 14.1346 30.3174 14.0161C30.7236 13.8976 31.1574 13.7178 31.6187 13.4766V14.6382C31.1743 14.8201 30.7448 14.9556 30.3301 15.0444C29.9196 15.1375 29.5218 15.1841 29.1367 15.1841C28.0322 15.1841 27.1689 14.854 26.5469 14.1938C25.9248 13.5295 25.6138 12.6154 25.6138 11.4517C25.6138 10.3175 25.9185 9.41195 26.5278 8.73486C27.1372 8.05778 27.9497 7.71924 28.9653 7.71924C29.8709 7.71924 30.584 8.02604 31.1045 8.63965C31.6292 9.25326 31.9085 9.99382 31.9424 10.8613ZM30.7744 10.5186C30.7236 10.0277 30.5438 9.60449 30.2349 9.24902C29.9302 8.88932 29.4901 8.70947 28.9146 8.70947C28.3517 8.70947 27.8883 8.89567 27.5244 9.26807C27.1605 9.64046 26.9616 10.0594 26.9277 10.5249L30.7744 10.5186ZM38.1123 11.3882C38.1123 10.5122 37.9684 9.84782 37.6807 9.39502C37.3971 8.93799 36.9824 8.70947 36.4365 8.70947C35.8652 8.70947 35.4294 8.93799 35.1289 9.39502C34.8285 9.84782 34.6782 10.5122 34.6782 11.3882C34.6782 12.2642 34.8285 12.9328 35.1289 13.394C35.4336 13.8511 35.8737 14.0796 36.4492 14.0796C36.9867 14.0796 37.3971 13.849 37.6807 13.3877C37.9684 12.9264 38.1123 12.2599 38.1123 11.3882ZM39.2803 14.543C39.2803 15.6094 39.0285 16.4176 38.5249 16.9678C38.0213 17.5179 37.2808 17.793 36.3032 17.793C35.9816 17.793 35.6452 17.7633 35.2939 17.7041C34.9427 17.6449 34.5915 17.5581 34.2402 17.4438V16.2886C34.6549 16.4832 35.0316 16.6271 35.3701 16.7202C35.7087 16.8133 36.0197 16.8599 36.3032 16.8599C36.9338 16.8599 37.3929 16.6885 37.6807 16.3457C37.9684 16.0029 38.1123 15.4591 38.1123 14.7144V14.6636V13.8701C37.9261 14.2679 37.6722 14.5641 37.3506 14.7588C37.029 14.9535 36.6375 15.0508 36.1763 15.0508C35.3468 15.0508 34.6846 14.7186 34.1895 14.0542C33.6943 13.3898 33.4468 12.5011 33.4468 11.3882C33.4468 10.271 33.6943 9.38021 34.1895 8.71582C34.6846 8.05143 35.3468 7.71924 36.1763 7.71924C36.6333 7.71924 37.0205 7.81022 37.3379 7.99219C37.6553 8.17415 37.9134 8.45557 38.1123 8.83643V7.91602H39.2803V14.543ZM42.5049 7.91602H45.4946V14.0923H47.8115V15H42.0098V14.0923H44.3267V8.82373H42.5049V7.91602ZM44.3267 5.15479H45.4946V6.62744H44.3267V5.15479ZM55.0034 10.5947V15H53.8291V10.5947C53.8291 9.95573 53.717 9.486 53.4927 9.18555C53.2684 8.88509 52.9172 8.73486 52.439 8.73486C51.8931 8.73486 51.472 8.92952 51.1758 9.31885C50.8838 9.70394 50.7378 10.2583 50.7378 10.9819V15H49.5698V7.89062H50.7378V8.95703C50.9451 8.55078 51.2266 8.24398 51.582 8.03662C51.9375 7.82503 52.3586 7.71924 52.8452 7.71924C53.5688 7.71924 54.1084 7.95833 54.4639 8.43652C54.8236 8.91048 55.0034 9.62988 55.0034 10.5947ZM62.8364 10.5947V15H61.6621V10.5947C61.6621 9.95573 61.55 9.486 61.3257 9.18555C61.1014 8.88509 60.7502 8.73486 60.272 8.73486C59.7261 8.73486 59.305 8.92952 59.0088 9.31885C58.7168 9.70394 58.5708 10.2583 58.5708 10.9819V15H57.4028V7.89062H58.5708V8.95703C58.7782 8.55078 59.0596 8.24398 59.415 8.03662C59.7705 7.82503 60.1916 7.71924 60.6782 7.71924C61.4019 7.71924 61.9414 7.95833 62.2969 8.43652C62.6566 8.91048 62.8364 9.62988 62.8364 10.5947ZM66.0039 7.91602H68.9937V14.0923H71.3105V15H65.5088V14.0923H67.8257V8.82373H66.0039V7.91602ZM67.8257 5.15479H68.9937V6.62744H67.8257V5.15479ZM78.5024 10.5947V15H77.3281V10.5947C77.3281 9.95573 77.216 9.486 76.9917 9.18555C76.7674 8.88509 76.4162 8.73486 75.938 8.73486C75.3921 8.73486 74.971 8.92952 74.6748 9.31885C74.3828 9.70394 74.2368 10.2583 74.2368 10.9819V15H73.0688V7.89062H74.2368V8.95703C74.4442 8.55078 74.7256 8.24398 75.0811 8.03662C75.4365 7.82503 75.8576 7.71924 76.3442 7.71924C77.0679 7.71924 77.6074 7.95833 77.9629 8.43652C78.3226 8.91048 78.5024 9.62988 78.5024 10.5947ZM85.1104 11.3882C85.1104 10.5122 84.9665 9.84782 84.6787 9.39502C84.3952 8.93799 83.9805 8.70947 83.4346 8.70947C82.8633 8.70947 82.4274 8.93799 82.127 9.39502C81.8265 9.84782 81.6763 10.5122 81.6763 11.3882C81.6763 12.2642 81.8265 12.9328 82.127 13.394C82.4316 13.8511 82.8717 14.0796 83.4473 14.0796C83.9847 14.0796 84.3952 13.849 84.6787 13.3877C84.9665 12.9264 85.1104 12.2599 85.1104 11.3882ZM86.2783 14.543C86.2783 15.6094 86.0265 16.4176 85.5229 16.9678C85.0194 17.5179 84.2788 17.793 83.3013 17.793C82.9797 17.793 82.6432 17.7633 82.292 17.7041C81.9408 17.6449 81.5895 17.5581 81.2383 17.4438V16.2886C81.653 16.4832 82.0296 16.6271 82.3682 16.7202C82.7067 16.8133 83.0177 16.8599 83.3013 16.8599C83.9318 16.8599 84.391 16.6885 84.6787 16.3457C84.9665 16.0029 85.1104 15.4591 85.1104 14.7144V14.6636V13.8701C84.9242 14.2679 84.6702 14.5641 84.3486 14.7588C84.027 14.9535 83.6356 15.0508 83.1743 15.0508C82.3449 15.0508 81.6826 14.7186 81.1875 14.0542C80.6924 13.3898 80.4448 12.5011 80.4448 11.3882C80.4448 10.271 80.6924 9.38021 81.1875 8.71582C81.6826 8.05143 82.3449 7.71924 83.1743 7.71924C83.6313 7.71924 84.0186 7.81022 84.3359 7.99219C84.6533 8.17415 84.9115 8.45557 85.1104 8.83643V7.91602H86.2783V14.543Z" fill="#CEBCD4"/>
<rect x="1" y="5" width="11" height="11" fill="#BC75D9"/>
<path d="M121.25 5.52295H126.875V6.60205H122.533V9.15381H126.684V10.2329H122.533V13.9209H126.995V15H121.25V5.52295ZM134.504 10.5947V15H133.33V10.5947C133.33 9.95573 133.218 9.486 132.994 9.18555C132.769 8.88509 132.418 8.73486 131.94 8.73486C131.394 8.73486 130.973 8.92952 130.677 9.31885C130.385 9.70394 130.239 10.2583 130.239 10.9819V15H129.071V7.89062H130.239V8.95703C130.446 8.55078 130.728 8.24398 131.083 8.03662C131.438 7.82503 131.86 7.71924 132.346 7.71924C133.07 7.71924 133.609 7.95833 133.965 8.43652C134.325 8.91048 134.504 9.62988 134.504 10.5947ZM141.112 8.79834V5.12305H142.28V15H141.112V14.105C140.918 14.4562 140.657 14.7249 140.332 14.9111C140.01 15.0931 139.638 15.1841 139.214 15.1841C138.355 15.1841 137.678 14.8519 137.183 14.1875C136.692 13.5189 136.447 12.5985 136.447 11.4263C136.447 10.271 136.694 9.3654 137.189 8.70947C137.685 8.04932 138.36 7.71924 139.214 7.71924C139.642 7.71924 140.018 7.81234 140.344 7.99854C140.67 8.1805 140.926 8.4471 141.112 8.79834ZM137.678 11.4517C137.678 12.3573 137.822 13.0407 138.11 13.502C138.398 13.9632 138.823 14.1938 139.386 14.1938C139.949 14.1938 140.376 13.9611 140.668 13.4956C140.964 13.0301 141.112 12.3488 141.112 11.4517C141.112 10.5503 140.964 9.86898 140.668 9.40771C140.376 8.94222 139.949 8.70947 139.386 8.70947C138.823 8.70947 138.398 8.9401 138.11 9.40137C137.822 9.86263 137.678 10.5461 137.678 11.4517Z" fill="#CEBCD4"/>
<rect x="104" y="5" width="11" height="11" fill="#EDE977"/>
<path d="M145 240H102V96.7683C102 95.7917 102.535 95 103.194 95H143.806C144.465 95 145 95.7917 145 96.7683V240Z" fill="#BC75D9"/>
<path d="M279 240H237V97.7778C237 96.7959 237.522 96 238.167 96H277.833C278.478 96 279 96.7959 279 97.7778V240Z" fill="#BC75D9"/>
<path d="M195 240H153V65.7868C153 64.8 153.522 64 154.167 64H193.833C194.478 64 195 64.8 195 65.7868V240Z" fill="#EDE977"/>
<path d="M330 240H287V68.7835C287 67.7985 287.535 67 288.194 67H328.806C329.465 67 330 67.7985 330 68.7835V240Z" fill="#EDE977"/>
<path d="M113.019 257.946C114.098 257.946 114.851 257.682 115.279 257.153C115.706 256.62 115.92 255.659 115.92 254.271C115.92 252.87 115.706 251.905 115.279 251.376C114.856 250.843 114.102 250.577 113.019 250.577H112.41V257.946H113.019ZM113.044 249.523C114.492 249.523 115.558 249.908 116.244 250.678C116.929 251.448 117.272 252.646 117.272 254.271C117.272 255.888 116.929 257.081 116.244 257.851C115.558 258.617 114.492 259 113.044 259H111.121V249.523H113.044ZM120.09 251.916H123.08V258.092H125.397V259H119.595V258.092H121.912V252.824H120.09V251.916ZM121.912 249.155H123.08V250.627H121.912V249.155ZM132.665 249.123V250.094H131.338C130.919 250.094 130.627 250.181 130.462 250.354C130.302 250.524 130.221 250.826 130.221 251.262V251.891H132.665V252.798H130.221V259H129.053V252.798H127.155V251.891H129.053V251.396C129.053 250.617 129.231 250.043 129.586 249.675C129.946 249.307 130.505 249.123 131.262 249.123H132.665ZM140.498 249.123V250.094H139.171C138.752 250.094 138.46 250.181 138.295 250.354C138.135 250.524 138.054 250.826 138.054 251.262V251.891H140.498V252.798H138.054V259H136.886V252.798H134.988V251.891H136.886V251.396C136.886 250.617 137.064 250.043 137.419 249.675C137.779 249.307 138.338 249.123 139.095 249.123H140.498ZM148.693 254.861V255.433H143.634V255.471C143.6 256.44 143.784 257.136 144.186 257.559C144.592 257.982 145.164 258.194 145.9 258.194C146.272 258.194 146.662 258.135 147.068 258.016C147.474 257.898 147.908 257.718 148.369 257.477V258.638C147.925 258.82 147.495 258.956 147.081 259.044C146.67 259.138 146.272 259.184 145.887 259.184C144.783 259.184 143.919 258.854 143.297 258.194C142.675 257.529 142.364 256.615 142.364 255.452C142.364 254.318 142.669 253.412 143.278 252.735C143.888 252.058 144.7 251.719 145.716 251.719C146.621 251.719 147.334 252.026 147.855 252.64C148.38 253.253 148.659 253.994 148.693 254.861ZM147.525 254.519C147.474 254.028 147.294 253.604 146.985 253.249C146.681 252.889 146.241 252.709 145.665 252.709C145.102 252.709 144.639 252.896 144.275 253.268C143.911 253.64 143.712 254.059 143.678 254.525L147.525 254.519ZM156.748 253.357C156.498 253.162 156.244 253.021 155.986 252.932C155.728 252.843 155.445 252.798 155.136 252.798C154.408 252.798 153.851 253.027 153.466 253.484C153.081 253.941 152.889 254.601 152.889 255.464V259H151.714V251.891H152.889V253.281C153.083 252.777 153.382 252.392 153.784 252.125C154.19 251.855 154.67 251.719 155.225 251.719C155.512 251.719 155.781 251.755 156.031 251.827C156.28 251.899 156.52 252.011 156.748 252.164V253.357ZM164.359 254.861V255.433H159.3V255.471C159.266 256.44 159.45 257.136 159.852 257.559C160.258 257.982 160.83 258.194 161.566 258.194C161.938 258.194 162.328 258.135 162.734 258.016C163.14 257.898 163.574 257.718 164.035 257.477V258.638C163.591 258.82 163.161 258.956 162.747 259.044C162.336 259.138 161.938 259.184 161.553 259.184C160.449 259.184 159.585 258.854 158.963 258.194C158.341 257.529 158.03 256.615 158.03 255.452C158.03 254.318 158.335 253.412 158.944 252.735C159.554 252.058 160.366 251.719 161.382 251.719C162.287 251.719 163 252.026 163.521 252.64C164.046 253.253 164.325 253.994 164.359 254.861ZM163.191 254.519C163.14 254.028 162.96 253.604 162.651 253.249C162.347 252.889 161.907 252.709 161.331 252.709C160.768 252.709 160.305 252.896 159.941 253.268C159.577 253.64 159.378 254.059 159.344 254.525L163.191 254.519ZM171.754 254.595V259H170.58V254.595C170.58 253.956 170.467 253.486 170.243 253.186C170.019 252.885 169.668 252.735 169.189 252.735C168.644 252.735 168.222 252.93 167.926 253.319C167.634 253.704 167.488 254.258 167.488 254.982V259H166.32V251.891H167.488V252.957C167.696 252.551 167.977 252.244 168.333 252.037C168.688 251.825 169.109 251.719 169.596 251.719C170.319 251.719 170.859 251.958 171.214 252.437C171.574 252.91 171.754 253.63 171.754 254.595ZM176.813 249.872V251.891H179.466V252.798H176.813V256.658C176.813 257.182 176.912 257.549 177.111 257.756C177.31 257.963 177.657 258.067 178.152 258.067H179.466V259H178.038C177.162 259 176.544 258.824 176.185 258.473C175.825 258.122 175.645 257.517 175.645 256.658V252.798H173.747V251.891H175.645V249.872H176.813Z" fill="#CEBCD4"/>
<path d="M274.258 249.847V251.148C273.868 250.898 273.477 250.71 273.083 250.583C272.694 250.456 272.301 250.393 271.903 250.393C271.298 250.393 270.819 250.534 270.468 250.818C270.117 251.097 269.941 251.476 269.941 251.954C269.941 252.373 270.056 252.693 270.284 252.913C270.517 253.133 270.949 253.317 271.579 253.465L272.252 253.617C273.141 253.825 273.788 254.15 274.194 254.595C274.601 255.039 274.804 255.644 274.804 256.41C274.804 257.312 274.524 257.999 273.966 258.473C273.407 258.947 272.595 259.184 271.528 259.184C271.084 259.184 270.638 259.135 270.189 259.038C269.74 258.945 269.29 258.803 268.837 258.613V257.248C269.324 257.557 269.783 257.783 270.214 257.927C270.65 258.071 271.088 258.143 271.528 258.143C272.176 258.143 272.679 257.999 273.039 257.711C273.399 257.419 273.579 257.013 273.579 256.493C273.579 256.019 273.454 255.657 273.204 255.407C272.959 255.158 272.529 254.965 271.916 254.83L271.23 254.671C270.35 254.472 269.711 254.172 269.313 253.77C268.915 253.368 268.716 252.828 268.716 252.151C268.716 251.305 269 250.627 269.567 250.12C270.138 249.608 270.896 249.352 271.839 249.352C272.203 249.352 272.586 249.394 272.988 249.479C273.39 249.559 273.813 249.682 274.258 249.847ZM280.123 255.426H279.736C279.055 255.426 278.54 255.547 278.193 255.788C277.851 256.025 277.679 256.381 277.679 256.854C277.679 257.282 277.808 257.614 278.066 257.851C278.325 258.088 278.682 258.207 279.139 258.207C279.782 258.207 280.288 257.984 280.656 257.54C281.024 257.091 281.211 256.474 281.215 255.687V255.426H280.123ZM282.389 254.944V259H281.215V257.946C280.965 258.369 280.65 258.683 280.269 258.886C279.892 259.085 279.433 259.184 278.892 259.184C278.168 259.184 277.59 258.981 277.159 258.575C276.727 258.164 276.511 257.616 276.511 256.931C276.511 256.139 276.776 255.538 277.305 255.128C277.838 254.717 278.619 254.512 279.647 254.512H281.215V254.328C281.211 253.761 281.067 253.351 280.783 253.097C280.5 252.839 280.047 252.709 279.425 252.709C279.027 252.709 278.625 252.767 278.219 252.881C277.812 252.995 277.417 253.162 277.032 253.382V252.214C277.463 252.049 277.876 251.927 278.27 251.846C278.667 251.762 279.052 251.719 279.425 251.719C280.013 251.719 280.514 251.806 280.929 251.979C281.348 252.153 281.687 252.413 281.945 252.76C282.106 252.972 282.22 253.234 282.288 253.547C282.355 253.856 282.389 254.322 282.389 254.944ZM287.791 252.614C287.935 252.31 288.117 252.085 288.337 251.941C288.561 251.793 288.83 251.719 289.143 251.719C289.714 251.719 290.116 251.941 290.349 252.386C290.586 252.826 290.705 253.657 290.705 254.88V259H289.638V254.931C289.638 253.928 289.581 253.306 289.467 253.065C289.357 252.819 289.154 252.697 288.857 252.697C288.519 252.697 288.286 252.828 288.159 253.09C288.036 253.348 287.975 253.962 287.975 254.931V259H286.909V254.931C286.909 253.916 286.847 253.289 286.725 253.052C286.606 252.815 286.39 252.697 286.077 252.697C285.768 252.697 285.552 252.828 285.43 253.09C285.311 253.348 285.252 253.962 285.252 254.931V259H284.192V251.891H285.252V252.5C285.392 252.246 285.565 252.054 285.772 251.922C285.984 251.787 286.223 251.719 286.49 251.719C286.811 251.719 287.078 251.793 287.29 251.941C287.505 252.09 287.673 252.314 287.791 252.614ZM298.442 254.861V255.433H293.383V255.471C293.349 256.44 293.534 257.136 293.936 257.559C294.342 257.982 294.913 258.194 295.649 258.194C296.022 258.194 296.411 258.135 296.817 258.016C297.224 257.898 297.657 257.718 298.119 257.477V258.638C297.674 258.82 297.245 258.956 296.83 259.044C296.42 259.138 296.022 259.184 295.637 259.184C294.532 259.184 293.669 258.854 293.047 258.194C292.425 257.529 292.114 256.615 292.114 255.452C292.114 254.318 292.418 253.412 293.028 252.735C293.637 252.058 294.45 251.719 295.465 251.719C296.371 251.719 297.084 252.026 297.604 252.64C298.129 253.253 298.409 253.994 298.442 254.861ZM297.274 254.519C297.224 254.028 297.044 253.604 296.735 253.249C296.43 252.889 295.99 252.709 295.415 252.709C294.852 252.709 294.388 252.896 294.024 253.268C293.66 253.64 293.462 254.059 293.428 254.525L297.274 254.519Z" fill="#CEBCD4"/>
</svg>
