<svg width="620" height="337" viewBox="0 0 620 337" fill="none" xmlns="http://www.w3.org/2000/svg">
<g clip-path="url(#clip0_1_2)">
<path d="M3.49057 299.305H8.18002V300.467H1.97982V299.305C2.83204 298.407 3.57715 297.614 4.21517 296.926C4.8532 296.238 5.29297 295.752 5.53451 295.47C5.99024 294.914 6.29786 294.465 6.45736 294.123C6.61687 293.777 6.69662 293.423 6.69662 293.063C6.69662 292.494 6.528 292.047 6.19076 291.724C5.85808 291.4 5.40007 291.238 4.81674 291.238C4.40202 291.238 3.9668 291.313 3.51107 291.464C3.05534 291.614 2.57227 291.842 2.06185 292.147V290.753C2.53126 290.53 2.99154 290.361 3.44271 290.247C3.89844 290.133 4.34734 290.076 4.78939 290.076C5.78744 290.076 6.58952 290.343 7.19564 290.876C7.80632 291.405 8.11166 292.099 8.11166 292.961C8.11166 293.398 8.00912 293.836 7.80404 294.273C7.60352 294.711 7.2754 295.194 6.81967 295.723C6.56446 296.019 6.19304 296.429 5.70541 296.953C5.22234 297.477 4.48406 298.261 3.49057 299.305ZM13.5872 290.11C14.6764 290.11 15.499 290.555 16.055 291.443C16.6156 292.332 16.8958 293.647 16.8958 295.388C16.8958 297.128 16.6156 298.443 16.055 299.332C15.499 300.221 14.6764 300.665 13.5872 300.665C12.4981 300.665 11.6755 300.221 11.1195 299.332C10.5635 298.443 10.2855 297.128 10.2855 295.388C10.2855 293.647 10.5635 292.332 11.1195 291.443C11.6755 290.555 12.4981 290.11 13.5872 290.11ZM13.5872 299.571C14.2344 299.571 14.7152 299.227 15.0296 298.539C15.3486 297.851 15.5081 296.8 15.5081 295.388C15.5081 294.636 15.4626 293.957 15.3714 293.35L12.1175 298.443C12.4593 299.195 12.9492 299.571 13.5872 299.571ZM13.5872 291.204C12.9447 291.204 12.4639 291.548 12.1449 292.236C11.8304 292.924 11.6732 293.975 11.6732 295.388C11.6732 296.03 11.7165 296.632 11.8031 297.192L14.9886 292.113C14.6423 291.507 14.1751 291.204 13.5872 291.204ZM22.5697 298.286C22.5697 298.641 22.6882 298.94 22.9251 299.182C23.1667 299.423 23.4652 299.544 23.8206 299.544C24.1716 299.544 24.4678 299.423 24.7093 299.182C24.9554 298.935 25.0785 298.637 25.0785 298.286C25.0785 297.935 24.9554 297.637 24.7093 297.391C24.4632 297.144 24.167 297.021 23.8206 297.021C23.4652 297.021 23.1667 297.142 22.9251 297.384C22.6882 297.625 22.5697 297.926 22.5697 298.286ZM21.6468 298.286C21.6468 297.671 21.8565 297.154 22.2757 296.734C22.695 296.31 23.21 296.099 23.8206 296.099C24.1123 296.099 24.388 296.153 24.6478 296.263C24.9121 296.372 25.1491 296.531 25.3587 296.741C25.5684 296.955 25.7301 297.195 25.8441 297.459C25.958 297.723 26.015 297.999 26.015 298.286C26.015 298.892 25.8031 299.407 25.3792 299.831C24.9554 300.255 24.4359 300.467 23.8206 300.467C23.2009 300.467 22.6836 300.259 22.2689 299.845C21.8542 299.425 21.6468 298.906 21.6468 298.286ZM18.3792 297.459L18.0785 296.686L25.7005 293.638L26.0423 294.41L18.3792 297.459ZM18.9603 292.865C18.9603 293.225 19.0788 293.526 19.3158 293.767C19.5573 294.004 19.8581 294.123 20.2181 294.123C20.569 294.123 20.8675 294.002 21.1136 293.761C21.3597 293.515 21.4828 293.216 21.4828 292.865C21.4828 292.514 21.3597 292.218 21.1136 291.976C20.8675 291.73 20.569 291.607 20.2181 291.607C19.8672 291.607 19.5687 291.728 19.3226 291.97C19.0811 292.211 18.9603 292.51 18.9603 292.865ZM18.0374 292.865C18.0374 292.25 18.2471 291.733 18.6663 291.313C19.0856 290.89 19.6029 290.678 20.2181 290.678C20.5098 290.678 20.7878 290.732 21.0521 290.842C21.321 290.951 21.5579 291.108 21.763 291.313C21.9681 291.518 22.1253 291.755 22.2347 292.024C22.3486 292.289 22.4056 292.569 22.4056 292.865C22.4056 293.476 22.1937 293.993 21.7699 294.417C21.346 294.836 20.8288 295.046 20.2181 295.046C19.6029 295.046 19.0856 294.836 18.6663 294.417C18.2471 293.998 18.0374 293.48 18.0374 292.865Z" fill="#CEBCD4"/>
<path d="M6.24545 199.005C6.91537 199.182 7.42807 199.499 7.78353 199.955C8.139 200.406 8.31674 200.971 8.31674 201.65C8.31674 202.589 8.00001 203.327 7.36654 203.865C6.73764 204.398 5.86491 204.665 4.74838 204.665C4.27898 204.665 3.80046 204.622 3.31283 204.535C2.8252 204.448 2.34669 204.323 1.87728 204.159V202.785C2.34213 203.027 2.80014 203.207 3.25131 203.325C3.70248 203.444 4.15137 203.503 4.59799 203.503C5.3545 203.503 5.93555 203.332 6.34115 202.99C6.74675 202.648 6.94955 202.156 6.94955 201.514C6.94955 200.921 6.74675 200.452 6.34115 200.105C5.93555 199.754 5.3864 199.579 4.69369 199.579H3.64096V198.444H4.69369C5.32715 198.444 5.82162 198.305 6.17709 198.027C6.53256 197.749 6.71029 197.362 6.71029 196.865C6.71029 196.341 6.54395 195.94 6.21127 195.662C5.88314 195.379 5.41374 195.238 4.80307 195.238C4.39747 195.238 3.9782 195.284 3.54525 195.375C3.11231 195.466 2.65886 195.603 2.1849 195.785V194.514C2.73633 194.368 3.22624 194.258 3.65463 194.185C4.08757 194.113 4.47038 194.076 4.80307 194.076C5.79656 194.076 6.58952 194.327 7.18197 194.828C7.77898 195.325 8.07748 195.986 8.07748 196.81C8.07748 197.371 7.92025 197.838 7.6058 198.212C7.2959 198.585 6.84245 198.85 6.24545 199.005ZM13.5872 194.11C14.6764 194.11 15.499 194.555 16.055 195.443C16.6156 196.332 16.8958 197.647 16.8958 199.388C16.8958 201.128 16.6156 202.443 16.055 203.332C15.499 204.221 14.6764 204.665 13.5872 204.665C12.4981 204.665 11.6755 204.221 11.1195 203.332C10.5635 202.443 10.2855 201.128 10.2855 199.388C10.2855 197.647 10.5635 196.332 11.1195 195.443C11.6755 194.555 12.4981 194.11 13.5872 194.11ZM13.5872 203.571C14.2344 203.571 14.7152 203.227 15.0296 202.539C15.3486 201.851 15.5081 200.8 15.5081 199.388C15.5081 198.636 15.4626 197.957 15.3714 197.35L12.1175 202.443C12.4593 203.195 12.9492 203.571 13.5872 203.571ZM13.5872 195.204C12.9447 195.204 12.4639 195.548 12.1449 196.236C11.8304 196.924 11.6732 197.975 11.6732 199.388C11.6732 200.03 11.7165 200.632 11.8031 201.192L14.9886 196.113C14.6423 195.507 14.1751 195.204 13.5872 195.204ZM22.5697 202.286C22.5697 202.641 22.6882 202.94 22.9251 203.182C23.1667 203.423 23.4652 203.544 23.8206 203.544C24.1716 203.544 24.4678 203.423 24.7093 203.182C24.9554 202.935 25.0785 202.637 25.0785 202.286C25.0785 201.935 24.9554 201.637 24.7093 201.391C24.4632 201.144 24.167 201.021 23.8206 201.021C23.4652 201.021 23.1667 201.142 22.9251 201.384C22.6882 201.625 22.5697 201.926 22.5697 202.286ZM21.6468 202.286C21.6468 201.671 21.8565 201.154 22.2757 200.734C22.695 200.31 23.21 200.099 23.8206 200.099C24.1123 200.099 24.388 200.153 24.6478 200.263C24.9121 200.372 25.1491 200.531 25.3587 200.741C25.5684 200.955 25.7301 201.195 25.8441 201.459C25.958 201.723 26.015 201.999 26.015 202.286C26.015 202.892 25.8031 203.407 25.3792 203.831C24.9554 204.255 24.4359 204.467 23.8206 204.467C23.2009 204.467 22.6836 204.259 22.2689 203.845C21.8542 203.425 21.6468 202.906 21.6468 202.286ZM18.3792 201.459L18.0785 200.686L25.7005 197.638L26.0423 198.41L18.3792 201.459ZM18.9603 196.865C18.9603 197.225 19.0788 197.526 19.3158 197.767C19.5573 198.004 19.8581 198.123 20.2181 198.123C20.569 198.123 20.8675 198.002 21.1136 197.761C21.3597 197.515 21.4828 197.216 21.4828 196.865C21.4828 196.514 21.3597 196.218 21.1136 195.976C20.8675 195.73 20.569 195.607 20.2181 195.607C19.8672 195.607 19.5687 195.728 19.3226 195.97C19.0811 196.211 18.9603 196.51 18.9603 196.865ZM18.0374 196.865C18.0374 196.25 18.2471 195.733 18.6663 195.313C19.0856 194.89 19.6029 194.678 20.2181 194.678C20.5098 194.678 20.7878 194.732 21.0521 194.842C21.321 194.951 21.5579 195.108 21.763 195.313C21.9681 195.518 22.1253 195.755 22.2347 196.024C22.3486 196.289 22.4056 196.569 22.4056 196.865C22.4056 197.476 22.1937 197.993 21.7699 198.417C21.346 198.836 20.8288 199.046 20.2181 199.046C19.6029 199.046 19.0856 198.836 18.6663 198.417C18.2471 197.998 18.0374 197.48 18.0374 196.865Z" fill="#CEBCD4"/>
<path d="M5.96517 99.5184L2.74545 104.912H5.96517V99.5184ZM5.73959 98.2606H7.3392V104.912H8.69955V106.033H7.3392V108.467H5.96517V106.033H1.63803V104.727L5.73959 98.2606ZM13.5872 98.1102C14.6764 98.1102 15.499 98.5546 16.055 99.4432C16.6156 100.332 16.8958 101.647 16.8958 103.388C16.8958 105.128 16.6156 106.443 16.055 107.332C15.499 108.221 14.6764 108.665 13.5872 108.665C12.4981 108.665 11.6755 108.221 11.1195 107.332C10.5635 106.443 10.2855 105.128 10.2855 103.388C10.2855 101.647 10.5635 100.332 11.1195 99.4432C11.6755 98.5546 12.4981 98.1102 13.5872 98.1102ZM13.5872 107.571C14.2344 107.571 14.7152 107.227 15.0296 106.539C15.3486 105.851 15.5081 104.8 15.5081 103.388C15.5081 102.636 15.4626 101.957 15.3714 101.35L12.1175 106.443C12.4593 107.195 12.9492 107.571 13.5872 107.571ZM13.5872 99.204C12.9447 99.204 12.4639 99.5481 12.1449 100.236C11.8304 100.924 11.6732 101.975 11.6732 103.388C11.6732 104.03 11.7165 104.632 11.8031 105.192L14.9886 100.113C14.6423 99.507 14.1751 99.204 13.5872 99.204ZM22.5697 106.286C22.5697 106.641 22.6882 106.94 22.9251 107.182C23.1667 107.423 23.4652 107.544 23.8206 107.544C24.1716 107.544 24.4678 107.423 24.7093 107.182C24.9554 106.935 25.0785 106.637 25.0785 106.286C25.0785 105.935 24.9554 105.637 24.7093 105.391C24.4632 105.144 24.167 105.021 23.8206 105.021C23.4652 105.021 23.1667 105.142 22.9251 105.384C22.6882 105.625 22.5697 105.926 22.5697 106.286ZM21.6468 106.286C21.6468 105.671 21.8565 105.154 22.2757 104.734C22.695 104.31 23.21 104.099 23.8206 104.099C24.1123 104.099 24.388 104.153 24.6478 104.263C24.9121 104.372 25.1491 104.531 25.3587 104.741C25.5684 104.955 25.7301 105.195 25.8441 105.459C25.958 105.723 26.015 105.999 26.015 106.286C26.015 106.892 25.8031 107.407 25.3792 107.831C24.9554 108.255 24.4359 108.467 23.8206 108.467C23.2009 108.467 22.6836 108.259 22.2689 107.845C21.8542 107.425 21.6468 106.906 21.6468 106.286ZM18.3792 105.459L18.0785 104.686L25.7005 101.638L26.0423 102.41L18.3792 105.459ZM18.9603 100.865C18.9603 101.225 19.0788 101.526 19.3158 101.767C19.5573 102.004 19.8581 102.123 20.2181 102.123C20.569 102.123 20.8675 102.002 21.1136 101.761C21.3597 101.515 21.4828 101.216 21.4828 100.865C21.4828 100.514 21.3597 100.218 21.1136 99.9764C20.8675 99.7303 20.569 99.6073 20.2181 99.6073C19.8672 99.6073 19.5687 99.7281 19.3226 99.9696C19.0811 100.211 18.9603 100.51 18.9603 100.865ZM18.0374 100.865C18.0374 100.25 18.2471 99.7326 18.6663 99.3134C19.0856 98.8895 19.6029 98.6776 20.2181 98.6776C20.5098 98.6776 20.7878 98.7323 21.0521 98.8417C21.321 98.951 21.5579 99.1083 21.763 99.3134C21.9681 99.5184 22.1253 99.7554 22.2347 100.024C22.3486 100.289 22.4056 100.569 22.4056 100.865C22.4056 101.476 22.1937 101.993 21.7699 102.417C21.346 102.836 20.8288 103.046 20.2181 103.046C19.6029 103.046 19.0856 102.836 18.6663 102.417C18.2471 101.998 18.0374 101.48 18.0374 100.865Z" fill="#CEBCD4"/>
<path d="M2.3558 2.26062H7.52377V3.42273H3.61361V5.93152C3.80958 5.8586 4.00554 5.80619 4.2015 5.77429C4.40202 5.73783 4.60254 5.7196 4.80307 5.7196C5.86036 5.7196 6.6989 6.03178 7.31869 6.65613C7.93848 7.28048 8.24838 8.12585 8.24838 9.19226C8.24838 10.2678 7.92253 11.1154 7.27084 11.7352C6.6237 12.355 5.73731 12.6649 4.61166 12.6649C4.06934 12.6649 3.5726 12.6285 3.12142 12.5555C2.67481 12.4826 2.27377 12.3733 1.9183 12.2274V10.826C2.33757 11.0539 2.75912 11.2248 3.18295 11.3387C3.60678 11.4481 4.03972 11.5028 4.48178 11.5028C5.24284 11.5028 5.82846 11.3023 6.23861 10.9012C6.65333 10.5002 6.86068 9.93054 6.86068 9.19226C6.86068 8.46309 6.64649 7.89571 6.2181 7.49011C5.79428 7.08451 5.20183 6.88171 4.44076 6.88171C4.07162 6.88171 3.71159 6.92501 3.36068 7.0116C3.00977 7.09363 2.67481 7.21895 2.3558 7.38757V2.26062ZM13.5872 2.11023C14.6764 2.11023 15.499 2.55457 16.055 3.44324C16.6156 4.33191 16.8958 5.64669 16.8958 7.38757C16.8958 9.12846 16.6156 10.4432 16.055 11.3319C15.499 12.2206 14.6764 12.6649 13.5872 12.6649C12.4981 12.6649 11.6755 12.2206 11.1195 11.3319C10.5635 10.4432 10.2855 9.12846 10.2855 7.38757C10.2855 5.64669 10.5635 4.33191 11.1195 3.44324C11.6755 2.55457 12.4981 2.11023 13.5872 2.11023ZM13.5872 11.5712C14.2344 11.5712 14.7152 11.2271 15.0296 10.5389C15.3486 9.85079 15.5081 8.80033 15.5081 7.38757C15.5081 6.63562 15.4626 5.95658 15.3714 5.35046L12.1175 10.4432C12.4593 11.1952 12.9492 11.5712 13.5872 11.5712ZM13.5872 3.20398C12.9447 3.20398 12.4639 3.54806 12.1449 4.23621C11.8304 4.92436 11.6732 5.97481 11.6732 7.38757C11.6732 8.03015 11.7165 8.63171 11.8031 9.19226L14.9886 4.11316C14.6423 3.50704 14.1751 3.20398 13.5872 3.20398ZM22.5697 10.286C22.5697 10.6415 22.6882 10.94 22.9251 11.1815C23.1667 11.4231 23.4652 11.5438 23.8206 11.5438C24.1716 11.5438 24.4678 11.4231 24.7093 11.1815C24.9554 10.9354 25.0785 10.6369 25.0785 10.286C25.0785 9.9351 24.9554 9.6366 24.7093 9.3905C24.4632 9.14441 24.167 9.02136 23.8206 9.02136C23.4652 9.02136 23.1667 9.14213 22.9251 9.38367C22.6882 9.6252 22.5697 9.92598 22.5697 10.286ZM21.6468 10.286C21.6468 9.67078 21.8565 9.15352 22.2757 8.73425C22.695 8.31042 23.21 8.09851 23.8206 8.09851C24.1123 8.09851 24.388 8.1532 24.6478 8.26257C24.9121 8.37195 25.1491 8.53145 25.3587 8.74109C25.5684 8.95528 25.7301 9.19454 25.8441 9.45886C25.958 9.72319 26.015 9.9989 26.015 10.286C26.015 10.8921 25.8031 11.4071 25.3792 11.8309C24.9554 12.2548 24.4359 12.4667 23.8206 12.4667C23.2009 12.4667 22.6836 12.2593 22.2689 11.8446C21.8542 11.4253 21.6468 10.9058 21.6468 10.286ZM18.3792 9.45886L18.0785 8.6864L25.7005 5.63757L26.0423 6.41003L18.3792 9.45886ZM18.9603 4.86511C18.9603 5.22514 19.0788 5.52592 19.3158 5.76746C19.5573 6.00444 19.8581 6.12292 20.2181 6.12292C20.569 6.12292 20.8675 6.00216 21.1136 5.76062C21.3597 5.51453 21.4828 5.21602 21.4828 4.86511C21.4828 4.5142 21.3597 4.21798 21.1136 3.97644C20.8675 3.73035 20.569 3.6073 20.2181 3.6073C19.8672 3.6073 19.5687 3.72807 19.3226 3.9696C19.0811 4.21114 18.9603 4.50964 18.9603 4.86511ZM18.0374 4.86511C18.0374 4.24988 18.2471 3.73263 18.6663 3.31335C19.0856 2.88953 19.6029 2.67761 20.2181 2.67761C20.5098 2.67761 20.7878 2.7323 21.0521 2.84167C21.321 2.95105 21.5579 3.10828 21.763 3.31335C21.9681 3.51843 22.1253 3.75541 22.2347 4.02429C22.3486 4.28861 22.4056 4.56889 22.4056 4.86511C22.4056 5.47579 22.1937 5.99304 21.7699 6.41687C21.346 6.83614 20.8288 7.04578 20.2181 7.04578C19.6029 7.04578 19.0856 6.83614 18.6663 6.41687C18.2471 5.9976 18.0374 5.48035 18.0374 4.86511Z" fill="#CEBCD4"/>
<path d="M141 321V306" stroke="#CEBCD4" stroke-width="0.5" stroke-miterlimit="10"/>
<path d="M242 321V306" stroke="#CEBCD4" stroke-width="0.5" stroke-miterlimit="10"/>
<path d="M342 321V306" stroke="#CEBCD4" stroke-width="0.5" stroke-miterlimit="10"/>
<path d="M443 321V306" stroke="#CEBCD4" stroke-width="0.5" stroke-miterlimit="10"/>
<path d="M544 321V306" stroke="#CEBCD4" stroke-width="0.5" stroke-miterlimit="10"/>
<path d="M0.0999985 305.697H622" stroke="#CEBCD4" stroke-width="0.5" stroke-miterlimit="10"/>
<path d="M0.0999985 209.697H24.3886" stroke="#CEBCD4" stroke-width="0.5" stroke-miterlimit="10"/>
<path d="M0.0999985 113.697H24.3886" stroke="#CEBCD4" stroke-width="0.5" stroke-miterlimit="10"/>
<path d="M0.0999985 17.6966H24.3886" stroke="#CEBCD4" stroke-width="0.5" stroke-miterlimit="10"/>
<path d="M61 50.5229L71.0518 44.6135L91.1553 113.581L101.207 85.0236L121.31 128.992L141.414 87.2423L171.569 162.672L181.621 25L201.724 138.427L211.776 83.7988L221.828 118.215L231.88 112.632L241.932 136.056L251.983 132.643L272.087 174.702L282.139 175.653L302.242 181.449L322.346 145.345L342.449 160.358L362.553 173.168L382.656 172.046L402.76 185.629L422.863 188.082L442.967 189.239L463.07 192.413L483.173 213L503.277 191.163L523.381 172.564H599.5" stroke="#BC75D9" stroke-width="3" stroke-miterlimit="10" stroke-linecap="round" stroke-linejoin="bevel"/>
<path d="M123.846 333.845H125.992V326.134L123.422 327.371V326.045L125.979 324.828H127.359V333.845H129.479V335H123.846V333.845ZM134.51 330.475C135.098 330.475 135.558 330.263 135.891 329.839C136.228 329.415 136.396 328.829 136.396 328.082C136.396 327.335 136.228 326.749 135.891 326.325C135.558 325.901 135.098 325.689 134.51 325.689C133.899 325.689 133.439 325.892 133.129 326.298C132.819 326.699 132.664 327.294 132.664 328.082C132.664 328.875 132.817 329.472 133.122 329.873C133.432 330.274 133.895 330.475 134.51 330.475ZM132.049 334.788V333.517C132.336 333.685 132.641 333.815 132.965 333.906C133.288 333.993 133.626 334.036 133.977 334.036C134.852 334.036 135.512 333.708 135.959 333.052C136.41 332.391 136.636 331.42 136.636 330.14C136.422 330.595 136.121 330.946 135.733 331.192C135.346 331.434 134.902 331.555 134.4 331.555C133.416 331.555 132.653 331.252 132.11 330.646C131.573 330.039 131.304 329.18 131.304 328.068C131.304 326.97 131.579 326.12 132.131 325.519C132.687 324.912 133.471 324.609 134.482 324.609C135.667 324.609 136.535 325.035 137.087 325.888C137.638 326.74 137.914 328.08 137.914 329.907C137.914 331.625 137.581 332.938 136.916 333.845C136.255 334.747 135.294 335.198 134.031 335.198C133.699 335.198 133.364 335.162 133.026 335.089C132.689 335.021 132.363 334.92 132.049 334.788ZM143.082 330.153C142.467 330.153 141.991 330.326 141.653 330.673C141.321 331.015 141.154 331.5 141.154 332.129C141.154 332.758 141.323 333.248 141.66 333.599C142.002 333.945 142.476 334.118 143.082 334.118C143.702 334.118 144.178 333.947 144.511 333.605C144.848 333.259 145.017 332.767 145.017 332.129C145.017 331.505 144.846 331.019 144.504 330.673C144.167 330.326 143.693 330.153 143.082 330.153ZM141.879 329.579C141.291 329.429 140.831 329.148 140.498 328.738C140.17 328.328 140.006 327.834 140.006 327.255C140.006 326.444 140.282 325.801 140.833 325.327C141.384 324.849 142.134 324.609 143.082 324.609C144.035 324.609 144.786 324.849 145.338 325.327C145.889 325.801 146.165 326.444 146.165 327.255C146.165 327.834 145.999 328.328 145.666 328.738C145.338 329.148 144.88 329.429 144.292 329.579C144.976 329.729 145.497 330.033 145.857 330.488C146.222 330.944 146.404 331.534 146.404 332.259C146.404 333.179 146.11 333.899 145.522 334.419C144.935 334.938 144.121 335.198 143.082 335.198C142.043 335.198 141.229 334.941 140.642 334.426C140.058 333.906 139.767 333.188 139.767 332.272C139.767 331.543 139.947 330.951 140.307 330.495C140.671 330.035 141.195 329.729 141.879 329.579ZM141.38 327.385C141.38 327.932 141.526 328.349 141.817 328.636C142.109 328.923 142.531 329.066 143.082 329.066C143.638 329.066 144.062 328.923 144.354 328.636C144.645 328.349 144.791 327.932 144.791 327.385C144.791 326.829 144.645 326.405 144.354 326.113C144.066 325.822 143.643 325.676 143.082 325.676C142.531 325.676 142.109 325.824 141.817 326.12C141.526 326.412 141.38 326.833 141.38 327.385ZM151.518 324.644C152.607 324.644 153.429 325.088 153.985 325.977C154.546 326.865 154.826 328.18 154.826 329.921C154.826 331.662 154.546 332.977 153.985 333.865C153.429 334.754 152.607 335.198 151.518 335.198C150.428 335.198 149.606 334.754 149.05 333.865C148.494 332.977 148.216 331.662 148.216 329.921C148.216 328.18 148.494 326.865 149.05 325.977C149.606 325.088 150.428 324.644 151.518 324.644ZM151.518 334.104C152.165 334.104 152.646 333.76 152.96 333.072C153.279 332.384 153.438 331.334 153.438 329.921C153.438 329.169 153.393 328.49 153.302 327.884L150.048 332.977C150.39 333.729 150.88 334.104 151.518 334.104ZM151.518 325.737C150.875 325.737 150.394 326.081 150.075 326.77C149.761 327.458 149.604 328.508 149.604 329.921C149.604 330.563 149.647 331.165 149.733 331.726L152.919 326.646C152.573 326.04 152.105 325.737 151.518 325.737Z" fill="#CEBCD4"/>
<path d="M45 321V306" stroke="#CEBCD4" stroke-width="0.5" stroke-miterlimit="10"/>
<path d="M29.8457 333.845H31.9922V326.134L29.4219 327.371V326.045L31.9785 324.828H33.3594V333.845H35.4785V335H29.8457V333.845ZM40.5098 330.475C41.0977 330.475 41.5579 330.263 41.8906 329.839C42.2279 329.415 42.3965 328.829 42.3965 328.082C42.3965 327.335 42.2279 326.749 41.8906 326.325C41.5579 325.901 41.0977 325.689 40.5098 325.689C39.8991 325.689 39.4388 325.892 39.1289 326.298C38.819 326.699 38.6641 327.294 38.6641 328.082C38.6641 328.875 38.8167 329.472 39.1221 329.873C39.432 330.274 39.8945 330.475 40.5098 330.475ZM38.0488 334.788V333.517C38.3359 333.685 38.6413 333.815 38.9648 333.906C39.2884 333.993 39.6257 334.036 39.9766 334.036C40.8516 334.036 41.5124 333.708 41.959 333.052C42.4102 332.391 42.6357 331.42 42.6357 330.14C42.4215 330.595 42.1208 330.946 41.7334 331.192C41.346 331.434 40.9017 331.555 40.4004 331.555C39.416 331.555 38.6527 331.252 38.1104 330.646C37.5726 330.039 37.3037 329.18 37.3037 328.068C37.3037 326.97 37.5794 326.12 38.1309 325.519C38.6868 324.912 39.4707 324.609 40.4824 324.609C41.6673 324.609 42.5355 325.035 43.0869 325.888C43.6383 326.74 43.9141 328.08 43.9141 329.907C43.9141 331.625 43.5814 332.938 42.916 333.845C42.2552 334.747 41.2936 335.198 40.0312 335.198C39.6986 335.198 39.3636 335.162 39.0264 335.089C38.6891 335.021 38.3633 334.92 38.0488 334.788ZM45.8213 324.794H52.2471V325.382L48.5967 335H47.1543L50.709 325.956H45.8213V324.794ZM57.5176 324.644C58.6068 324.644 59.4294 325.088 59.9854 325.977C60.5459 326.865 60.8262 328.18 60.8262 329.921C60.8262 331.662 60.5459 332.977 59.9854 333.865C59.4294 334.754 58.6068 335.198 57.5176 335.198C56.4284 335.198 55.6058 334.754 55.0498 333.865C54.4938 332.977 54.2158 331.662 54.2158 329.921C54.2158 328.18 54.4938 326.865 55.0498 325.977C55.6058 325.088 56.4284 324.644 57.5176 324.644ZM57.5176 334.104C58.1647 334.104 58.6455 333.76 58.96 333.072C59.279 332.384 59.4385 331.334 59.4385 329.921C59.4385 329.169 59.3929 328.49 59.3018 327.884L56.0479 332.977C56.3896 333.729 56.8796 334.104 57.5176 334.104ZM57.5176 325.737C56.875 325.737 56.3942 326.081 56.0752 326.77C55.7607 327.458 55.6035 328.508 55.6035 329.921C55.6035 330.563 55.6468 331.165 55.7334 331.726L58.9189 326.646C58.5726 326.04 58.1055 325.737 57.5176 325.737Z" fill="#CEBCD4"/>
<path d="M226.846 333.845H228.992V326.134L226.422 327.371V326.045L228.979 324.828H230.359V333.845H232.479V335H226.846V333.845ZM237.51 330.475C238.098 330.475 238.558 330.263 238.891 329.839C239.228 329.415 239.396 328.829 239.396 328.082C239.396 327.335 239.228 326.749 238.891 326.325C238.558 325.901 238.098 325.689 237.51 325.689C236.899 325.689 236.439 325.892 236.129 326.298C235.819 326.699 235.664 327.294 235.664 328.082C235.664 328.875 235.817 329.472 236.122 329.873C236.432 330.274 236.895 330.475 237.51 330.475ZM235.049 334.788V333.517C235.336 333.685 235.641 333.815 235.965 333.906C236.288 333.993 236.626 334.036 236.977 334.036C237.852 334.036 238.512 333.708 238.959 333.052C239.41 332.391 239.636 331.42 239.636 330.14C239.422 330.595 239.121 330.946 238.733 331.192C238.346 331.434 237.902 331.555 237.4 331.555C236.416 331.555 235.653 331.252 235.11 330.646C234.573 330.039 234.304 329.18 234.304 328.068C234.304 326.97 234.579 326.12 235.131 325.519C235.687 324.912 236.471 324.609 237.482 324.609C238.667 324.609 239.535 325.035 240.087 325.888C240.638 326.74 240.914 328.08 240.914 329.907C240.914 331.625 240.581 332.938 239.916 333.845C239.255 334.747 238.294 335.198 237.031 335.198C236.699 335.198 236.364 335.162 236.026 335.089C235.689 335.021 235.363 334.92 235.049 334.788ZM245.945 330.475C246.533 330.475 246.993 330.263 247.326 329.839C247.663 329.415 247.832 328.829 247.832 328.082C247.832 327.335 247.663 326.749 247.326 326.325C246.993 325.901 246.533 325.689 245.945 325.689C245.335 325.689 244.874 325.892 244.564 326.298C244.255 326.699 244.1 327.294 244.1 328.082C244.1 328.875 244.252 329.472 244.558 329.873C244.868 330.274 245.33 330.475 245.945 330.475ZM243.484 334.788V333.517C243.771 333.685 244.077 333.815 244.4 333.906C244.724 333.993 245.061 334.036 245.412 334.036C246.287 334.036 246.948 333.708 247.395 333.052C247.846 332.391 248.071 331.42 248.071 330.14C247.857 330.595 247.556 330.946 247.169 331.192C246.782 331.434 246.337 331.555 245.836 331.555C244.852 331.555 244.088 331.252 243.546 330.646C243.008 330.039 242.739 329.18 242.739 328.068C242.739 326.97 243.015 326.12 243.566 325.519C244.122 324.912 244.906 324.609 245.918 324.609C247.103 324.609 247.971 325.035 248.522 325.888C249.074 326.74 249.35 328.08 249.35 329.907C249.35 331.625 249.017 332.938 248.352 333.845C247.691 334.747 246.729 335.198 245.467 335.198C245.134 335.198 244.799 335.162 244.462 335.089C244.125 335.021 243.799 334.92 243.484 334.788ZM254.518 324.644C255.607 324.644 256.429 325.088 256.985 325.977C257.546 326.865 257.826 328.18 257.826 329.921C257.826 331.662 257.546 332.977 256.985 333.865C256.429 334.754 255.607 335.198 254.518 335.198C253.428 335.198 252.606 334.754 252.05 333.865C251.494 332.977 251.216 331.662 251.216 329.921C251.216 328.18 251.494 326.865 252.05 325.977C252.606 325.088 253.428 324.644 254.518 324.644ZM254.518 334.104C255.165 334.104 255.646 333.76 255.96 333.072C256.279 332.384 256.438 331.334 256.438 329.921C256.438 329.169 256.393 328.49 256.302 327.884L253.048 332.977C253.39 333.729 253.88 334.104 254.518 334.104ZM254.518 325.737C253.875 325.737 253.394 326.081 253.075 326.77C252.761 327.458 252.604 328.508 252.604 329.921C252.604 330.563 252.647 331.165 252.733 331.726L255.919 326.646C255.573 326.04 255.105 325.737 254.518 325.737Z" fill="#CEBCD4"/>
<path d="M328.55 333.838H333.239V335H327.039V333.838C327.891 332.94 328.636 332.147 329.274 331.459C329.912 330.771 330.352 330.285 330.594 330.003C331.049 329.447 331.357 328.998 331.517 328.656C331.676 328.31 331.756 327.957 331.756 327.597C331.756 327.027 331.587 326.58 331.25 326.257C330.917 325.933 330.459 325.771 329.876 325.771C329.461 325.771 329.026 325.847 328.57 325.997C328.115 326.147 327.632 326.375 327.121 326.681V325.286C327.59 325.063 328.051 324.894 328.502 324.78C328.958 324.666 329.407 324.609 329.849 324.609C330.847 324.609 331.649 324.876 332.255 325.409C332.866 325.938 333.171 326.633 333.171 327.494C333.171 327.932 333.068 328.369 332.863 328.807C332.663 329.244 332.335 329.727 331.879 330.256C331.624 330.552 331.252 330.962 330.765 331.486C330.282 332.01 329.543 332.794 328.55 333.838ZM338.646 324.644C339.736 324.644 340.558 325.088 341.114 325.977C341.675 326.865 341.955 328.18 341.955 329.921C341.955 331.662 341.675 332.977 341.114 333.865C340.558 334.754 339.736 335.198 338.646 335.198C337.557 335.198 336.735 334.754 336.179 333.865C335.623 332.977 335.345 331.662 335.345 329.921C335.345 328.18 335.623 326.865 336.179 325.977C336.735 325.088 337.557 324.644 338.646 324.644ZM338.646 334.104C339.294 334.104 339.774 333.76 340.089 333.072C340.408 332.384 340.567 331.334 340.567 329.921C340.567 329.169 340.522 328.49 340.431 327.884L337.177 332.977C337.519 333.729 338.008 334.104 338.646 334.104ZM338.646 325.737C338.004 325.737 337.523 326.081 337.204 326.77C336.89 327.458 336.732 328.508 336.732 329.921C336.732 330.563 336.776 331.165 336.862 331.726L340.048 326.646C339.701 326.04 339.234 325.737 338.646 325.737ZM347.082 324.644C348.171 324.644 348.994 325.088 349.55 325.977C350.11 326.865 350.391 328.18 350.391 329.921C350.391 331.662 350.11 332.977 349.55 333.865C348.994 334.754 348.171 335.198 347.082 335.198C345.993 335.198 345.17 334.754 344.614 333.865C344.058 332.977 343.78 331.662 343.78 329.921C343.78 328.18 344.058 326.865 344.614 325.977C345.17 325.088 345.993 324.644 347.082 324.644ZM347.082 334.104C347.729 334.104 348.21 333.76 348.524 333.072C348.843 332.384 349.003 331.334 349.003 329.921C349.003 329.169 348.957 328.49 348.866 327.884L345.612 332.977C345.954 333.729 346.444 334.104 347.082 334.104ZM347.082 325.737C346.439 325.737 345.959 326.081 345.64 326.77C345.325 327.458 345.168 328.508 345.168 329.921C345.168 330.563 345.211 331.165 345.298 331.726L348.483 326.646C348.137 326.04 347.67 325.737 347.082 325.737ZM355.518 324.644C356.607 324.644 357.429 325.088 357.985 325.977C358.546 326.865 358.826 328.18 358.826 329.921C358.826 331.662 358.546 332.977 357.985 333.865C357.429 334.754 356.607 335.198 355.518 335.198C354.428 335.198 353.606 334.754 353.05 333.865C352.494 332.977 352.216 331.662 352.216 329.921C352.216 328.18 352.494 326.865 353.05 325.977C353.606 325.088 354.428 324.644 355.518 324.644ZM355.518 334.104C356.165 334.104 356.646 333.76 356.96 333.072C357.279 332.384 357.438 331.334 357.438 329.921C357.438 329.169 357.393 328.49 357.302 327.884L354.048 332.977C354.39 333.729 354.88 334.104 355.518 334.104ZM355.518 325.737C354.875 325.737 354.394 326.081 354.075 326.77C353.761 327.458 353.604 328.508 353.604 329.921C353.604 330.563 353.647 331.165 353.733 331.726L356.919 326.646C356.573 326.04 356.105 325.737 355.518 325.737Z" fill="#CEBCD4"/>
<path d="M429.55 333.838H434.239V335H428.039V333.838C428.891 332.94 429.636 332.147 430.274 331.459C430.912 330.771 431.352 330.285 431.594 330.003C432.049 329.447 432.357 328.998 432.517 328.656C432.676 328.31 432.756 327.957 432.756 327.597C432.756 327.027 432.587 326.58 432.25 326.257C431.917 325.933 431.459 325.771 430.876 325.771C430.461 325.771 430.026 325.847 429.57 325.997C429.115 326.147 428.632 326.375 428.121 326.681V325.286C428.59 325.063 429.051 324.894 429.502 324.78C429.958 324.666 430.407 324.609 430.849 324.609C431.847 324.609 432.649 324.876 433.255 325.409C433.866 325.938 434.171 326.633 434.171 327.494C434.171 327.932 434.068 328.369 433.863 328.807C433.663 329.244 433.335 329.727 432.879 330.256C432.624 330.552 432.252 330.962 431.765 331.486C431.282 332.01 430.543 332.794 429.55 333.838ZM439.646 324.644C440.736 324.644 441.558 325.088 442.114 325.977C442.675 326.865 442.955 328.18 442.955 329.921C442.955 331.662 442.675 332.977 442.114 333.865C441.558 334.754 440.736 335.198 439.646 335.198C438.557 335.198 437.735 334.754 437.179 333.865C436.623 332.977 436.345 331.662 436.345 329.921C436.345 328.18 436.623 326.865 437.179 325.977C437.735 325.088 438.557 324.644 439.646 324.644ZM439.646 334.104C440.294 334.104 440.774 333.76 441.089 333.072C441.408 332.384 441.567 331.334 441.567 329.921C441.567 329.169 441.522 328.49 441.431 327.884L438.177 332.977C438.519 333.729 439.008 334.104 439.646 334.104ZM439.646 325.737C439.004 325.737 438.523 326.081 438.204 326.77C437.89 327.458 437.732 328.508 437.732 329.921C437.732 330.563 437.776 331.165 437.862 331.726L441.048 326.646C440.701 326.04 440.234 325.737 439.646 325.737ZM445.717 333.845H447.863V326.134L445.293 327.371V326.045L447.85 324.828H449.23V333.845H451.35V335H445.717V333.845ZM456.518 324.644C457.607 324.644 458.429 325.088 458.985 325.977C459.546 326.865 459.826 328.18 459.826 329.921C459.826 331.662 459.546 332.977 458.985 333.865C458.429 334.754 457.607 335.198 456.518 335.198C455.428 335.198 454.606 334.754 454.05 333.865C453.494 332.977 453.216 331.662 453.216 329.921C453.216 328.18 453.494 326.865 454.05 325.977C454.606 325.088 455.428 324.644 456.518 324.644ZM456.518 334.104C457.165 334.104 457.646 333.76 457.96 333.072C458.279 332.384 458.438 331.334 458.438 329.921C458.438 329.169 458.393 328.49 458.302 327.884L455.048 332.977C455.39 333.729 455.88 334.104 456.518 334.104ZM456.518 325.737C455.875 325.737 455.394 326.081 455.075 326.77C454.761 327.458 454.604 328.508 454.604 329.921C454.604 330.563 454.647 331.165 454.733 331.726L457.919 326.646C457.573 326.04 457.105 325.737 456.518 325.737Z" fill="#CEBCD4"/>
<path d="M530.55 333.838H535.239V335H529.039V333.838C529.891 332.94 530.636 332.147 531.274 331.459C531.912 330.771 532.352 330.285 532.594 330.003C533.049 329.447 533.357 328.998 533.517 328.656C533.676 328.31 533.756 327.957 533.756 327.597C533.756 327.027 533.587 326.58 533.25 326.257C532.917 325.933 532.459 325.771 531.876 325.771C531.461 325.771 531.026 325.847 530.57 325.997C530.115 326.147 529.632 326.375 529.121 326.681V325.286C529.59 325.063 530.051 324.894 530.502 324.78C530.958 324.666 531.407 324.609 531.849 324.609C532.847 324.609 533.649 324.876 534.255 325.409C534.866 325.938 535.171 326.633 535.171 327.494C535.171 327.932 535.068 328.369 534.863 328.807C534.663 329.244 534.335 329.727 533.879 330.256C533.624 330.552 533.252 330.962 532.765 331.486C532.282 332.01 531.543 332.794 530.55 333.838ZM540.646 324.644C541.736 324.644 542.558 325.088 543.114 325.977C543.675 326.865 543.955 328.18 543.955 329.921C543.955 331.662 543.675 332.977 543.114 333.865C542.558 334.754 541.736 335.198 540.646 335.198C539.557 335.198 538.735 334.754 538.179 333.865C537.623 332.977 537.345 331.662 537.345 329.921C537.345 328.18 537.623 326.865 538.179 325.977C538.735 325.088 539.557 324.644 540.646 324.644ZM540.646 334.104C541.294 334.104 541.774 333.76 542.089 333.072C542.408 332.384 542.567 331.334 542.567 329.921C542.567 329.169 542.522 328.49 542.431 327.884L539.177 332.977C539.519 333.729 540.008 334.104 540.646 334.104ZM540.646 325.737C540.004 325.737 539.523 326.081 539.204 326.77C538.89 327.458 538.732 328.508 538.732 329.921C538.732 330.563 538.776 331.165 538.862 331.726L542.048 326.646C541.701 326.04 541.234 325.737 540.646 325.737ZM547.421 333.838H552.11V335H545.91V333.838C546.762 332.94 547.507 332.147 548.146 331.459C548.784 330.771 549.223 330.285 549.465 330.003C549.921 329.447 550.228 328.998 550.388 328.656C550.547 328.31 550.627 327.957 550.627 327.597C550.627 327.027 550.458 326.58 550.121 326.257C549.788 325.933 549.33 325.771 548.747 325.771C548.332 325.771 547.897 325.847 547.441 325.997C546.986 326.147 546.503 326.375 545.992 326.681V325.286C546.462 325.063 546.922 324.894 547.373 324.78C547.829 324.666 548.278 324.609 548.72 324.609C549.718 324.609 550.52 324.876 551.126 325.409C551.737 325.938 552.042 326.633 552.042 327.494C552.042 327.932 551.939 328.369 551.734 328.807C551.534 329.244 551.206 329.727 550.75 330.256C550.495 330.552 550.123 330.962 549.636 331.486C549.153 332.01 548.414 332.794 547.421 333.838ZM557.518 324.644C558.607 324.644 559.429 325.088 559.985 325.977C560.546 326.865 560.826 328.18 560.826 329.921C560.826 331.662 560.546 332.977 559.985 333.865C559.429 334.754 558.607 335.198 557.518 335.198C556.428 335.198 555.606 334.754 555.05 333.865C554.494 332.977 554.216 331.662 554.216 329.921C554.216 328.18 554.494 326.865 555.05 325.977C555.606 325.088 556.428 324.644 557.518 324.644ZM557.518 334.104C558.165 334.104 558.646 333.76 558.96 333.072C559.279 332.384 559.438 331.334 559.438 329.921C559.438 329.169 559.393 328.49 559.302 327.884L556.048 332.977C556.39 333.729 556.88 334.104 557.518 334.104ZM557.518 325.737C556.875 325.737 556.394 326.081 556.075 326.77C555.761 327.458 555.604 328.508 555.604 329.921C555.604 330.563 555.647 331.165 555.733 331.726L558.919 326.646C558.573 326.04 558.105 325.737 557.518 325.737Z" fill="#CEBCD4"/>
<path d="M33.7422 46.7734L30.0625 52.9375H33.7422V46.7734ZM33.4844 45.3359H35.3125V52.9375H36.8672V54.2188H35.3125V57H33.7422V54.2188H28.7969V52.7266L33.4844 45.3359ZM38.7266 45.3359H46.0703V46.0078L41.8984 57H40.25L44.3125 46.6641H38.7266V45.3359ZM52.7188 54.5078C52.7188 54.9141 52.8542 55.2552 53.125 55.5312C53.401 55.8073 53.7422 55.9453 54.1484 55.9453C54.5495 55.9453 54.888 55.8073 55.1641 55.5312C55.4453 55.25 55.5859 54.9089 55.5859 54.5078C55.5859 54.1068 55.4453 53.7656 55.1641 53.4844C54.8828 53.2031 54.5443 53.0625 54.1484 53.0625C53.7422 53.0625 53.401 53.2005 53.125 53.4766C52.8542 53.7526 52.7188 54.0964 52.7188 54.5078ZM51.6641 54.5078C51.6641 53.8047 51.9036 53.2135 52.3828 52.7344C52.862 52.25 53.4505 52.0078 54.1484 52.0078C54.4818 52.0078 54.7969 52.0703 55.0938 52.1953C55.3958 52.3203 55.6667 52.5026 55.9062 52.7422C56.1458 52.987 56.3307 53.2604 56.4609 53.5625C56.5911 53.8646 56.6562 54.1797 56.6562 54.5078C56.6562 55.2005 56.4141 55.7891 55.9297 56.2734C55.4453 56.7578 54.8516 57 54.1484 57C53.4401 57 52.849 56.763 52.375 56.2891C51.901 55.8099 51.6641 55.2161 51.6641 54.5078ZM47.9297 53.5625L47.5859 52.6797L56.2969 49.1953L56.6875 50.0781L47.9297 53.5625ZM48.5938 48.3125C48.5938 48.724 48.7292 49.0677 49 49.3438C49.276 49.6146 49.6198 49.75 50.0312 49.75C50.4323 49.75 50.7734 49.612 51.0547 49.3359C51.3359 49.0547 51.4766 48.7135 51.4766 48.3125C51.4766 47.9115 51.3359 47.5729 51.0547 47.2969C50.7734 47.0156 50.4323 46.875 50.0312 46.875C49.6302 46.875 49.2891 47.013 49.0078 47.2891C48.7318 47.5651 48.5938 47.9062 48.5938 48.3125ZM47.5391 48.3125C47.5391 47.6094 47.7786 47.0182 48.2578 46.5391C48.737 46.0547 49.3281 45.8125 50.0312 45.8125C50.3646 45.8125 50.6823 45.875 50.9844 46C51.2917 46.125 51.5625 46.3047 51.7969 46.5391C52.0312 46.7734 52.2109 47.0443 52.3359 47.3516C52.4661 47.6536 52.5312 47.974 52.5312 48.3125C52.5312 49.0104 52.2891 49.6016 51.8047 50.0859C51.3203 50.5651 50.7292 50.8047 50.0312 50.8047C49.3281 50.8047 48.737 50.5651 48.2578 50.0859C47.7786 49.6068 47.5391 49.0156 47.5391 48.3125Z" fill="#BC75D9"/>
<path d="M594.062 157.758C594.828 157.961 595.414 158.323 595.82 158.844C596.227 159.359 596.43 160.005 596.43 160.781C596.43 161.854 596.068 162.698 595.344 163.312C594.625 163.922 593.628 164.227 592.352 164.227C591.815 164.227 591.268 164.177 590.711 164.078C590.154 163.979 589.607 163.836 589.07 163.648V162.078C589.602 162.354 590.125 162.56 590.641 162.695C591.156 162.831 591.669 162.898 592.18 162.898C593.044 162.898 593.708 162.703 594.172 162.312C594.635 161.922 594.867 161.359 594.867 160.625C594.867 159.948 594.635 159.411 594.172 159.016C593.708 158.615 593.081 158.414 592.289 158.414H591.086V157.117H592.289C593.013 157.117 593.578 156.958 593.984 156.641C594.391 156.323 594.594 155.88 594.594 155.312C594.594 154.714 594.404 154.255 594.023 153.938C593.648 153.615 593.112 153.453 592.414 153.453C591.951 153.453 591.471 153.505 590.977 153.609C590.482 153.714 589.964 153.87 589.422 154.078V152.625C590.052 152.458 590.612 152.333 591.102 152.25C591.596 152.167 592.034 152.125 592.414 152.125C593.549 152.125 594.456 152.411 595.133 152.984C595.815 153.552 596.156 154.307 596.156 155.25C596.156 155.891 595.977 156.424 595.617 156.852C595.263 157.279 594.745 157.581 594.062 157.758ZM603.383 153.773L599.703 159.938H603.383V153.773ZM603.125 152.336H604.953V159.938H606.508V161.219H604.953V164H603.383V161.219H598.438V159.727L603.125 152.336ZM612.719 161.508C612.719 161.914 612.854 162.255 613.125 162.531C613.401 162.807 613.742 162.945 614.148 162.945C614.549 162.945 614.888 162.807 615.164 162.531C615.445 162.25 615.586 161.909 615.586 161.508C615.586 161.107 615.445 160.766 615.164 160.484C614.883 160.203 614.544 160.062 614.148 160.062C613.742 160.062 613.401 160.201 613.125 160.477C612.854 160.753 612.719 161.096 612.719 161.508ZM611.664 161.508C611.664 160.805 611.904 160.214 612.383 159.734C612.862 159.25 613.451 159.008 614.148 159.008C614.482 159.008 614.797 159.07 615.094 159.195C615.396 159.32 615.667 159.503 615.906 159.742C616.146 159.987 616.331 160.26 616.461 160.562C616.591 160.865 616.656 161.18 616.656 161.508C616.656 162.201 616.414 162.789 615.93 163.273C615.445 163.758 614.852 164 614.148 164C613.44 164 612.849 163.763 612.375 163.289C611.901 162.81 611.664 162.216 611.664 161.508ZM607.93 160.562L607.586 159.68L616.297 156.195L616.688 157.078L607.93 160.562ZM608.594 155.312C608.594 155.724 608.729 156.068 609 156.344C609.276 156.615 609.62 156.75 610.031 156.75C610.432 156.75 610.773 156.612 611.055 156.336C611.336 156.055 611.477 155.714 611.477 155.312C611.477 154.911 611.336 154.573 611.055 154.297C610.773 154.016 610.432 153.875 610.031 153.875C609.63 153.875 609.289 154.013 609.008 154.289C608.732 154.565 608.594 154.906 608.594 155.312ZM607.539 155.312C607.539 154.609 607.779 154.018 608.258 153.539C608.737 153.055 609.328 152.812 610.031 152.812C610.365 152.812 610.682 152.875 610.984 153C611.292 153.125 611.562 153.305 611.797 153.539C612.031 153.773 612.211 154.044 612.336 154.352C612.466 154.654 612.531 154.974 612.531 155.312C612.531 156.01 612.289 156.602 611.805 157.086C611.32 157.565 610.729 157.805 610.031 157.805C609.328 157.805 608.737 157.565 608.258 157.086C607.779 156.607 607.539 156.016 607.539 155.312Z" fill="#BC75D9"/>
</g>
<defs>
<clipPath id="clip0_1_2">
<rect width="620" height="337" fill="white"/>
</clipPath>
</defs>
</svg>
