<svg width="400" height="337" viewBox="0 0 400 337" fill="none" xmlns="http://www.w3.org/2000/svg">
<g clip-path="url(#clip0_1_3)">
<path d="M3.09198 298.838H7.78143V300H1.58124V298.838C2.43345 297.94 3.17857 297.147 3.81659 296.459C4.45461 295.771 4.89439 295.285 5.13593 295.003C5.59165 294.447 5.89927 293.998 6.05878 293.656C6.21828 293.31 6.29803 292.957 6.29803 292.597C6.29803 292.027 6.12941 291.58 5.79218 291.257C5.45949 290.933 5.00149 290.771 4.41815 290.771C4.00344 290.771 3.56822 290.847 3.11249 290.997C2.65676 291.147 2.17369 291.375 1.66327 291.681V290.286C2.13267 290.063 2.59296 289.894 3.04413 289.78C3.49986 289.666 3.94875 289.609 4.39081 289.609C5.38885 289.609 6.19094 289.876 6.79706 290.409C7.40774 290.938 7.71307 291.633 7.71307 292.494C7.71307 292.932 7.61053 293.369 7.40546 293.807C7.20494 294.244 6.87681 294.727 6.42108 295.256C6.16587 295.552 5.79445 295.962 5.30682 296.486C4.82375 297.01 4.08547 297.794 3.09198 298.838ZM13.1887 289.644C14.2779 289.644 15.1004 290.088 15.6564 290.977C16.217 291.865 16.4973 293.18 16.4973 294.921C16.4973 296.662 16.217 297.977 15.6564 298.865C15.1004 299.754 14.2779 300.198 13.1887 300.198C12.0995 300.198 11.2769 299.754 10.7209 298.865C10.1649 297.977 9.8869 296.662 9.8869 294.921C9.8869 293.18 10.1649 291.865 10.7209 290.977C11.2769 290.088 12.0995 289.644 13.1887 289.644ZM13.1887 299.104C13.8358 299.104 14.3166 298.76 14.631 298.072C14.9501 297.384 15.1096 296.334 15.1096 294.921C15.1096 294.169 15.064 293.49 14.9728 292.884L11.7189 297.977C12.0607 298.729 12.5506 299.104 13.1887 299.104ZM13.1887 290.737C12.5461 290.737 12.0653 291.081 11.7463 291.77C11.4318 292.458 11.2746 293.508 11.2746 294.921C11.2746 295.563 11.3179 296.165 11.4045 296.726L14.59 291.646C14.2437 291.04 13.7766 290.737 13.1887 290.737ZM22.1711 297.819C22.1711 298.175 22.2896 298.473 22.5266 298.715C22.7681 298.956 23.0666 299.077 23.4221 299.077C23.773 299.077 24.0692 298.956 24.3107 298.715C24.5568 298.469 24.6799 298.17 24.6799 297.819C24.6799 297.468 24.5568 297.17 24.3107 296.924C24.0646 296.678 23.7684 296.555 23.4221 296.555C23.0666 296.555 22.7681 296.675 22.5266 296.917C22.2896 297.159 22.1711 297.459 22.1711 297.819ZM21.2482 297.819C21.2482 297.204 21.4579 296.687 21.8771 296.268C22.2964 295.844 22.8114 295.632 23.4221 295.632C23.7137 295.632 23.9894 295.687 24.2492 295.796C24.5135 295.905 24.7505 296.065 24.9601 296.274C25.1698 296.489 25.3316 296.728 25.4455 296.992C25.5594 297.257 25.6164 297.532 25.6164 297.819C25.6164 298.425 25.4045 298.94 24.9807 299.364C24.5568 299.788 24.0373 300 23.4221 300C22.8023 300 22.285 299.793 21.8703 299.378C21.4556 298.959 21.2482 298.439 21.2482 297.819ZM17.9807 296.992L17.6799 296.22L25.3019 293.171L25.6437 293.943L17.9807 296.992ZM18.5617 292.398C18.5617 292.758 18.6802 293.059 18.9172 293.301C19.1587 293.538 19.4595 293.656 19.8195 293.656C20.1704 293.656 20.4689 293.535 20.715 293.294C20.9611 293.048 21.0842 292.749 21.0842 292.398C21.0842 292.048 20.9611 291.751 20.715 291.51C20.4689 291.264 20.1704 291.141 19.8195 291.141C19.4686 291.141 19.1701 291.261 18.924 291.503C18.6825 291.744 18.5617 292.043 18.5617 292.398ZM17.6389 292.398C17.6389 291.783 17.8485 291.266 18.2678 290.847C18.687 290.423 19.2043 290.211 19.8195 290.211C20.1112 290.211 20.3892 290.266 20.6535 290.375C20.9224 290.484 21.1594 290.642 21.3644 290.847C21.5695 291.052 21.7267 291.289 21.8361 291.558C21.9501 291.822 22.007 292.102 22.007 292.398C22.007 293.009 21.7951 293.526 21.3713 293.95C20.9474 294.369 20.4302 294.579 19.8195 294.579C19.2043 294.579 18.687 294.369 18.2678 293.95C17.8485 293.531 17.6389 293.014 17.6389 292.398Z" fill="#CEBCD4"/>
<path d="M5.84686 198.538C6.51678 198.716 7.02948 199.033 7.38495 199.488C7.74042 199.939 7.91815 200.505 7.91815 201.184C7.91815 202.122 7.60142 202.861 6.96796 203.398C6.33905 203.932 5.46633 204.198 4.34979 204.198C3.88039 204.198 3.40188 204.155 2.91425 204.068C2.42662 203.982 1.9481 203.856 1.4787 203.692V202.318C1.94354 202.56 2.40155 202.74 2.85272 202.858C3.30389 202.977 3.75279 203.036 4.1994 203.036C4.95591 203.036 5.53697 202.865 5.94257 202.523C6.34816 202.182 6.55096 201.689 6.55096 201.047C6.55096 200.454 6.34816 199.985 5.94257 199.639C5.53697 199.288 4.98781 199.112 4.2951 199.112H3.24237V197.978H4.2951C4.92857 197.978 5.42303 197.839 5.7785 197.561C6.13397 197.283 6.31171 196.895 6.31171 196.398C6.31171 195.874 6.14537 195.473 5.81268 195.195C5.48456 194.913 5.01516 194.771 4.40448 194.771C3.99888 194.771 3.57961 194.817 3.14667 194.908C2.71372 194.999 2.26027 195.136 1.78632 195.318V194.047C2.33775 193.901 2.82766 193.792 3.25604 193.719C3.68899 193.646 4.0718 193.609 4.40448 193.609C5.39797 193.609 6.19094 193.86 6.78339 194.361C7.38039 194.858 7.67889 195.519 7.67889 196.344C7.67889 196.904 7.52167 197.371 7.20721 197.745C6.89732 198.119 6.44387 198.383 5.84686 198.538ZM13.1887 193.644C14.2779 193.644 15.1004 194.088 15.6564 194.977C16.217 195.865 16.4973 197.18 16.4973 198.921C16.4973 200.662 16.217 201.977 15.6564 202.865C15.1004 203.754 14.2779 204.198 13.1887 204.198C12.0995 204.198 11.2769 203.754 10.7209 202.865C10.1649 201.977 9.8869 200.662 9.8869 198.921C9.8869 197.18 10.1649 195.865 10.7209 194.977C11.2769 194.088 12.0995 193.644 13.1887 193.644ZM13.1887 203.104C13.8358 203.104 14.3166 202.76 14.631 202.072C14.9501 201.384 15.1096 200.334 15.1096 198.921C15.1096 198.169 15.064 197.49 14.9728 196.884L11.7189 201.977C12.0607 202.729 12.5506 203.104 13.1887 203.104ZM13.1887 194.737C12.5461 194.737 12.0653 195.081 11.7463 195.77C11.4318 196.458 11.2746 197.508 11.2746 198.921C11.2746 199.563 11.3179 200.165 11.4045 200.726L14.59 195.646C14.2437 195.04 13.7766 194.737 13.1887 194.737ZM22.1711 201.819C22.1711 202.175 22.2896 202.473 22.5266 202.715C22.7681 202.956 23.0666 203.077 23.4221 203.077C23.773 203.077 24.0692 202.956 24.3107 202.715C24.5568 202.469 24.6799 202.17 24.6799 201.819C24.6799 201.468 24.5568 201.17 24.3107 200.924C24.0646 200.678 23.7684 200.555 23.4221 200.555C23.0666 200.555 22.7681 200.675 22.5266 200.917C22.2896 201.159 22.1711 201.459 22.1711 201.819ZM21.2482 201.819C21.2482 201.204 21.4579 200.687 21.8771 200.268C22.2964 199.844 22.8114 199.632 23.4221 199.632C23.7137 199.632 23.9894 199.687 24.2492 199.796C24.5135 199.905 24.7505 200.065 24.9601 200.274C25.1698 200.489 25.3316 200.728 25.4455 200.992C25.5594 201.257 25.6164 201.532 25.6164 201.819C25.6164 202.425 25.4045 202.94 24.9807 203.364C24.5568 203.788 24.0373 204 23.4221 204C22.8023 204 22.285 203.793 21.8703 203.378C21.4556 202.959 21.2482 202.439 21.2482 201.819ZM17.9807 200.992L17.6799 200.22L25.3019 197.171L25.6437 197.943L17.9807 200.992ZM18.5617 196.398C18.5617 196.758 18.6802 197.059 18.9172 197.301C19.1587 197.538 19.4595 197.656 19.8195 197.656C20.1704 197.656 20.4689 197.535 20.715 197.294C20.9611 197.048 21.0842 196.749 21.0842 196.398C21.0842 196.048 20.9611 195.751 20.715 195.51C20.4689 195.264 20.1704 195.141 19.8195 195.141C19.4686 195.141 19.1701 195.261 18.924 195.503C18.6825 195.744 18.5617 196.043 18.5617 196.398ZM17.6389 196.398C17.6389 195.783 17.8485 195.266 18.2678 194.847C18.687 194.423 19.2043 194.211 19.8195 194.211C20.1112 194.211 20.3892 194.266 20.6535 194.375C20.9224 194.484 21.1594 194.642 21.3644 194.847C21.5695 195.052 21.7267 195.289 21.8361 195.558C21.9501 195.822 22.007 196.102 22.007 196.398C22.007 197.009 21.7951 197.526 21.3713 197.95C20.9474 198.369 20.4302 198.579 19.8195 198.579C19.2043 198.579 18.687 198.369 18.2678 197.95C17.8485 197.531 17.6389 197.014 17.6389 196.398Z" fill="#CEBCD4"/>
<path d="M5.56659 99.0518L2.34686 104.445H5.56659V99.0518ZM5.341 97.7939H6.94061V104.445H8.30096V105.566H6.94061V108H5.56659V105.566H1.23944V104.261L5.341 97.7939ZM13.1887 97.6436C14.2779 97.6436 15.1004 98.0879 15.6564 98.9766C16.217 99.8652 16.4973 101.18 16.4973 102.921C16.4973 104.662 16.217 105.977 15.6564 106.865C15.1004 107.754 14.2779 108.198 13.1887 108.198C12.0995 108.198 11.2769 107.754 10.7209 106.865C10.1649 105.977 9.8869 104.662 9.8869 102.921C9.8869 101.18 10.1649 99.8652 10.7209 98.9766C11.2769 98.0879 12.0995 97.6436 13.1887 97.6436ZM13.1887 107.104C13.8358 107.104 14.3166 106.76 14.631 106.072C14.9501 105.384 15.1096 104.334 15.1096 102.921C15.1096 102.169 15.064 101.49 14.9728 100.884L11.7189 105.977C12.0607 106.729 12.5506 107.104 13.1887 107.104ZM13.1887 98.7373C12.5461 98.7373 12.0653 99.0814 11.7463 99.7695C11.4318 100.458 11.2746 101.508 11.2746 102.921C11.2746 103.563 11.3179 104.165 11.4045 104.726L14.59 99.6465C14.2437 99.0404 13.7766 98.7373 13.1887 98.7373ZM22.1711 105.819C22.1711 106.175 22.2896 106.473 22.5266 106.715C22.7681 106.956 23.0666 107.077 23.4221 107.077C23.773 107.077 24.0692 106.956 24.3107 106.715C24.5568 106.469 24.6799 106.17 24.6799 105.819C24.6799 105.468 24.5568 105.17 24.3107 104.924C24.0646 104.678 23.7684 104.555 23.4221 104.555C23.0666 104.555 22.7681 104.675 22.5266 104.917C22.2896 105.159 22.1711 105.459 22.1711 105.819ZM21.2482 105.819C21.2482 105.204 21.4579 104.687 21.8771 104.268C22.2964 103.844 22.8114 103.632 23.4221 103.632C23.7137 103.632 23.9894 103.687 24.2492 103.796C24.5135 103.905 24.7505 104.065 24.9601 104.274C25.1698 104.489 25.3316 104.728 25.4455 104.992C25.5594 105.257 25.6164 105.532 25.6164 105.819C25.6164 106.425 25.4045 106.94 24.9807 107.364C24.5568 107.788 24.0373 108 23.4221 108C22.8023 108 22.285 107.793 21.8703 107.378C21.4556 106.959 21.2482 106.439 21.2482 105.819ZM17.9807 104.992L17.6799 104.22L25.3019 101.171L25.6437 101.943L17.9807 104.992ZM18.5617 100.398C18.5617 100.758 18.6802 101.059 18.9172 101.301C19.1587 101.538 19.4595 101.656 19.8195 101.656C20.1704 101.656 20.4689 101.535 20.715 101.294C20.9611 101.048 21.0842 100.749 21.0842 100.398C21.0842 100.048 20.9611 99.7513 20.715 99.5098C20.4689 99.2637 20.1704 99.1406 19.8195 99.1406C19.4686 99.1406 19.1701 99.2614 18.924 99.5029C18.6825 99.7445 18.5617 100.043 18.5617 100.398ZM17.6389 100.398C17.6389 99.7832 17.8485 99.266 18.2678 98.8467C18.687 98.4229 19.2043 98.2109 19.8195 98.2109C20.1112 98.2109 20.3892 98.2656 20.6535 98.375C20.9224 98.4844 21.1594 98.6416 21.3644 98.8467C21.5695 99.0518 21.7267 99.2887 21.8361 99.5576C21.9501 99.8219 22.007 100.102 22.007 100.398C22.007 101.009 21.7951 101.526 21.3713 101.95C20.9474 102.369 20.4302 102.579 19.8195 102.579C19.2043 102.579 18.687 102.369 18.2678 101.95C17.8485 101.531 17.6389 101.014 17.6389 100.398Z" fill="#CEBCD4"/>
<path d="M1.95721 1.79395H7.12518V2.95605H3.21503V5.46484C3.41099 5.39193 3.60695 5.33952 3.80292 5.30762C4.00344 5.27116 4.20396 5.25293 4.40448 5.25293C5.46177 5.25293 6.30031 5.5651 6.9201 6.18945C7.5399 6.8138 7.84979 7.65918 7.84979 8.72559C7.84979 9.80111 7.52395 10.6488 6.87225 11.2686C6.22512 11.8883 5.33872 12.1982 4.21307 12.1982C3.67076 12.1982 3.17401 12.1618 2.72284 12.0889C2.27622 12.016 1.87518 11.9066 1.51971 11.7607V10.3594C1.93899 10.5872 2.36053 10.7581 2.78436 10.8721C3.20819 10.9814 3.64113 11.0361 4.08319 11.0361C4.84426 11.0361 5.42987 10.8356 5.84003 10.4346C6.25474 10.0335 6.4621 9.46387 6.4621 8.72559C6.4621 7.99642 6.2479 7.42904 5.81952 7.02344C5.39569 6.61784 4.80324 6.41504 4.04218 6.41504C3.67303 6.41504 3.31301 6.45833 2.9621 6.54492C2.61119 6.62695 2.27622 6.75228 1.95721 6.9209V1.79395ZM13.1887 1.64355C14.2779 1.64355 15.1004 2.08789 15.6564 2.97656C16.217 3.86523 16.4973 5.18001 16.4973 6.9209C16.4973 8.66178 16.217 9.97656 15.6564 10.8652C15.1004 11.7539 14.2779 12.1982 13.1887 12.1982C12.0995 12.1982 11.2769 11.7539 10.7209 10.8652C10.1649 9.97656 9.8869 8.66178 9.8869 6.9209C9.8869 5.18001 10.1649 3.86523 10.7209 2.97656C11.2769 2.08789 12.0995 1.64355 13.1887 1.64355ZM13.1887 11.1045C13.8358 11.1045 14.3166 10.7604 14.631 10.0723C14.9501 9.38411 15.1096 8.33366 15.1096 6.9209C15.1096 6.16895 15.064 5.48991 14.9728 4.88379L11.7189 9.97656C12.0607 10.7285 12.5506 11.1045 13.1887 11.1045ZM13.1887 2.7373C12.5461 2.7373 12.0653 3.08138 11.7463 3.76953C11.4318 4.45768 11.2746 5.50814 11.2746 6.9209C11.2746 7.56348 11.3179 8.16504 11.4045 8.72559L14.59 3.64648C14.2437 3.04036 13.7766 2.7373 13.1887 2.7373ZM22.1711 9.81934C22.1711 10.1748 22.2896 10.4733 22.5266 10.7148C22.7681 10.9564 23.0666 11.0771 23.4221 11.0771C23.773 11.0771 24.0692 10.9564 24.3107 10.7148C24.5568 10.4688 24.6799 10.1702 24.6799 9.81934C24.6799 9.46842 24.5568 9.16992 24.3107 8.92383C24.0646 8.67773 23.7684 8.55469 23.4221 8.55469C23.0666 8.55469 22.7681 8.67546 22.5266 8.91699C22.2896 9.15853 22.1711 9.45931 22.1711 9.81934ZM21.2482 9.81934C21.2482 9.2041 21.4579 8.68685 21.8771 8.26758C22.2964 7.84375 22.8114 7.63184 23.4221 7.63184C23.7137 7.63184 23.9894 7.68652 24.2492 7.7959C24.5135 7.90527 24.7505 8.06478 24.9601 8.27441C25.1698 8.48861 25.3316 8.72786 25.4455 8.99219C25.5594 9.25651 25.6164 9.53223 25.6164 9.81934C25.6164 10.4255 25.4045 10.9404 24.9807 11.3643C24.5568 11.7881 24.0373 12 23.4221 12C22.8023 12 22.285 11.7926 21.8703 11.3779C21.4556 10.9587 21.2482 10.4391 21.2482 9.81934ZM17.9807 8.99219L17.6799 8.21973L25.3019 5.1709L25.6437 5.94336L17.9807 8.99219ZM18.5617 4.39844C18.5617 4.75846 18.6802 5.05924 18.9172 5.30078C19.1587 5.53776 19.4595 5.65625 19.8195 5.65625C20.1704 5.65625 20.4689 5.53548 20.715 5.29395C20.9611 5.04785 21.0842 4.74935 21.0842 4.39844C21.0842 4.04753 20.9611 3.7513 20.715 3.50977C20.4689 3.26367 20.1704 3.14062 19.8195 3.14062C19.4686 3.14062 19.1701 3.26139 18.924 3.50293C18.6825 3.74447 18.5617 4.04297 18.5617 4.39844ZM17.6389 4.39844C17.6389 3.7832 17.8485 3.26595 18.2678 2.84668C18.687 2.42285 19.2043 2.21094 19.8195 2.21094C20.1112 2.21094 20.3892 2.26562 20.6535 2.375C20.9224 2.48438 21.1594 2.6416 21.3644 2.84668C21.5695 3.05176 21.7267 3.28874 21.8361 3.55762C21.9501 3.82194 22.007 4.10221 22.007 4.39844C22.007 5.00911 21.7951 5.52637 21.3713 5.9502C20.9474 6.36947 20.4302 6.5791 19.8195 6.5791C19.2043 6.5791 18.687 6.36947 18.2678 5.9502C17.8485 5.53092 17.6389 5.01367 17.6389 4.39844Z" fill="#CEBCD4"/>
<path d="M91 320V305" stroke="#CEBCD4" stroke-width="0.5" stroke-miterlimit="10"/>
<path d="M156 320V305" stroke="#CEBCD4" stroke-width="0.5" stroke-miterlimit="10"/>
<path d="M220 320V305" stroke="#CEBCD4" stroke-width="0.5" stroke-miterlimit="10"/>
<path d="M285 320V305" stroke="#CEBCD4" stroke-width="0.5" stroke-miterlimit="10"/>
<path d="M351 320V305" stroke="#CEBCD4" stroke-width="0.5" stroke-miterlimit="10"/>
<path d="M0 305.23H400" stroke="#CEBCD4" stroke-width="0.5" stroke-miterlimit="10"/>
<path d="M0 209.23H15.6629" stroke="#CEBCD4" stroke-width="0.5" stroke-miterlimit="10"/>
<path d="M0 113.23H15.6629" stroke="#CEBCD4" stroke-width="0.5" stroke-miterlimit="10"/>
<path d="M0 17.2299H15.6629" stroke="#CEBCD4" stroke-width="0.5" stroke-miterlimit="10"/>
<path d="M39 50.5229L45.4805 44.6135L58.4414 113.581L64.9219 85.0236L77.8828 128.992L90.8438 87.2423L110.285 162.672L116.766 25L129.727 138.427L136.207 83.7988L142.688 118.215L149.168 112.632L155.648 136.056L162.129 132.643L175.09 174.702L181.57 175.653L194.531 181.449L207.492 145.345L220.453 160.358L233.414 173.168L246.375 172.046L259.336 185.629L272.297 188.082L285.258 189.239L298.219 192.413L311.18 213L324.141 191.163L337.102 172.564H384" stroke="#BC75D9" stroke-width="3" stroke-miterlimit="10" stroke-linecap="round" stroke-linejoin="bevel"/>
<path d="M73.8457 333.845H75.9922V326.134L73.4219 327.371V326.045L75.9785 324.828H77.3594V333.845H79.4785V335H73.8457V333.845ZM84.5098 330.475C85.0977 330.475 85.5579 330.263 85.8906 329.839C86.2279 329.415 86.3965 328.829 86.3965 328.082C86.3965 327.335 86.2279 326.749 85.8906 326.325C85.5579 325.901 85.0977 325.689 84.5098 325.689C83.8991 325.689 83.4388 325.892 83.1289 326.298C82.819 326.699 82.6641 327.294 82.6641 328.082C82.6641 328.875 82.8167 329.472 83.1221 329.873C83.432 330.274 83.8945 330.475 84.5098 330.475ZM82.0488 334.788V333.517C82.3359 333.685 82.6413 333.815 82.9648 333.906C83.2884 333.993 83.6257 334.036 83.9766 334.036C84.8516 334.036 85.5124 333.708 85.959 333.052C86.4102 332.391 86.6357 331.42 86.6357 330.14C86.4215 330.595 86.1208 330.946 85.7334 331.192C85.346 331.434 84.9017 331.555 84.4004 331.555C83.416 331.555 82.6527 331.252 82.1104 330.646C81.5726 330.039 81.3037 329.18 81.3037 328.068C81.3037 326.97 81.5794 326.12 82.1309 325.519C82.6868 324.912 83.4707 324.609 84.4824 324.609C85.6673 324.609 86.5355 325.035 87.0869 325.888C87.6383 326.74 87.9141 328.08 87.9141 329.907C87.9141 331.625 87.5814 332.938 86.916 333.845C86.2552 334.747 85.2936 335.198 84.0312 335.198C83.6986 335.198 83.3636 335.162 83.0264 335.089C82.6891 335.021 82.3633 334.92 82.0488 334.788ZM93.082 330.153C92.4668 330.153 91.9906 330.326 91.6533 330.673C91.3206 331.015 91.1543 331.5 91.1543 332.129C91.1543 332.758 91.3229 333.248 91.6602 333.599C92.002 333.945 92.4759 334.118 93.082 334.118C93.7018 334.118 94.1781 333.947 94.5107 333.605C94.848 333.259 95.0166 332.767 95.0166 332.129C95.0166 331.505 94.8457 331.019 94.5039 330.673C94.1667 330.326 93.6927 330.153 93.082 330.153ZM91.8789 329.579C91.291 329.429 90.8307 329.148 90.498 328.738C90.1699 328.328 90.0059 327.834 90.0059 327.255C90.0059 326.444 90.2816 325.801 90.833 325.327C91.3844 324.849 92.1341 324.609 93.082 324.609C94.0345 324.609 94.7865 324.849 95.3379 325.327C95.8893 325.801 96.165 326.444 96.165 327.255C96.165 327.834 95.9987 328.328 95.666 328.738C95.3379 329.148 94.8799 329.429 94.292 329.579C94.9756 329.729 95.4974 330.033 95.8574 330.488C96.222 330.944 96.4043 331.534 96.4043 332.259C96.4043 333.179 96.1104 333.899 95.5225 334.419C94.9346 334.938 94.1211 335.198 93.082 335.198C92.043 335.198 91.2295 334.941 90.6416 334.426C90.0583 333.906 89.7666 333.188 89.7666 332.272C89.7666 331.543 89.9466 330.951 90.3066 330.495C90.6712 330.035 91.1953 329.729 91.8789 329.579ZM91.3799 327.385C91.3799 327.932 91.5257 328.349 91.8174 328.636C92.109 328.923 92.5306 329.066 93.082 329.066C93.638 329.066 94.0618 328.923 94.3535 328.636C94.6452 328.349 94.791 327.932 94.791 327.385C94.791 326.829 94.6452 326.405 94.3535 326.113C94.0664 325.822 93.6426 325.676 93.082 325.676C92.5306 325.676 92.109 325.824 91.8174 326.12C91.5257 326.412 91.3799 326.833 91.3799 327.385ZM101.518 324.644C102.607 324.644 103.429 325.088 103.985 325.977C104.546 326.865 104.826 328.18 104.826 329.921C104.826 331.662 104.546 332.977 103.985 333.865C103.429 334.754 102.607 335.198 101.518 335.198C100.428 335.198 99.6058 334.754 99.0498 333.865C98.4938 332.977 98.2158 331.662 98.2158 329.921C98.2158 328.18 98.4938 326.865 99.0498 325.977C99.6058 325.088 100.428 324.644 101.518 324.644ZM101.518 334.104C102.165 334.104 102.646 333.76 102.96 333.072C103.279 332.384 103.438 331.334 103.438 329.921C103.438 329.169 103.393 328.49 103.302 327.884L100.048 332.977C100.39 333.729 100.88 334.104 101.518 334.104ZM101.518 325.737C100.875 325.737 100.394 326.081 100.075 326.77C99.7607 327.458 99.6035 328.508 99.6035 329.921C99.6035 330.563 99.6468 331.165 99.7334 331.726L102.919 326.646C102.573 326.04 102.105 325.737 101.518 325.737Z" fill="#CEBCD4"/>
<path d="M29 320V305" stroke="#CEBCD4" stroke-width="0.5" stroke-miterlimit="10"/>
<path d="M12.8457 333.845H14.9922V326.134L12.4219 327.371V326.045L14.9785 324.828H16.3594V333.845H18.4785V335H12.8457V333.845ZM23.5098 330.475C24.0977 330.475 24.5579 330.263 24.8906 329.839C25.2279 329.415 25.3965 328.829 25.3965 328.082C25.3965 327.335 25.2279 326.749 24.8906 326.325C24.5579 325.901 24.0977 325.689 23.5098 325.689C22.8991 325.689 22.4388 325.892 22.1289 326.298C21.819 326.699 21.6641 327.294 21.6641 328.082C21.6641 328.875 21.8167 329.472 22.1221 329.873C22.432 330.274 22.8945 330.475 23.5098 330.475ZM21.0488 334.788V333.517C21.3359 333.685 21.6413 333.815 21.9648 333.906C22.2884 333.993 22.6257 334.036 22.9766 334.036C23.8516 334.036 24.5124 333.708 24.959 333.052C25.4102 332.391 25.6357 331.42 25.6357 330.14C25.4215 330.595 25.1208 330.946 24.7334 331.192C24.346 331.434 23.9017 331.555 23.4004 331.555C22.416 331.555 21.6527 331.252 21.1104 330.646C20.5726 330.039 20.3037 329.18 20.3037 328.068C20.3037 326.97 20.5794 326.12 21.1309 325.519C21.6868 324.912 22.4707 324.609 23.4824 324.609C24.6673 324.609 25.5355 325.035 26.0869 325.888C26.6383 326.74 26.9141 328.08 26.9141 329.907C26.9141 331.625 26.5814 332.938 25.916 333.845C25.2552 334.747 24.2936 335.198 23.0312 335.198C22.6986 335.198 22.3636 335.162 22.0264 335.089C21.6891 335.021 21.3633 334.92 21.0488 334.788ZM28.8213 324.794H35.2471V325.382L31.5967 335H30.1543L33.709 325.956H28.8213V324.794ZM40.5176 324.644C41.6068 324.644 42.4294 325.088 42.9854 325.977C43.5459 326.865 43.8262 328.18 43.8262 329.921C43.8262 331.662 43.5459 332.977 42.9854 333.865C42.4294 334.754 41.6068 335.198 40.5176 335.198C39.4284 335.198 38.6058 334.754 38.0498 333.865C37.4938 332.977 37.2158 331.662 37.2158 329.921C37.2158 328.18 37.4938 326.865 38.0498 325.977C38.6058 325.088 39.4284 324.644 40.5176 324.644ZM40.5176 334.104C41.1647 334.104 41.6455 333.76 41.96 333.072C42.279 332.384 42.4385 331.334 42.4385 329.921C42.4385 329.169 42.3929 328.49 42.3018 327.884L39.0479 332.977C39.3896 333.729 39.8796 334.104 40.5176 334.104ZM40.5176 325.737C39.875 325.737 39.3942 326.081 39.0752 326.77C38.7607 327.458 38.6035 328.508 38.6035 329.921C38.6035 330.563 38.6468 331.165 38.7334 331.726L41.9189 326.646C41.5726 326.04 41.1055 325.737 40.5176 325.737Z" fill="#CEBCD4"/>
<path d="M140.846 333.845H142.992V326.134L140.422 327.371V326.045L142.979 324.828H144.359V333.845H146.479V335H140.846V333.845ZM151.51 330.475C152.098 330.475 152.558 330.263 152.891 329.839C153.228 329.415 153.396 328.829 153.396 328.082C153.396 327.335 153.228 326.749 152.891 326.325C152.558 325.901 152.098 325.689 151.51 325.689C150.899 325.689 150.439 325.892 150.129 326.298C149.819 326.699 149.664 327.294 149.664 328.082C149.664 328.875 149.817 329.472 150.122 329.873C150.432 330.274 150.895 330.475 151.51 330.475ZM149.049 334.788V333.517C149.336 333.685 149.641 333.815 149.965 333.906C150.288 333.993 150.626 334.036 150.977 334.036C151.852 334.036 152.512 333.708 152.959 333.052C153.41 332.391 153.636 331.42 153.636 330.14C153.422 330.595 153.121 330.946 152.733 331.192C152.346 331.434 151.902 331.555 151.4 331.555C150.416 331.555 149.653 331.252 149.11 330.646C148.573 330.039 148.304 329.18 148.304 328.068C148.304 326.97 148.579 326.12 149.131 325.519C149.687 324.912 150.471 324.609 151.482 324.609C152.667 324.609 153.535 325.035 154.087 325.888C154.638 326.74 154.914 328.08 154.914 329.907C154.914 331.625 154.581 332.938 153.916 333.845C153.255 334.747 152.294 335.198 151.031 335.198C150.699 335.198 150.364 335.162 150.026 335.089C149.689 335.021 149.363 334.92 149.049 334.788ZM159.945 330.475C160.533 330.475 160.993 330.263 161.326 329.839C161.663 329.415 161.832 328.829 161.832 328.082C161.832 327.335 161.663 326.749 161.326 326.325C160.993 325.901 160.533 325.689 159.945 325.689C159.335 325.689 158.874 325.892 158.564 326.298C158.255 326.699 158.1 327.294 158.1 328.082C158.1 328.875 158.252 329.472 158.558 329.873C158.868 330.274 159.33 330.475 159.945 330.475ZM157.484 334.788V333.517C157.771 333.685 158.077 333.815 158.4 333.906C158.724 333.993 159.061 334.036 159.412 334.036C160.287 334.036 160.948 333.708 161.395 333.052C161.846 332.391 162.071 331.42 162.071 330.14C161.857 330.595 161.556 330.946 161.169 331.192C160.782 331.434 160.337 331.555 159.836 331.555C158.852 331.555 158.088 331.252 157.546 330.646C157.008 330.039 156.739 329.18 156.739 328.068C156.739 326.97 157.015 326.12 157.566 325.519C158.122 324.912 158.906 324.609 159.918 324.609C161.103 324.609 161.971 325.035 162.522 325.888C163.074 326.74 163.35 328.08 163.35 329.907C163.35 331.625 163.017 332.938 162.352 333.845C161.691 334.747 160.729 335.198 159.467 335.198C159.134 335.198 158.799 335.162 158.462 335.089C158.125 335.021 157.799 334.92 157.484 334.788ZM168.518 324.644C169.607 324.644 170.429 325.088 170.985 325.977C171.546 326.865 171.826 328.18 171.826 329.921C171.826 331.662 171.546 332.977 170.985 333.865C170.429 334.754 169.607 335.198 168.518 335.198C167.428 335.198 166.606 334.754 166.05 333.865C165.494 332.977 165.216 331.662 165.216 329.921C165.216 328.18 165.494 326.865 166.05 325.977C166.606 325.088 167.428 324.644 168.518 324.644ZM168.518 334.104C169.165 334.104 169.646 333.76 169.96 333.072C170.279 332.384 170.438 331.334 170.438 329.921C170.438 329.169 170.393 328.49 170.302 327.884L167.048 332.977C167.39 333.729 167.88 334.104 168.518 334.104ZM168.518 325.737C167.875 325.737 167.394 326.081 167.075 326.77C166.761 327.458 166.604 328.508 166.604 329.921C166.604 330.563 166.647 331.165 166.733 331.726L169.919 326.646C169.573 326.04 169.105 325.737 168.518 325.737Z" fill="#CEBCD4"/>
<path d="M206.55 333.838H211.239V335H205.039V333.838C205.891 332.94 206.636 332.147 207.274 331.459C207.912 330.771 208.352 330.285 208.594 330.003C209.049 329.447 209.357 328.998 209.517 328.656C209.676 328.31 209.756 327.957 209.756 327.597C209.756 327.027 209.587 326.58 209.25 326.257C208.917 325.933 208.459 325.771 207.876 325.771C207.461 325.771 207.026 325.847 206.57 325.997C206.115 326.147 205.632 326.375 205.121 326.681V325.286C205.59 325.063 206.051 324.894 206.502 324.78C206.958 324.666 207.407 324.609 207.849 324.609C208.847 324.609 209.649 324.876 210.255 325.409C210.866 325.938 211.171 326.633 211.171 327.494C211.171 327.932 211.068 328.369 210.863 328.807C210.663 329.244 210.335 329.727 209.879 330.256C209.624 330.552 209.252 330.962 208.765 331.486C208.282 332.01 207.543 332.794 206.55 333.838ZM216.646 324.644C217.736 324.644 218.558 325.088 219.114 325.977C219.675 326.865 219.955 328.18 219.955 329.921C219.955 331.662 219.675 332.977 219.114 333.865C218.558 334.754 217.736 335.198 216.646 335.198C215.557 335.198 214.735 334.754 214.179 333.865C213.623 332.977 213.345 331.662 213.345 329.921C213.345 328.18 213.623 326.865 214.179 325.977C214.735 325.088 215.557 324.644 216.646 324.644ZM216.646 334.104C217.294 334.104 217.774 333.76 218.089 333.072C218.408 332.384 218.567 331.334 218.567 329.921C218.567 329.169 218.522 328.49 218.431 327.884L215.177 332.977C215.519 333.729 216.008 334.104 216.646 334.104ZM216.646 325.737C216.004 325.737 215.523 326.081 215.204 326.77C214.89 327.458 214.732 328.508 214.732 329.921C214.732 330.563 214.776 331.165 214.862 331.726L218.048 326.646C217.701 326.04 217.234 325.737 216.646 325.737ZM225.082 324.644C226.171 324.644 226.994 325.088 227.55 325.977C228.11 326.865 228.391 328.18 228.391 329.921C228.391 331.662 228.11 332.977 227.55 333.865C226.994 334.754 226.171 335.198 225.082 335.198C223.993 335.198 223.17 334.754 222.614 333.865C222.058 332.977 221.78 331.662 221.78 329.921C221.78 328.18 222.058 326.865 222.614 325.977C223.17 325.088 223.993 324.644 225.082 324.644ZM225.082 334.104C225.729 334.104 226.21 333.76 226.524 333.072C226.843 332.384 227.003 331.334 227.003 329.921C227.003 329.169 226.957 328.49 226.866 327.884L223.612 332.977C223.954 333.729 224.444 334.104 225.082 334.104ZM225.082 325.737C224.439 325.737 223.959 326.081 223.64 326.77C223.325 327.458 223.168 328.508 223.168 329.921C223.168 330.563 223.211 331.165 223.298 331.726L226.483 326.646C226.137 326.04 225.67 325.737 225.082 325.737ZM233.518 324.644C234.607 324.644 235.429 325.088 235.985 325.977C236.546 326.865 236.826 328.18 236.826 329.921C236.826 331.662 236.546 332.977 235.985 333.865C235.429 334.754 234.607 335.198 233.518 335.198C232.428 335.198 231.606 334.754 231.05 333.865C230.494 332.977 230.216 331.662 230.216 329.921C230.216 328.18 230.494 326.865 231.05 325.977C231.606 325.088 232.428 324.644 233.518 324.644ZM233.518 334.104C234.165 334.104 234.646 333.76 234.96 333.072C235.279 332.384 235.438 331.334 235.438 329.921C235.438 329.169 235.393 328.49 235.302 327.884L232.048 332.977C232.39 333.729 232.88 334.104 233.518 334.104ZM233.518 325.737C232.875 325.737 232.394 326.081 232.075 326.77C231.761 327.458 231.604 328.508 231.604 329.921C231.604 330.563 231.647 331.165 231.733 331.726L234.919 326.646C234.573 326.04 234.105 325.737 233.518 325.737Z" fill="#CEBCD4"/>
<path d="M270.55 333.838H275.239V335H269.039V333.838C269.891 332.94 270.636 332.147 271.274 331.459C271.912 330.771 272.352 330.285 272.594 330.003C273.049 329.447 273.357 328.998 273.517 328.656C273.676 328.31 273.756 327.957 273.756 327.597C273.756 327.027 273.587 326.58 273.25 326.257C272.917 325.933 272.459 325.771 271.876 325.771C271.461 325.771 271.026 325.847 270.57 325.997C270.115 326.147 269.632 326.375 269.121 326.681V325.286C269.59 325.063 270.051 324.894 270.502 324.78C270.958 324.666 271.407 324.609 271.849 324.609C272.847 324.609 273.649 324.876 274.255 325.409C274.866 325.938 275.171 326.633 275.171 327.494C275.171 327.932 275.068 328.369 274.863 328.807C274.663 329.244 274.335 329.727 273.879 330.256C273.624 330.552 273.252 330.962 272.765 331.486C272.282 332.01 271.543 332.794 270.55 333.838ZM280.646 324.644C281.736 324.644 282.558 325.088 283.114 325.977C283.675 326.865 283.955 328.18 283.955 329.921C283.955 331.662 283.675 332.977 283.114 333.865C282.558 334.754 281.736 335.198 280.646 335.198C279.557 335.198 278.735 334.754 278.179 333.865C277.623 332.977 277.345 331.662 277.345 329.921C277.345 328.18 277.623 326.865 278.179 325.977C278.735 325.088 279.557 324.644 280.646 324.644ZM280.646 334.104C281.294 334.104 281.774 333.76 282.089 333.072C282.408 332.384 282.567 331.334 282.567 329.921C282.567 329.169 282.522 328.49 282.431 327.884L279.177 332.977C279.519 333.729 280.008 334.104 280.646 334.104ZM280.646 325.737C280.004 325.737 279.523 326.081 279.204 326.77C278.89 327.458 278.732 328.508 278.732 329.921C278.732 330.563 278.776 331.165 278.862 331.726L282.048 326.646C281.701 326.04 281.234 325.737 280.646 325.737ZM286.717 333.845H288.863V326.134L286.293 327.371V326.045L288.85 324.828H290.23V333.845H292.35V335H286.717V333.845ZM297.518 324.644C298.607 324.644 299.429 325.088 299.985 325.977C300.546 326.865 300.826 328.18 300.826 329.921C300.826 331.662 300.546 332.977 299.985 333.865C299.429 334.754 298.607 335.198 297.518 335.198C296.428 335.198 295.606 334.754 295.05 333.865C294.494 332.977 294.216 331.662 294.216 329.921C294.216 328.18 294.494 326.865 295.05 325.977C295.606 325.088 296.428 324.644 297.518 324.644ZM297.518 334.104C298.165 334.104 298.646 333.76 298.96 333.072C299.279 332.384 299.438 331.334 299.438 329.921C299.438 329.169 299.393 328.49 299.302 327.884L296.048 332.977C296.39 333.729 296.88 334.104 297.518 334.104ZM297.518 325.737C296.875 325.737 296.394 326.081 296.075 326.77C295.761 327.458 295.604 328.508 295.604 329.921C295.604 330.563 295.647 331.165 295.733 331.726L298.919 326.646C298.573 326.04 298.105 325.737 297.518 325.737Z" fill="#CEBCD4"/>
<path d="M336.55 333.838H341.239V335H335.039V333.838C335.891 332.94 336.636 332.147 337.274 331.459C337.912 330.771 338.352 330.285 338.594 330.003C339.049 329.447 339.357 328.998 339.517 328.656C339.676 328.31 339.756 327.957 339.756 327.597C339.756 327.027 339.587 326.58 339.25 326.257C338.917 325.933 338.459 325.771 337.876 325.771C337.461 325.771 337.026 325.847 336.57 325.997C336.115 326.147 335.632 326.375 335.121 326.681V325.286C335.59 325.063 336.051 324.894 336.502 324.78C336.958 324.666 337.407 324.609 337.849 324.609C338.847 324.609 339.649 324.876 340.255 325.409C340.866 325.938 341.171 326.633 341.171 327.494C341.171 327.932 341.068 328.369 340.863 328.807C340.663 329.244 340.335 329.727 339.879 330.256C339.624 330.552 339.252 330.962 338.765 331.486C338.282 332.01 337.543 332.794 336.55 333.838ZM346.646 324.644C347.736 324.644 348.558 325.088 349.114 325.977C349.675 326.865 349.955 328.18 349.955 329.921C349.955 331.662 349.675 332.977 349.114 333.865C348.558 334.754 347.736 335.198 346.646 335.198C345.557 335.198 344.735 334.754 344.179 333.865C343.623 332.977 343.345 331.662 343.345 329.921C343.345 328.18 343.623 326.865 344.179 325.977C344.735 325.088 345.557 324.644 346.646 324.644ZM346.646 334.104C347.294 334.104 347.774 333.76 348.089 333.072C348.408 332.384 348.567 331.334 348.567 329.921C348.567 329.169 348.522 328.49 348.431 327.884L345.177 332.977C345.519 333.729 346.008 334.104 346.646 334.104ZM346.646 325.737C346.004 325.737 345.523 326.081 345.204 326.77C344.89 327.458 344.732 328.508 344.732 329.921C344.732 330.563 344.776 331.165 344.862 331.726L348.048 326.646C347.701 326.04 347.234 325.737 346.646 325.737ZM353.421 333.838H358.11V335H351.91V333.838C352.762 332.94 353.507 332.147 354.146 331.459C354.784 330.771 355.223 330.285 355.465 330.003C355.921 329.447 356.228 328.998 356.388 328.656C356.547 328.31 356.627 327.957 356.627 327.597C356.627 327.027 356.458 326.58 356.121 326.257C355.788 325.933 355.33 325.771 354.747 325.771C354.332 325.771 353.897 325.847 353.441 325.997C352.986 326.147 352.503 326.375 351.992 326.681V325.286C352.462 325.063 352.922 324.894 353.373 324.78C353.829 324.666 354.278 324.609 354.72 324.609C355.718 324.609 356.52 324.876 357.126 325.409C357.737 325.938 358.042 326.633 358.042 327.494C358.042 327.932 357.939 328.369 357.734 328.807C357.534 329.244 357.206 329.727 356.75 330.256C356.495 330.552 356.123 330.962 355.636 331.486C355.153 332.01 354.414 332.794 353.421 333.838ZM363.518 324.644C364.607 324.644 365.429 325.088 365.985 325.977C366.546 326.865 366.826 328.18 366.826 329.921C366.826 331.662 366.546 332.977 365.985 333.865C365.429 334.754 364.607 335.198 363.518 335.198C362.428 335.198 361.606 334.754 361.05 333.865C360.494 332.977 360.216 331.662 360.216 329.921C360.216 328.18 360.494 326.865 361.05 325.977C361.606 325.088 362.428 324.644 363.518 324.644ZM363.518 334.104C364.165 334.104 364.646 333.76 364.96 333.072C365.279 332.384 365.438 331.334 365.438 329.921C365.438 329.169 365.393 328.49 365.302 327.884L362.048 332.977C362.39 333.729 362.88 334.104 363.518 334.104ZM363.518 325.737C362.875 325.737 362.394 326.081 362.075 326.77C361.761 327.458 361.604 328.508 361.604 329.921C361.604 330.563 361.647 331.165 361.733 331.726L364.919 326.646C364.573 326.04 364.105 325.737 363.518 325.737Z" fill="#CEBCD4"/>
<path d="M17.7422 53.7734L14.0625 59.9375H17.7422V53.7734ZM17.4844 52.3359H19.3125V59.9375H20.8672V61.2188H19.3125V64H17.7422V61.2188H12.7969V59.7266L17.4844 52.3359ZM22.7266 52.3359H30.0703V53.0078L25.8984 64H24.25L28.3125 53.6641H22.7266V52.3359ZM36.7188 61.5078C36.7188 61.9141 36.8542 62.2552 37.125 62.5312C37.401 62.8073 37.7422 62.9453 38.1484 62.9453C38.5495 62.9453 38.888 62.8073 39.1641 62.5312C39.4453 62.25 39.5859 61.9089 39.5859 61.5078C39.5859 61.1068 39.4453 60.7656 39.1641 60.4844C38.8828 60.2031 38.5443 60.0625 38.1484 60.0625C37.7422 60.0625 37.401 60.2005 37.125 60.4766C36.8542 60.7526 36.7188 61.0964 36.7188 61.5078ZM35.6641 61.5078C35.6641 60.8047 35.9036 60.2135 36.3828 59.7344C36.862 59.25 37.4505 59.0078 38.1484 59.0078C38.4818 59.0078 38.7969 59.0703 39.0938 59.1953C39.3958 59.3203 39.6667 59.5026 39.9062 59.7422C40.1458 59.987 40.3307 60.2604 40.4609 60.5625C40.5911 60.8646 40.6562 61.1797 40.6562 61.5078C40.6562 62.2005 40.4141 62.7891 39.9297 63.2734C39.4453 63.7578 38.8516 64 38.1484 64C37.4401 64 36.849 63.763 36.375 63.2891C35.901 62.8099 35.6641 62.2161 35.6641 61.5078ZM31.9297 60.5625L31.5859 59.6797L40.2969 56.1953L40.6875 57.0781L31.9297 60.5625ZM32.5938 55.3125C32.5938 55.724 32.7292 56.0677 33 56.3438C33.276 56.6146 33.6198 56.75 34.0312 56.75C34.4323 56.75 34.7734 56.612 35.0547 56.3359C35.3359 56.0547 35.4766 55.7135 35.4766 55.3125C35.4766 54.9115 35.3359 54.5729 35.0547 54.2969C34.7734 54.0156 34.4323 53.875 34.0312 53.875C33.6302 53.875 33.2891 54.013 33.0078 54.2891C32.7318 54.5651 32.5938 54.9062 32.5938 55.3125ZM31.5391 55.3125C31.5391 54.6094 31.7786 54.0182 32.2578 53.5391C32.737 53.0547 33.3281 52.8125 34.0312 52.8125C34.3646 52.8125 34.6823 52.875 34.9844 53C35.2917 53.125 35.5625 53.3047 35.7969 53.5391C36.0312 53.7734 36.2109 54.0443 36.3359 54.3516C36.4661 54.6536 36.5312 54.974 36.5312 55.3125C36.5312 56.0104 36.2891 56.6016 35.8047 57.0859C35.3203 57.5651 34.7292 57.8047 34.0312 57.8047C33.3281 57.8047 32.737 57.5651 32.2578 57.0859C31.7786 56.6068 31.5391 56.0156 31.5391 55.3125Z" fill="#BC75D9"/>
<path d="M373.062 159.758C373.828 159.961 374.414 160.323 374.82 160.844C375.227 161.359 375.43 162.005 375.43 162.781C375.43 163.854 375.068 164.698 374.344 165.312C373.625 165.922 372.628 166.227 371.352 166.227C370.815 166.227 370.268 166.177 369.711 166.078C369.154 165.979 368.607 165.836 368.07 165.648V164.078C368.602 164.354 369.125 164.56 369.641 164.695C370.156 164.831 370.669 164.898 371.18 164.898C372.044 164.898 372.708 164.703 373.172 164.312C373.635 163.922 373.867 163.359 373.867 162.625C373.867 161.948 373.635 161.411 373.172 161.016C372.708 160.615 372.081 160.414 371.289 160.414H370.086V159.117H371.289C372.013 159.117 372.578 158.958 372.984 158.641C373.391 158.323 373.594 157.88 373.594 157.312C373.594 156.714 373.404 156.255 373.023 155.938C372.648 155.615 372.112 155.453 371.414 155.453C370.951 155.453 370.471 155.505 369.977 155.609C369.482 155.714 368.964 155.87 368.422 156.078V154.625C369.052 154.458 369.612 154.333 370.102 154.25C370.596 154.167 371.034 154.125 371.414 154.125C372.549 154.125 373.456 154.411 374.133 154.984C374.815 155.552 375.156 156.307 375.156 157.25C375.156 157.891 374.977 158.424 374.617 158.852C374.263 159.279 373.745 159.581 373.062 159.758ZM382.383 155.773L378.703 161.938H382.383V155.773ZM382.125 154.336H383.953V161.938H385.508V163.219H383.953V166H382.383V163.219H377.438V161.727L382.125 154.336ZM391.719 163.508C391.719 163.914 391.854 164.255 392.125 164.531C392.401 164.807 392.742 164.945 393.148 164.945C393.549 164.945 393.888 164.807 394.164 164.531C394.445 164.25 394.586 163.909 394.586 163.508C394.586 163.107 394.445 162.766 394.164 162.484C393.883 162.203 393.544 162.062 393.148 162.062C392.742 162.062 392.401 162.201 392.125 162.477C391.854 162.753 391.719 163.096 391.719 163.508ZM390.664 163.508C390.664 162.805 390.904 162.214 391.383 161.734C391.862 161.25 392.451 161.008 393.148 161.008C393.482 161.008 393.797 161.07 394.094 161.195C394.396 161.32 394.667 161.503 394.906 161.742C395.146 161.987 395.331 162.26 395.461 162.562C395.591 162.865 395.656 163.18 395.656 163.508C395.656 164.201 395.414 164.789 394.93 165.273C394.445 165.758 393.852 166 393.148 166C392.44 166 391.849 165.763 391.375 165.289C390.901 164.81 390.664 164.216 390.664 163.508ZM386.93 162.562L386.586 161.68L395.297 158.195L395.688 159.078L386.93 162.562ZM387.594 157.312C387.594 157.724 387.729 158.068 388 158.344C388.276 158.615 388.62 158.75 389.031 158.75C389.432 158.75 389.773 158.612 390.055 158.336C390.336 158.055 390.477 157.714 390.477 157.312C390.477 156.911 390.336 156.573 390.055 156.297C389.773 156.016 389.432 155.875 389.031 155.875C388.63 155.875 388.289 156.013 388.008 156.289C387.732 156.565 387.594 156.906 387.594 157.312ZM386.539 157.312C386.539 156.609 386.779 156.018 387.258 155.539C387.737 155.055 388.328 154.812 389.031 154.812C389.365 154.812 389.682 154.875 389.984 155C390.292 155.125 390.562 155.305 390.797 155.539C391.031 155.773 391.211 156.044 391.336 156.352C391.466 156.654 391.531 156.974 391.531 157.312C391.531 158.01 391.289 158.602 390.805 159.086C390.32 159.565 389.729 159.805 389.031 159.805C388.328 159.805 387.737 159.565 387.258 159.086C386.779 158.607 386.539 158.016 386.539 157.312Z" fill="#BC75D9"/>
</g>
<defs>
<clipPath id="clip0_1_3">
<rect width="400" height="337" fill="white"/>
</clipPath>
</defs>
</svg>
