<svg width="400" height="247" viewBox="0 0 400 247" fill="none" xmlns="http://www.w3.org/2000/svg">
<g clip-path="url(#clip0_5_27)">
<path d="M-0.0500488 224.939H399.95" stroke="#CEBCD4" stroke-width="0.5" stroke-miterlimit="10"/>
<path d="M-0.0500488 183.773H16.95" stroke="#CEBCD4" stroke-width="0.5" stroke-miterlimit="10"/>
<path d="M-0.0500488 142.606H16.95" stroke="#CEBCD4" stroke-width="0.5" stroke-miterlimit="10"/>
<path d="M-0.0500488 100.563H16.95" stroke="#CEBCD4" stroke-width="0.5" stroke-miterlimit="10"/>
<path d="M-0.0500488 59.3968H16.95" stroke="#CEBCD4" stroke-width="0.5" stroke-miterlimit="10"/>
<path d="M-0.0500488 17.3542H16.95" stroke="#CEBCD4" stroke-width="0.5" stroke-miterlimit="10"/>
<path d="M115 225.377H63V100.125C63 99.158 64.0122 98.3737 65.2609 98.3737H112.739C113.988 98.3737 115 99.158 115 100.125V225.377Z" fill="#FF6BAB"/>
<path d="M196 225.377H144V99.2496C144 98.2821 145.012 97.4978 146.261 97.4978H193.739C194.988 97.4978 196 98.2821 196 99.2496V225.377Z" fill="#FF9393"/>
<path d="M278 225.377H226V82.6077C226 81.6403 227.012 80.856 228.261 80.856H275.739C276.988 80.856 278 81.6403 278 82.6077V225.377Z" fill="#EAAD57"/>
<path d="M359 225.377H307V73.8489C307 72.8814 308.012 72.0971 309.261 72.0971H356.739C357.988 72.0971 359 72.8814 359 73.8489V225.377Z" fill="#EDE977"/>
<path d="M4.21094 210.918C5.30013 210.918 6.12272 211.363 6.67871 212.251C7.23926 213.14 7.51953 214.455 7.51953 216.196C7.51953 217.937 7.23926 219.251 6.67871 220.14C6.12272 221.029 5.30013 221.473 4.21094 221.473C3.12174 221.473 2.29915 221.029 1.74316 220.14C1.18717 219.251 0.90918 217.937 0.90918 216.196C0.90918 214.455 1.18717 213.14 1.74316 212.251C2.29915 211.363 3.12174 210.918 4.21094 210.918ZM4.21094 220.379C4.85807 220.379 5.33887 220.035 5.65332 219.347C5.97233 218.659 6.13184 217.608 6.13184 216.196C6.13184 215.444 6.08626 214.765 5.99512 214.159L2.74121 219.251C3.08301 220.003 3.57292 220.379 4.21094 220.379ZM4.21094 212.012C3.56836 212.012 3.08757 212.356 2.76855 213.044C2.4541 213.732 2.29688 214.783 2.29688 216.196C2.29688 216.838 2.34017 217.44 2.42676 218L5.6123 212.921C5.26595 212.315 4.79883 212.012 4.21094 212.012Z" fill="#CEBCD4"/>
<path d="M2.5498 178.946H7.23926V180.108H1.03906V178.946C1.89128 178.048 2.63639 177.255 3.27441 176.567C3.91243 175.879 4.35221 175.394 4.59375 175.111C5.04948 174.555 5.3571 174.106 5.5166 173.764C5.67611 173.418 5.75586 173.065 5.75586 172.705C5.75586 172.135 5.58724 171.689 5.25 171.365C4.91732 171.041 4.45931 170.88 3.87598 170.88C3.46126 170.88 3.02604 170.955 2.57031 171.105C2.11458 171.256 1.63151 171.483 1.12109 171.789V170.394C1.59049 170.171 2.05078 170.002 2.50195 169.888C2.95768 169.774 3.40658 169.717 3.84863 169.717C4.84668 169.717 5.64876 169.984 6.25488 170.517C6.86556 171.046 7.1709 171.741 7.1709 172.602C7.1709 173.04 7.06836 173.477 6.86328 173.915C6.66276 174.352 6.33464 174.835 5.87891 175.364C5.6237 175.66 5.25228 176.07 4.76465 176.594C4.28158 177.119 3.54329 177.902 2.5498 178.946Z" fill="#CEBCD4"/>
<path d="M5.02441 129.117L1.80469 134.511H5.02441V129.117ZM4.79883 127.859H6.39844V134.511H7.75879V135.632H6.39844V138.066H5.02441V135.632H0.697266V134.326L4.79883 127.859Z" fill="#CEBCD4"/>
<path d="M6.77441 86.9184V88.1899C6.4873 88.0213 6.18197 87.8937 5.8584 87.8071C5.53483 87.716 5.19759 87.6704 4.84668 87.6704C3.97168 87.6704 3.30859 88.0008 2.85742 88.6616C2.40625 89.3178 2.18066 90.2863 2.18066 91.5669C2.39941 91.1111 2.70247 90.7625 3.08984 90.521C3.47721 90.2749 3.92155 90.1518 4.42285 90.1518C5.40723 90.1518 6.16829 90.4549 6.70605 91.061C7.24837 91.6626 7.51953 92.5171 7.51953 93.6245C7.51953 94.7273 7.24154 95.5818 6.68555 96.188C6.12956 96.7941 5.34798 97.0971 4.34082 97.0971C3.15592 97.0971 2.28776 96.6733 1.73633 95.8257C1.1849 94.9734 0.90918 93.6336 0.90918 91.8061C0.90918 90.0835 1.23958 88.771 1.90039 87.8686C2.56576 86.9617 3.52734 86.5083 4.78516 86.5083C5.1224 86.5083 5.45964 86.5447 5.79688 86.6176C6.13411 86.686 6.45996 86.7863 6.77441 86.9184ZM4.31348 91.2319C3.72559 91.2319 3.26302 91.4438 2.92578 91.8676C2.58854 92.2915 2.41992 92.8771 2.41992 93.6245C2.41992 94.3719 2.58854 94.9575 2.92578 95.3813C3.26302 95.8051 3.72559 96.0171 4.31348 96.0171C4.92415 96.0171 5.38444 95.8165 5.69434 95.4155C6.00423 95.0099 6.15918 94.4129 6.15918 93.6245C6.15918 92.8315 6.00423 92.2345 5.69434 91.8335C5.38444 91.4324 4.92415 91.2319 4.31348 91.2319Z" fill="#CEBCD4"/>
<path d="M4.21094 50.8855C3.5957 50.8855 3.11947 51.0587 2.78223 51.4051C2.44954 51.7469 2.2832 52.2322 2.2832 52.8611C2.2832 53.49 2.45182 53.9799 2.78906 54.3309C3.13086 54.6772 3.60482 54.8504 4.21094 54.8504C4.83073 54.8504 5.30697 54.6795 5.63965 54.3377C5.97689 53.9913 6.14551 53.4992 6.14551 52.8611C6.14551 52.2368 5.97461 51.7514 5.63281 51.4051C5.29557 51.0587 4.82161 50.8855 4.21094 50.8855ZM3.00781 50.3113C2.41992 50.1609 1.95964 49.8807 1.62695 49.4705C1.29883 49.0603 1.13477 48.5659 1.13477 47.9871C1.13477 47.1759 1.41048 46.5333 1.96191 46.0594C2.51335 45.5809 3.26302 45.3416 4.21094 45.3416C5.16341 45.3416 5.91536 45.5809 6.4668 46.0594C7.01823 46.5333 7.29395 47.1759 7.29395 47.9871C7.29395 48.5659 7.1276 49.0603 6.79492 49.4705C6.4668 49.8807 6.00879 50.1609 5.4209 50.3113C6.10449 50.4617 6.6263 50.7648 6.98633 51.2205C7.35091 51.6762 7.5332 52.2664 7.5332 52.991C7.5332 53.9116 7.23926 54.6316 6.65137 55.1512C6.06348 55.6707 5.25 55.9305 4.21094 55.9305C3.17188 55.9305 2.3584 55.673 1.77051 55.158C1.18717 54.6385 0.895508 53.9207 0.895508 53.0047C0.895508 52.2755 1.07552 51.6831 1.43555 51.2273C1.80013 50.7671 2.32422 50.4617 3.00781 50.3113ZM2.50879 48.117C2.50879 48.6639 2.65462 49.0809 2.94629 49.368C3.23796 49.6551 3.65951 49.7986 4.21094 49.7986C4.76693 49.7986 5.19076 49.6551 5.48242 49.368C5.77409 49.0809 5.91992 48.6639 5.91992 48.117C5.91992 47.561 5.77409 47.1372 5.48242 46.8455C5.19531 46.5538 4.77148 46.408 4.21094 46.408C3.65951 46.408 3.23796 46.5561 2.94629 46.8523C2.65462 47.144 2.50879 47.5656 2.50879 48.117Z" fill="#CEBCD4"/>
<path d="M1.8457 11.8447H3.99219V4.13379L1.42188 5.37109V4.04492L3.97852 2.82812H5.35938V11.8447H7.47852V13H1.8457V11.8447ZM12.6465 2.64355C13.7357 2.64355 14.5583 3.08789 15.1143 3.97656C15.6748 4.86523 15.9551 6.18001 15.9551 7.9209C15.9551 9.66178 15.6748 10.9766 15.1143 11.8652C14.5583 12.7539 13.7357 13.1982 12.6465 13.1982C11.5573 13.1982 10.7347 12.7539 10.1787 11.8652C9.62272 10.9766 9.34473 9.66178 9.34473 7.9209C9.34473 6.18001 9.62272 4.86523 10.1787 3.97656C10.7347 3.08789 11.5573 2.64355 12.6465 2.64355ZM12.6465 12.1045C13.2936 12.1045 13.7744 11.7604 14.0889 11.0723C14.4079 10.3841 14.5674 9.33366 14.5674 7.9209C14.5674 7.16895 14.5218 6.48991 14.4307 5.88379L11.1768 10.9766C11.5186 11.7285 12.0085 12.1045 12.6465 12.1045ZM12.6465 3.7373C12.0039 3.7373 11.5231 4.08138 11.2041 4.76953C10.8896 5.45768 10.7324 6.50814 10.7324 7.9209C10.7324 8.56348 10.7757 9.16504 10.8623 9.72559L14.0479 4.64648C13.7015 4.04036 13.2344 3.7373 12.6465 3.7373ZM31.1514 1.69336C30.5452 2.73242 30.0918 3.76921 29.791 4.80371C29.4948 5.83366 29.3467 6.87272 29.3467 7.9209C29.3467 8.96452 29.4948 10.0036 29.791 11.0381C30.0918 12.0726 30.5452 13.1139 31.1514 14.1621H30.0576C29.3695 13.0775 28.8568 12.0225 28.5195 10.9971C28.1823 9.96712 28.0137 8.94173 28.0137 7.9209C28.0137 6.90462 28.1823 5.88151 28.5195 4.85156C28.8568 3.82161 29.3695 2.76888 30.0576 1.69336H31.1514ZM36.3057 12.0361V15.9121H35.041V5.34375H36.3057V6.32129C36.5153 5.94303 36.7933 5.65592 37.1396 5.45996C37.4906 5.25944 37.8939 5.15918 38.3496 5.15918C39.2747 5.15918 39.9993 5.51693 40.5234 6.23242C41.0521 6.94792 41.3164 7.93913 41.3164 9.20605C41.3164 10.4502 41.0521 11.4277 40.5234 12.1387C39.9948 12.8451 39.2702 13.1982 38.3496 13.1982C37.8848 13.1982 37.4769 13.1003 37.126 12.9043C36.7796 12.7038 36.5062 12.4144 36.3057 12.0361ZM39.9971 9.17871C39.9971 8.20345 39.8421 7.46745 39.5322 6.9707C39.2269 6.47396 38.7712 6.22559 38.165 6.22559C37.5544 6.22559 37.0918 6.47624 36.7773 6.97754C36.4629 7.47428 36.3057 8.20801 36.3057 9.17871C36.3057 10.1449 36.4629 10.8786 36.7773 11.3799C37.0918 11.8812 37.5544 12.1318 38.165 12.1318C38.7712 12.1318 39.2269 11.8835 39.5322 11.3867C39.8421 10.89 39.9971 10.154 39.9971 9.17871ZM46.3887 6.22559C45.7507 6.22559 45.2676 6.47396 44.9395 6.9707C44.6113 7.46745 44.4473 8.20345 44.4473 9.17871C44.4473 10.1494 44.6113 10.8854 44.9395 11.3867C45.2676 11.8835 45.7507 12.1318 46.3887 12.1318C47.0312 12.1318 47.5166 11.8835 47.8447 11.3867C48.1729 10.8854 48.3369 10.1494 48.3369 9.17871C48.3369 8.20345 48.1729 7.46745 47.8447 6.9707C47.5166 6.47396 47.0312 6.22559 46.3887 6.22559ZM46.3887 5.15918C47.4505 5.15918 48.2617 5.50326 48.8223 6.19141C49.3874 6.87956 49.6699 7.87533 49.6699 9.17871C49.6699 10.4867 49.3896 11.4847 48.8291 12.1729C48.2686 12.8564 47.4551 13.1982 46.3887 13.1982C45.3268 13.1982 44.5156 12.8564 43.9551 12.1729C43.3945 11.4847 43.1143 10.4867 43.1143 9.17871C43.1143 7.87533 43.3945 6.87956 43.9551 6.19141C44.5156 5.50326 45.3268 5.15918 46.3887 5.15918ZM57.2646 5.61035V6.84082C56.9046 6.63118 56.5423 6.47396 56.1777 6.36914C55.8132 6.26432 55.4417 6.21191 55.0635 6.21191C54.4938 6.21191 54.0677 6.30534 53.7852 6.49219C53.5072 6.67448 53.3682 6.95475 53.3682 7.33301C53.3682 7.6748 53.473 7.93001 53.6826 8.09863C53.8923 8.26725 54.4141 8.43132 55.248 8.59082L55.7539 8.68652C56.3783 8.80501 56.8499 9.04199 57.1689 9.39746C57.4925 9.75293 57.6543 10.2155 57.6543 10.7852C57.6543 11.5417 57.3854 12.1341 56.8477 12.5625C56.3099 12.9863 55.5625 13.1982 54.6055 13.1982C54.2272 13.1982 53.8307 13.1572 53.416 13.0752C53.0013 12.9977 52.5524 12.8792 52.0693 12.7197V11.4209C52.5387 11.6624 52.9876 11.8447 53.416 11.9678C53.8444 12.0863 54.25 12.1455 54.6328 12.1455C55.1888 12.1455 55.6195 12.0339 55.9248 11.8105C56.2301 11.5827 56.3828 11.266 56.3828 10.8604C56.3828 10.277 55.8245 9.8737 54.708 9.65039L54.6533 9.63672L54.1816 9.54102C53.457 9.39974 52.9284 9.16276 52.5957 8.83008C52.263 8.49284 52.0967 8.03483 52.0967 7.45605C52.0967 6.72233 52.3451 6.15723 52.8418 5.76074C53.3385 5.3597 54.0472 5.15918 54.9678 5.15918C55.3779 5.15918 55.7721 5.19792 56.1504 5.27539C56.5286 5.34831 56.9001 5.45996 57.2646 5.61035ZM61.209 5.37109H64.4287V12.0225H66.9238V13H60.6758V12.0225H63.1709V6.34863H61.209V5.37109ZM63.1709 2.39746H64.4287V3.9834H63.1709V2.39746ZM71.6816 3.16992V5.34375H74.5391V6.32129H71.6816V10.4775C71.6816 11.0426 71.7887 11.4368 72.0029 11.6602C72.2171 11.8835 72.5908 11.9951 73.124 11.9951H74.5391V13H73.001C72.0576 13 71.3923 12.8109 71.0049 12.4326C70.6175 12.0544 70.4238 11.4027 70.4238 10.4775V6.32129H68.3799V5.34375H70.4238V3.16992H71.6816ZM78.0801 5.37109H81.2998V12.0225H83.7949V13H77.5469V12.0225H80.042V6.34863H78.0801V5.37109ZM80.042 2.39746H81.2998V3.9834H80.042V2.39746ZM85.0391 5.34375H86.3447L88.5664 11.7695L90.7949 5.34375H92.1006L89.3799 13H87.7598L85.0391 5.34375ZM100.447 8.54297V9.1582H94.999V9.19922C94.9626 10.2428 95.1608 10.9925 95.5938 11.4482C96.0312 11.904 96.6465 12.1318 97.4395 12.1318C97.8405 12.1318 98.2598 12.068 98.6973 11.9404C99.1348 11.8128 99.6019 11.6191 100.099 11.3594V12.6104C99.6201 12.8063 99.1576 12.9521 98.7109 13.0479C98.2689 13.1481 97.8405 13.1982 97.4258 13.1982C96.2363 13.1982 95.3066 12.8428 94.6367 12.1318C93.9668 11.4163 93.6318 10.432 93.6318 9.17871C93.6318 7.95736 93.96 6.9821 94.6162 6.25293C95.2725 5.52376 96.1475 5.15918 97.2412 5.15918C98.2165 5.15918 98.9844 5.48958 99.5449 6.15039C100.11 6.8112 100.411 7.60872 100.447 8.54297ZM99.1895 8.17383C99.1348 7.64518 98.9411 7.18945 98.6084 6.80664C98.2803 6.41927 97.8063 6.22559 97.1865 6.22559C96.5804 6.22559 96.0814 6.42611 95.6895 6.82715C95.2975 7.22819 95.0833 7.67936 95.0469 8.18066L99.1895 8.17383ZM116.929 2.36328V3.40918H115.5C115.049 3.40918 114.734 3.5026 114.557 3.68945C114.383 3.87174 114.297 4.19759 114.297 4.66699V5.34375H116.929V6.32129H114.297V13H113.039V6.32129H110.995V5.34375H113.039V4.81055C113.039 3.97201 113.23 3.35449 113.613 2.95801C114.001 2.56152 114.602 2.36328 115.418 2.36328H116.929ZM125.754 8.54297V9.1582H120.306V9.19922C120.269 10.2428 120.467 10.9925 120.9 11.4482C121.338 11.904 121.953 12.1318 122.746 12.1318C123.147 12.1318 123.566 12.068 124.004 11.9404C124.441 11.8128 124.909 11.6191 125.405 11.3594V12.6104C124.927 12.8063 124.464 12.9521 124.018 13.0479C123.576 13.1481 123.147 13.1982 122.732 13.1982C121.543 13.1982 120.613 12.8428 119.943 12.1318C119.273 11.4163 118.938 10.432 118.938 9.17871C118.938 7.95736 119.267 6.9821 119.923 6.25293C120.579 5.52376 121.454 5.15918 122.548 5.15918C123.523 5.15918 124.291 5.48958 124.852 6.15039C125.417 6.8112 125.717 7.60872 125.754 8.54297ZM124.496 8.17383C124.441 7.64518 124.248 7.18945 123.915 6.80664C123.587 6.41927 123.113 6.22559 122.493 6.22559C121.887 6.22559 121.388 6.42611 120.996 6.82715C120.604 7.22819 120.39 7.67936 120.354 8.18066L124.496 8.17383ZM134.189 8.54297V9.1582H128.741V9.19922C128.705 10.2428 128.903 10.9925 129.336 11.4482C129.773 11.904 130.389 12.1318 131.182 12.1318C131.583 12.1318 132.002 12.068 132.439 11.9404C132.877 11.8128 133.344 11.6191 133.841 11.3594V12.6104C133.362 12.8063 132.9 12.9521 132.453 13.0479C132.011 13.1481 131.583 13.1982 131.168 13.1982C129.979 13.1982 129.049 12.8428 128.379 12.1318C127.709 11.4163 127.374 10.432 127.374 9.17871C127.374 7.95736 127.702 6.9821 128.358 6.25293C129.015 5.52376 129.89 5.15918 130.983 5.15918C131.959 5.15918 132.727 5.48958 133.287 6.15039C133.852 6.8112 134.153 7.60872 134.189 8.54297ZM132.932 8.17383C132.877 7.64518 132.683 7.18945 132.351 6.80664C132.022 6.41927 131.549 6.22559 130.929 6.22559C130.323 6.22559 129.824 6.42611 129.432 6.82715C129.04 7.22819 128.826 7.67936 128.789 8.18066L132.932 8.17383ZM139.884 10.2314C139.884 10.7965 139.986 11.2227 140.191 11.5098C140.401 11.7969 140.709 11.9404 141.114 11.9404H142.584V13H140.991C140.239 13 139.656 12.7607 139.241 12.2822C138.831 11.7992 138.626 11.1156 138.626 10.2314V3.30664H136.609V2.32227H139.884V10.2314ZM145.564 5.37109H148.784V12.0225H151.279V13H145.031V12.0225H147.526V6.34863H145.564V5.37109ZM147.526 2.39746H148.784V3.9834H147.526V2.39746ZM159.024 8.25586V13H157.76V8.25586C157.76 7.56771 157.639 7.06185 157.397 6.73828C157.156 6.41471 156.778 6.25293 156.263 6.25293C155.675 6.25293 155.221 6.46257 154.902 6.88184C154.588 7.29655 154.431 7.89355 154.431 8.67285V13H153.173V5.34375H154.431V6.49219C154.654 6.05469 154.957 5.72428 155.34 5.50098C155.723 5.27311 156.176 5.15918 156.7 5.15918C157.479 5.15918 158.061 5.41667 158.443 5.93164C158.831 6.44206 159.024 7.2168 159.024 8.25586ZM166.141 9.11035C166.141 8.16699 165.986 7.4515 165.676 6.96387C165.37 6.47168 164.924 6.22559 164.336 6.22559C163.721 6.22559 163.251 6.47168 162.928 6.96387C162.604 7.4515 162.442 8.16699 162.442 9.11035C162.442 10.0537 162.604 10.7738 162.928 11.2705C163.256 11.7627 163.73 12.0088 164.35 12.0088C164.928 12.0088 165.37 11.7604 165.676 11.2637C165.986 10.7669 166.141 10.0492 166.141 9.11035ZM167.398 12.5078C167.398 13.6562 167.127 14.5267 166.585 15.1191C166.043 15.7116 165.245 16.0078 164.192 16.0078C163.846 16.0078 163.484 15.9759 163.105 15.9121C162.727 15.8483 162.349 15.7549 161.971 15.6318V14.3877C162.417 14.5973 162.823 14.7523 163.188 14.8525C163.552 14.9528 163.887 15.0029 164.192 15.0029C164.871 15.0029 165.366 14.8184 165.676 14.4492C165.986 14.0801 166.141 13.4945 166.141 12.6924V12.6377V11.7832C165.94 12.2116 165.667 12.5306 165.32 12.7402C164.974 12.9499 164.552 13.0547 164.056 13.0547C163.162 13.0547 162.449 12.6969 161.916 11.9814C161.383 11.266 161.116 10.3089 161.116 9.11035C161.116 7.90723 161.383 6.94792 161.916 6.23242C162.449 5.51693 163.162 5.15918 164.056 5.15918C164.548 5.15918 164.965 5.25716 165.307 5.45312C165.648 5.64909 165.926 5.95215 166.141 6.3623V5.37109H167.398V12.5078ZM175.362 5.61035V6.84082C175.002 6.63118 174.64 6.47396 174.275 6.36914C173.911 6.26432 173.539 6.21191 173.161 6.21191C172.591 6.21191 172.165 6.30534 171.883 6.49219C171.605 6.67448 171.466 6.95475 171.466 7.33301C171.466 7.6748 171.571 7.93001 171.78 8.09863C171.99 8.26725 172.512 8.43132 173.346 8.59082L173.852 8.68652C174.476 8.80501 174.948 9.04199 175.267 9.39746C175.59 9.75293 175.752 10.2155 175.752 10.7852C175.752 11.5417 175.483 12.1341 174.945 12.5625C174.408 12.9863 173.66 13.1982 172.703 13.1982C172.325 13.1982 171.928 13.1572 171.514 13.0752C171.099 12.9977 170.65 12.8792 170.167 12.7197V11.4209C170.636 11.6624 171.085 11.8447 171.514 11.9678C171.942 12.0863 172.348 12.1455 172.73 12.1455C173.286 12.1455 173.717 12.0339 174.022 11.8105C174.328 11.5827 174.48 11.266 174.48 10.8604C174.48 10.277 173.922 9.8737 172.806 9.65039L172.751 9.63672L172.279 9.54102C171.555 9.39974 171.026 9.16276 170.693 8.83008C170.361 8.49284 170.194 8.03483 170.194 7.45605C170.194 6.72233 170.443 6.15723 170.939 5.76074C171.436 5.3597 172.145 5.15918 173.065 5.15918C173.476 5.15918 173.87 5.19792 174.248 5.27539C174.626 5.34831 174.998 5.45996 175.362 5.61035ZM179.525 1.69336H180.619C181.307 2.76888 181.82 3.82161 182.157 4.85156C182.494 5.88151 182.663 6.90462 182.663 7.9209C182.663 8.94629 182.494 9.97396 182.157 11.0039C181.82 12.0339 181.307 13.0866 180.619 14.1621H179.525C180.132 13.1048 180.583 12.0589 180.879 11.0244C181.18 9.98991 181.33 8.9554 181.33 7.9209C181.33 6.88184 181.18 5.84505 180.879 4.81055C180.583 3.77604 180.132 2.73698 179.525 1.69336Z" fill="#CEBCD4"/>
<path d="M67.2158 239.59V243.603H68.8496C69.6517 243.603 70.2236 243.464 70.5654 243.186C70.9072 242.903 71.0781 242.441 71.0781 241.798C71.0781 240.951 70.8981 240.372 70.5381 240.062C70.1781 239.747 69.6152 239.59 68.8496 239.59H67.2158ZM67.2158 235.666V238.469H68.8223C69.4876 238.469 69.9684 238.341 70.2646 238.086C70.5654 237.831 70.7158 237.51 70.7158 237.122C70.7158 236.607 70.5677 236.236 70.2715 236.008C69.9798 235.78 69.4967 235.666 68.8223 235.666H67.2158ZM65.8281 234.532H68.8496C69.8932 234.532 70.6976 234.757 71.2627 235.208C71.8278 235.659 72.1104 236.298 72.1104 237.122C72.1104 237.564 71.96 237.965 71.6592 238.326C71.363 238.686 70.9163 238.911 70.3193 239.002C70.9893 239.103 71.5133 239.39 71.8916 239.864C72.2744 240.333 72.4658 241.023 72.4658 241.935C72.4658 242.86 72.1628 243.56 71.5566 244.034C70.9505 244.503 70.0482 244.738 68.8496 244.738H65.8281V234.532ZM80.7852 240.281V240.896H75.3369V240.937C75.3005 241.98 75.4987 242.73 75.9316 243.186C76.3691 243.642 76.9844 243.869 77.7773 243.869C78.1784 243.869 78.5977 243.806 79.0352 243.678C79.4727 243.55 79.9398 243.357 80.4365 243.097V244.348C79.958 244.544 79.4954 244.69 79.0488 244.785C78.6068 244.886 78.1784 244.936 77.7637 244.936C76.5742 244.936 75.6445 244.58 74.9746 243.869C74.3047 243.154 73.9697 242.17 73.9697 240.916C73.9697 239.695 74.2979 238.72 74.9541 237.991C75.6104 237.261 76.4854 236.897 77.5791 236.897C78.5544 236.897 79.3223 237.227 79.8828 237.888C80.4479 238.549 80.7487 239.346 80.7852 240.281ZM79.5273 239.911C79.4727 239.383 79.279 238.927 78.9463 238.544C78.6182 238.157 78.1442 237.963 77.5244 237.963C76.9183 237.963 76.4193 238.164 76.0273 238.565C75.6354 238.966 75.4212 239.417 75.3848 239.918L79.5273 239.911ZM88.8311 234.101V235.147H87.4023C86.9512 235.147 86.6367 235.24 86.459 235.427C86.2858 235.609 86.1992 235.935 86.1992 236.405V237.081H88.8311V238.059H86.1992V244.738H84.9414V238.059H82.8975V237.081H84.9414V236.548C84.9414 235.71 85.1328 235.092 85.5156 234.696C85.903 234.299 86.5046 234.101 87.3203 234.101H88.8311ZM94.2109 237.963C93.5729 237.963 93.0898 238.212 92.7617 238.708C92.4336 239.205 92.2695 239.941 92.2695 240.916C92.2695 241.887 92.4336 242.623 92.7617 243.124C93.0898 243.621 93.5729 243.869 94.2109 243.869C94.8535 243.869 95.3389 243.621 95.667 243.124C95.9951 242.623 96.1592 241.887 96.1592 240.916C96.1592 239.941 95.9951 239.205 95.667 238.708C95.3389 238.212 94.8535 237.963 94.2109 237.963ZM94.2109 236.897C95.2728 236.897 96.084 237.241 96.6445 237.929C97.2096 238.617 97.4922 239.613 97.4922 240.916C97.4922 242.224 97.2119 243.222 96.6514 243.91C96.0908 244.594 95.2773 244.936 94.2109 244.936C93.1491 244.936 92.3379 244.594 91.7773 243.91C91.2168 243.222 90.9365 242.224 90.9365 240.916C90.9365 239.613 91.2168 238.617 91.7773 237.929C92.3379 237.241 93.1491 236.897 94.2109 236.897ZM106.331 238.66C106.062 238.451 105.789 238.298 105.511 238.202C105.233 238.107 104.927 238.059 104.595 238.059C103.811 238.059 103.212 238.305 102.797 238.797C102.382 239.289 102.175 240 102.175 240.93V244.738H100.91V237.081H102.175V238.578C102.384 238.036 102.706 237.621 103.139 237.334C103.576 237.043 104.093 236.897 104.69 236.897C105 236.897 105.29 236.936 105.559 237.013C105.827 237.09 106.085 237.211 106.331 237.375V238.66ZM114.527 240.281V240.896H109.079V240.937C109.043 241.98 109.241 242.73 109.674 243.186C110.111 243.642 110.727 243.869 111.52 243.869C111.921 243.869 112.34 243.806 112.777 243.678C113.215 243.55 113.682 243.357 114.179 243.097V244.348C113.7 244.544 113.238 244.69 112.791 244.785C112.349 244.886 111.921 244.936 111.506 244.936C110.316 244.936 109.387 244.58 108.717 243.869C108.047 243.154 107.712 242.17 107.712 240.916C107.712 239.695 108.04 238.72 108.696 237.991C109.353 237.261 110.228 236.897 111.321 236.897C112.297 236.897 113.064 237.227 113.625 237.888C114.19 238.549 114.491 239.346 114.527 240.281ZM113.27 239.911C113.215 239.383 113.021 238.927 112.688 238.544C112.36 238.157 111.886 237.963 111.267 237.963C110.66 237.963 110.161 238.164 109.77 238.565C109.378 238.966 109.163 239.417 109.127 239.918L113.27 239.911Z" fill="#CEBCD4"/>
<path d="M150.434 239.342V243.355H152.067C152.869 243.355 153.441 243.216 153.783 242.938C154.125 242.655 154.296 242.193 154.296 241.55C154.296 240.702 154.116 240.123 153.756 239.814C153.396 239.499 152.833 239.342 152.067 239.342H150.434ZM150.434 235.418V238.221H152.04C152.705 238.221 153.186 238.093 153.482 237.838C153.783 237.583 153.934 237.262 153.934 236.874C153.934 236.359 153.785 235.988 153.489 235.76C153.198 235.532 152.715 235.418 152.04 235.418H150.434ZM149.046 234.283H152.067C153.111 234.283 153.915 234.509 154.48 234.96C155.046 235.411 155.328 236.049 155.328 236.874C155.328 237.316 155.178 237.717 154.877 238.077C154.581 238.437 154.134 238.663 153.537 238.754C154.207 238.854 154.731 239.141 155.109 239.615C155.492 240.085 155.684 240.775 155.684 241.687C155.684 242.612 155.381 243.311 154.774 243.785C154.168 244.255 153.266 244.489 152.067 244.489H149.046V234.283ZM164.003 240.032V240.648H158.555V240.689C158.518 241.732 158.716 242.482 159.149 242.938C159.587 243.393 160.202 243.621 160.995 243.621C161.396 243.621 161.815 243.557 162.253 243.43C162.69 243.302 163.158 243.109 163.654 242.849V244.1C163.176 244.296 162.713 244.442 162.267 244.537C161.825 244.637 161.396 244.688 160.981 244.688C159.792 244.688 158.862 244.332 158.192 243.621C157.522 242.906 157.188 241.921 157.188 240.668C157.188 239.447 157.516 238.471 158.172 237.742C158.828 237.013 159.703 236.649 160.797 236.649C161.772 236.649 162.54 236.979 163.101 237.64C163.666 238.301 163.966 239.098 164.003 240.032ZM162.745 239.663C162.69 239.135 162.497 238.679 162.164 238.296C161.836 237.909 161.362 237.715 160.742 237.715C160.136 237.715 159.637 237.915 159.245 238.317C158.853 238.718 158.639 239.169 158.603 239.67L162.745 239.663ZM170.647 240.6C170.647 239.656 170.493 238.941 170.183 238.453C169.877 237.961 169.431 237.715 168.843 237.715C168.228 237.715 167.758 237.961 167.435 238.453C167.111 238.941 166.949 239.656 166.949 240.6C166.949 241.543 167.111 242.263 167.435 242.76C167.763 243.252 168.237 243.498 168.856 243.498C169.435 243.498 169.877 243.25 170.183 242.753C170.493 242.256 170.647 241.539 170.647 240.6ZM171.905 243.997C171.905 245.146 171.634 246.016 171.092 246.609C170.549 247.201 169.752 247.497 168.699 247.497C168.353 247.497 167.991 247.465 167.612 247.401C167.234 247.338 166.856 247.244 166.478 247.121V245.877C166.924 246.087 167.33 246.242 167.694 246.342C168.059 246.442 168.394 246.492 168.699 246.492C169.378 246.492 169.873 246.308 170.183 245.939C170.493 245.569 170.647 244.984 170.647 244.182V244.127V243.273C170.447 243.701 170.174 244.02 169.827 244.23C169.481 244.439 169.059 244.544 168.562 244.544C167.669 244.544 166.956 244.186 166.423 243.471C165.89 242.755 165.623 241.798 165.623 240.6C165.623 239.397 165.89 238.437 166.423 237.722C166.956 237.006 167.669 236.649 168.562 236.649C169.055 236.649 169.472 236.747 169.813 236.943C170.155 237.138 170.433 237.442 170.647 237.852V236.86H171.905V243.997ZM175.378 236.86H178.598V243.512H181.093V244.489H174.845V243.512H177.34V237.838H175.378V236.86ZM177.34 233.887H178.598V235.473H177.34V233.887ZM188.838 239.745V244.489H187.573V239.745C187.573 239.057 187.452 238.551 187.211 238.228C186.969 237.904 186.591 237.742 186.076 237.742C185.488 237.742 185.035 237.952 184.716 238.371C184.401 238.786 184.244 239.383 184.244 240.162V244.489H182.986V236.833H184.244V237.982C184.467 237.544 184.771 237.214 185.153 236.99C185.536 236.762 185.99 236.649 186.514 236.649C187.293 236.649 187.874 236.906 188.257 237.421C188.644 237.931 188.838 238.706 188.838 239.745Z" fill="#CEBCD4"/>
<path d="M225.939 234.318H227.785L229.549 239.499L231.326 234.318H233.179V244.489H231.9V235.5L230.082 240.859H229.036L227.211 235.5V244.489H225.939V234.318ZM236.289 236.86H239.509V243.512H242.004V244.489H235.756V243.512H238.251V237.838H236.289V236.86ZM238.251 233.887H239.509V235.473H238.251V233.887ZM248.43 237.811V233.853H249.688V244.489H248.43V243.526C248.22 243.904 247.94 244.193 247.589 244.394C247.243 244.59 246.841 244.688 246.386 244.688C245.461 244.688 244.731 244.33 244.198 243.614C243.67 242.894 243.405 241.903 243.405 240.641C243.405 239.397 243.672 238.421 244.205 237.715C244.738 237.004 245.465 236.649 246.386 236.649C246.846 236.649 247.252 236.749 247.603 236.949C247.953 237.145 248.229 237.432 248.43 237.811ZM244.731 240.668C244.731 241.643 244.886 242.379 245.196 242.876C245.506 243.373 245.964 243.621 246.57 243.621C247.176 243.621 247.637 243.371 247.951 242.869C248.27 242.368 248.43 241.634 248.43 240.668C248.43 239.697 248.27 238.964 247.951 238.467C247.637 237.966 247.176 237.715 246.57 237.715C245.964 237.715 245.506 237.963 245.196 238.46C244.886 238.957 244.731 239.693 244.731 240.668ZM256.865 237.811V233.853H258.123V244.489H256.865V243.526C256.656 243.904 256.375 244.193 256.024 244.394C255.678 244.59 255.277 244.688 254.821 244.688C253.896 244.688 253.167 244.33 252.634 243.614C252.105 242.894 251.841 241.903 251.841 240.641C251.841 239.397 252.107 238.421 252.641 237.715C253.174 237.004 253.901 236.649 254.821 236.649C255.282 236.649 255.687 236.749 256.038 236.949C256.389 237.145 256.665 237.432 256.865 237.811ZM253.167 240.668C253.167 241.643 253.322 242.379 253.632 242.876C253.942 243.373 254.4 243.621 255.006 243.621C255.612 243.621 256.072 243.371 256.387 242.869C256.706 242.368 256.865 241.634 256.865 240.668C256.865 239.697 256.706 238.964 256.387 238.467C256.072 237.966 255.612 237.715 255.006 237.715C254.4 237.715 253.942 237.963 253.632 238.46C253.322 238.957 253.167 239.693 253.167 240.668ZM264.351 241.721C264.351 242.286 264.453 242.712 264.658 242.999C264.868 243.286 265.175 243.43 265.581 243.43H267.051V244.489H265.458C264.706 244.489 264.123 244.25 263.708 243.772C263.298 243.289 263.093 242.605 263.093 241.721V234.796H261.076V233.812H264.351V241.721ZM275.527 240.032V240.648H270.079V240.689C270.043 241.732 270.241 242.482 270.674 242.938C271.111 243.393 271.727 243.621 272.52 243.621C272.921 243.621 273.34 243.557 273.777 243.43C274.215 243.302 274.682 243.109 275.179 242.849V244.1C274.7 244.296 274.238 244.442 273.791 244.537C273.349 244.637 272.921 244.688 272.506 244.688C271.316 244.688 270.387 244.332 269.717 243.621C269.047 242.906 268.712 241.921 268.712 240.668C268.712 239.447 269.04 238.471 269.696 237.742C270.353 237.013 271.228 236.649 272.321 236.649C273.297 236.649 274.064 236.979 274.625 237.64C275.19 238.301 275.491 239.098 275.527 240.032ZM274.27 239.663C274.215 239.135 274.021 238.679 273.688 238.296C273.36 237.909 272.886 237.715 272.267 237.715C271.66 237.715 271.161 237.915 270.77 238.317C270.378 238.718 270.163 239.169 270.127 239.67L274.27 239.663Z" fill="#CEBCD4"/>
<path d="M322.693 234.283H328.75V235.445H324.074V238.193H328.545V239.356H324.074V243.327H328.88V244.489H322.693V234.283ZM336.967 239.745V244.489H335.702V239.745C335.702 239.057 335.581 238.551 335.34 238.228C335.098 237.904 334.72 237.742 334.205 237.742C333.617 237.742 333.164 237.952 332.845 238.371C332.53 238.786 332.373 239.383 332.373 240.162V244.489H331.115V236.833H332.373V237.982C332.596 237.544 332.899 237.214 333.282 236.99C333.665 236.762 334.118 236.649 334.643 236.649C335.422 236.649 336.003 236.906 336.386 237.421C336.773 237.931 336.967 238.706 336.967 239.745ZM344.083 237.811V233.853H345.341V244.489H344.083V243.526C343.873 243.904 343.593 244.193 343.242 244.394C342.896 244.59 342.495 244.688 342.039 244.688C341.114 244.688 340.385 244.33 339.852 243.614C339.323 242.894 339.059 241.903 339.059 240.641C339.059 239.397 339.325 238.421 339.858 237.715C340.392 237.004 341.118 236.649 342.039 236.649C342.499 236.649 342.905 236.749 343.256 236.949C343.607 237.145 343.882 237.432 344.083 237.811ZM340.385 240.668C340.385 241.643 340.54 242.379 340.85 242.876C341.16 243.373 341.618 243.621 342.224 243.621C342.83 243.621 343.29 243.371 343.604 242.869C343.924 242.368 344.083 241.634 344.083 240.668C344.083 239.697 343.924 238.964 343.604 238.467C343.29 237.966 342.83 237.715 342.224 237.715C341.618 237.715 341.16 237.963 340.85 238.46C340.54 238.957 340.385 239.693 340.385 240.668Z" fill="#CEBCD4"/>
<path d="M81.7812 80.6718V82.1249C81.4531 81.9322 81.1042 81.7863 80.7344 81.6874C80.3646 81.5832 79.9792 81.5311 79.5781 81.5311C78.5781 81.5311 77.8203 81.9087 77.3047 82.6639C76.7891 83.4139 76.5312 84.5207 76.5312 85.9843C76.7812 85.4634 77.1276 85.065 77.5703 84.7889C78.013 84.5077 78.5208 84.3671 79.0938 84.3671C80.2188 84.3671 81.0885 84.7134 81.7031 85.4061C82.3229 86.0936 82.6328 87.0702 82.6328 88.3358C82.6328 89.5962 82.3151 90.5728 81.6797 91.2655C81.0443 91.9582 80.151 92.3046 79 92.3046C77.6458 92.3046 76.6536 91.8202 76.0234 90.8514C75.3932 89.8775 75.0781 88.3462 75.0781 86.2577C75.0781 84.2889 75.4557 82.7889 76.2109 81.7577C76.9714 80.7212 78.0703 80.203 79.5078 80.203C79.8932 80.203 80.2786 80.2447 80.6641 80.328C81.0495 80.4061 81.4219 80.5207 81.7812 80.6718ZM78.9688 85.6014C78.2969 85.6014 77.7682 85.8436 77.3828 86.328C76.9974 86.8124 76.8047 87.4816 76.8047 88.3358C76.8047 89.19 76.9974 89.8593 77.3828 90.3436C77.7682 90.828 78.2969 91.0702 78.9688 91.0702C79.6667 91.0702 80.1927 90.841 80.5469 90.3827C80.901 89.9191 81.0781 89.2369 81.0781 88.3358C81.0781 87.4296 80.901 86.7473 80.5469 86.2889C80.1927 85.8306 79.6667 85.6014 78.9688 85.6014ZM86.7188 88.9218H89.4688V92.078H86.7188V88.9218ZM95.4297 90.7577H97.8828V81.9452L94.9453 83.3593V81.8436L97.8672 80.453H99.4453V90.7577H101.867V92.078H95.4297V90.7577Z" fill="#FF6BAB"/>
<path d="M163.781 80.6718V82.1249C163.453 81.9322 163.104 81.7863 162.734 81.6874C162.365 81.5832 161.979 81.5311 161.578 81.5311C160.578 81.5311 159.82 81.9087 159.305 82.6639C158.789 83.4139 158.531 84.5207 158.531 85.9843C158.781 85.4634 159.128 85.065 159.57 84.7889C160.013 84.5077 160.521 84.3671 161.094 84.3671C162.219 84.3671 163.089 84.7134 163.703 85.4061C164.323 86.0936 164.633 87.0702 164.633 88.3358C164.633 89.5962 164.315 90.5728 163.68 91.2655C163.044 91.9582 162.151 92.3046 161 92.3046C159.646 92.3046 158.654 91.8202 158.023 90.8514C157.393 89.8775 157.078 88.3462 157.078 86.2577C157.078 84.2889 157.456 82.7889 158.211 81.7577C158.971 80.7212 160.07 80.203 161.508 80.203C161.893 80.203 162.279 80.2447 162.664 80.328C163.049 80.4061 163.422 80.5207 163.781 80.6718ZM160.969 85.6014C160.297 85.6014 159.768 85.8436 159.383 86.328C158.997 86.8124 158.805 87.4816 158.805 88.3358C158.805 89.19 158.997 89.8593 159.383 90.3436C159.768 90.828 160.297 91.0702 160.969 91.0702C161.667 91.0702 162.193 90.841 162.547 90.3827C162.901 89.9191 163.078 89.2369 163.078 88.3358C163.078 87.4296 162.901 86.7473 162.547 86.2889C162.193 85.8306 161.667 85.6014 160.969 85.6014ZM168.719 88.9218H171.469V92.078H168.719V88.9218ZM178.234 90.7499H183.594V92.078H176.508V90.7499C177.482 89.7238 178.333 88.8176 179.062 88.0311C179.792 87.2447 180.294 86.69 180.57 86.3671C181.091 85.7316 181.443 85.2186 181.625 84.828C181.807 84.4322 181.898 84.0285 181.898 83.6171C181.898 82.966 181.706 82.4556 181.32 82.0858C180.94 81.716 180.417 81.5311 179.75 81.5311C179.276 81.5311 178.779 81.6171 178.258 81.7889C177.737 81.9608 177.185 82.2212 176.602 82.5702V80.9764C177.138 80.7212 177.664 80.5285 178.18 80.3983C178.701 80.2681 179.214 80.203 179.719 80.203C180.859 80.203 181.776 80.5077 182.469 81.1171C183.167 81.7212 183.516 82.5155 183.516 83.4999C183.516 83.9999 183.398 84.4999 183.164 84.9999C182.935 85.4999 182.56 86.052 182.039 86.6561C181.747 86.9947 181.323 87.4634 180.766 88.0624C180.214 88.6613 179.37 89.5572 178.234 90.7499Z" fill="#FF9393"/>
<path d="M244.781 63.154V64.6072C244.453 64.4145 244.104 64.2686 243.734 64.1697C243.365 64.0655 242.979 64.0134 242.578 64.0134C241.578 64.0134 240.82 64.391 240.305 65.1462C239.789 65.8962 239.531 67.003 239.531 68.4665C239.781 67.9457 240.128 67.5473 240.57 67.2712C241.013 66.99 241.521 66.8493 242.094 66.8493C243.219 66.8493 244.089 67.1957 244.703 67.8884C245.323 68.5759 245.633 69.5525 245.633 70.8181C245.633 72.0785 245.315 73.0551 244.68 73.7478C244.044 74.4405 243.151 74.7868 242 74.7868C240.646 74.7868 239.654 74.3025 239.023 73.3337C238.393 72.3598 238.078 70.8285 238.078 68.74C238.078 66.7712 238.456 65.2712 239.211 64.24C239.971 63.2035 241.07 62.6853 242.508 62.6853C242.893 62.6853 243.279 62.727 243.664 62.8103C244.049 62.8884 244.422 63.003 244.781 63.154ZM241.969 68.0837C241.297 68.0837 240.768 68.3259 240.383 68.8103C239.997 69.2947 239.805 69.9639 239.805 70.8181C239.805 71.6723 239.997 72.3415 240.383 72.8259C240.768 73.3103 241.297 73.5525 241.969 73.5525C242.667 73.5525 243.193 73.3233 243.547 72.865C243.901 72.4014 244.078 71.7191 244.078 70.8181C244.078 69.9118 243.901 69.2296 243.547 68.7712C243.193 68.3129 242.667 68.0837 241.969 68.0837ZM249.719 71.404H252.469V74.5603H249.719V71.404ZM260.977 69.3884C261.648 69.3884 262.174 69.1462 262.555 68.6618C262.94 68.1775 263.133 67.5082 263.133 66.654C263.133 65.7999 262.94 65.1306 262.555 64.6462C262.174 64.1618 261.648 63.9197 260.977 63.9197C260.279 63.9197 259.753 64.1514 259.398 64.615C259.044 65.0733 258.867 65.753 258.867 66.654C258.867 67.5603 259.042 68.2426 259.391 68.7009C259.745 69.1592 260.273 69.3884 260.977 69.3884ZM258.164 74.3181V72.865C258.492 73.0577 258.841 73.2061 259.211 73.3103C259.581 73.4092 259.966 73.4587 260.367 73.4587C261.367 73.4587 262.122 73.0837 262.633 72.3337C263.148 71.5785 263.406 70.4691 263.406 69.0056C263.161 69.5264 262.818 69.9275 262.375 70.2087C261.932 70.4848 261.424 70.6228 260.852 70.6228C259.727 70.6228 258.854 70.2764 258.234 69.5837C257.62 68.891 257.312 67.9092 257.312 66.6384C257.312 65.3832 257.628 64.4118 258.258 63.7243C258.893 63.0316 259.789 62.6853 260.945 62.6853C262.299 62.6853 263.292 63.1723 263.922 64.1462C264.552 65.1202 264.867 66.6514 264.867 68.74C264.867 70.7035 264.487 72.2035 263.727 73.24C262.971 74.2712 261.872 74.7868 260.43 74.7868C260.049 74.7868 259.667 74.7452 259.281 74.6618C258.896 74.5837 258.523 74.4691 258.164 74.3181Z" fill="#EAAD57"/>
<path d="M319.125 54.1374H326.469V54.8092L322.297 65.8014H320.648L324.711 55.4655H319.125V54.1374ZM330.719 62.6452H333.469V65.8014H330.719V62.6452ZM343.062 55.5749L339.383 61.7389H343.062V55.5749ZM342.805 54.1374H344.633V61.7389H346.188V63.0202H344.633V65.8014H343.062V63.0202H338.117V61.528L342.805 54.1374Z" fill="#EDE977"/>
</g>
<defs>
<clipPath id="clip0_5_27">
<rect width="400" height="247" fill="white"/>
</clipPath>
</defs>
</svg>
