<svg width="400" height="290" viewBox="0 0 400 290" fill="none" xmlns="http://www.w3.org/2000/svg">
<rect x="1" y="5" width="11" height="11" fill="#BC75D9"/>
<rect x="104" y="5" width="11" height="11" fill="#EDE977"/>
<path d="M19.3423 10.2202V13.9463H20.8594C21.6042 13.9463 22.1353 13.8172 22.4526 13.5591C22.77 13.2967 22.9287 12.8672 22.9287 12.2705C22.9287 11.4834 22.7616 10.946 22.4272 10.6582C22.0929 10.3662 21.5703 10.2202 20.8594 10.2202H19.3423ZM19.3423 6.57666V9.1792H20.834C21.4518 9.1792 21.8983 9.06071 22.1733 8.82373C22.4526 8.58675 22.5923 8.28841 22.5923 7.92871C22.5923 7.45052 22.4548 7.10563 22.1797 6.89404C21.9089 6.68245 21.4603 6.57666 20.834 6.57666H19.3423ZM18.0537 5.52295H20.8594C21.8285 5.52295 22.5754 5.73242 23.1001 6.15137C23.6248 6.57031 23.8872 7.16276 23.8872 7.92871C23.8872 8.33919 23.7476 8.71159 23.4683 9.0459C23.1932 9.38021 22.7785 9.58968 22.2241 9.67432C22.8462 9.76742 23.3328 10.034 23.6841 10.4741C24.0396 10.91 24.2173 11.5511 24.2173 12.3975C24.2173 13.2565 23.9359 13.9061 23.373 14.3462C22.8102 14.7821 21.9723 15 20.8594 15H18.0537V5.52295ZM31.9424 10.8613V11.4326H26.8833V11.4707C26.8494 12.4398 27.0335 13.1359 27.4355 13.5591C27.8418 13.9823 28.4131 14.1938 29.1494 14.1938C29.5218 14.1938 29.9111 14.1346 30.3174 14.0161C30.7236 13.8976 31.1574 13.7178 31.6187 13.4766V14.6382C31.1743 14.8201 30.7448 14.9556 30.3301 15.0444C29.9196 15.1375 29.5218 15.1841 29.1367 15.1841C28.0322 15.1841 27.1689 14.854 26.5469 14.1938C25.9248 13.5295 25.6138 12.6154 25.6138 11.4517C25.6138 10.3175 25.9185 9.41195 26.5278 8.73486C27.1372 8.05778 27.9497 7.71924 28.9653 7.71924C29.8709 7.71924 30.584 8.02604 31.1045 8.63965C31.6292 9.25326 31.9085 9.99382 31.9424 10.8613ZM30.7744 10.5186C30.7236 10.0277 30.5438 9.60449 30.2349 9.24902C29.9302 8.88932 29.4901 8.70947 28.9146 8.70947C28.3517 8.70947 27.8883 8.89567 27.5244 9.26807C27.1605 9.64046 26.9616 10.0594 26.9277 10.5249L30.7744 10.5186ZM38.1123 11.3882C38.1123 10.5122 37.9684 9.84782 37.6807 9.39502C37.3971 8.93799 36.9824 8.70947 36.4365 8.70947C35.8652 8.70947 35.4294 8.93799 35.1289 9.39502C34.8285 9.84782 34.6782 10.5122 34.6782 11.3882C34.6782 12.2642 34.8285 12.9328 35.1289 13.394C35.4336 13.8511 35.8737 14.0796 36.4492 14.0796C36.9867 14.0796 37.3971 13.849 37.6807 13.3877C37.9684 12.9264 38.1123 12.2599 38.1123 11.3882ZM39.2803 14.543C39.2803 15.6094 39.0285 16.4176 38.5249 16.9678C38.0213 17.5179 37.2808 17.793 36.3032 17.793C35.9816 17.793 35.6452 17.7633 35.2939 17.7041C34.9427 17.6449 34.5915 17.5581 34.2402 17.4438V16.2886C34.6549 16.4832 35.0316 16.6271 35.3701 16.7202C35.7087 16.8133 36.0197 16.8599 36.3032 16.8599C36.9338 16.8599 37.3929 16.6885 37.6807 16.3457C37.9684 16.0029 38.1123 15.4591 38.1123 14.7144V14.6636V13.8701C37.9261 14.2679 37.6722 14.5641 37.3506 14.7588C37.029 14.9535 36.6375 15.0508 36.1763 15.0508C35.3468 15.0508 34.6846 14.7186 34.1895 14.0542C33.6943 13.3898 33.4468 12.5011 33.4468 11.3882C33.4468 10.271 33.6943 9.38021 34.1895 8.71582C34.6846 8.05143 35.3468 7.71924 36.1763 7.71924C36.6333 7.71924 37.0205 7.81022 37.3379 7.99219C37.6553 8.17415 37.9134 8.45557 38.1123 8.83643V7.91602H39.2803V14.543ZM42.5049 7.91602H45.4946V14.0923H47.8115V15H42.0098V14.0923H44.3267V8.82373H42.5049V7.91602ZM44.3267 5.15479H45.4946V6.62744H44.3267V5.15479ZM55.0034 10.5947V15H53.8291V10.5947C53.8291 9.95573 53.717 9.486 53.4927 9.18555C53.2684 8.88509 52.9172 8.73486 52.439 8.73486C51.8931 8.73486 51.472 8.92952 51.1758 9.31885C50.8838 9.70394 50.7378 10.2583 50.7378 10.9819V15H49.5698V7.89062H50.7378V8.95703C50.9451 8.55078 51.2266 8.24398 51.582 8.03662C51.9375 7.82503 52.3586 7.71924 52.8452 7.71924C53.5688 7.71924 54.1084 7.95833 54.4639 8.43652C54.8236 8.91048 55.0034 9.62988 55.0034 10.5947ZM62.8364 10.5947V15H61.6621V10.5947C61.6621 9.95573 61.55 9.486 61.3257 9.18555C61.1014 8.88509 60.7502 8.73486 60.272 8.73486C59.7261 8.73486 59.305 8.92952 59.0088 9.31885C58.7168 9.70394 58.5708 10.2583 58.5708 10.9819V15H57.4028V7.89062H58.5708V8.95703C58.7782 8.55078 59.0596 8.24398 59.415 8.03662C59.7705 7.82503 60.1916 7.71924 60.6782 7.71924C61.4019 7.71924 61.9414 7.95833 62.2969 8.43652C62.6566 8.91048 62.8364 9.62988 62.8364 10.5947ZM66.0039 7.91602H68.9937V14.0923H71.3105V15H65.5088V14.0923H67.8257V8.82373H66.0039V7.91602ZM67.8257 5.15479H68.9937V6.62744H67.8257V5.15479ZM78.5024 10.5947V15H77.3281V10.5947C77.3281 9.95573 77.216 9.486 76.9917 9.18555C76.7674 8.88509 76.4162 8.73486 75.938 8.73486C75.3921 8.73486 74.971 8.92952 74.6748 9.31885C74.3828 9.70394 74.2368 10.2583 74.2368 10.9819V15H73.0688V7.89062H74.2368V8.95703C74.4442 8.55078 74.7256 8.24398 75.0811 8.03662C75.4365 7.82503 75.8576 7.71924 76.3442 7.71924C77.0679 7.71924 77.6074 7.95833 77.9629 8.43652C78.3226 8.91048 78.5024 9.62988 78.5024 10.5947ZM85.1104 11.3882C85.1104 10.5122 84.9665 9.84782 84.6787 9.39502C84.3952 8.93799 83.9805 8.70947 83.4346 8.70947C82.8633 8.70947 82.4274 8.93799 82.127 9.39502C81.8265 9.84782 81.6763 10.5122 81.6763 11.3882C81.6763 12.2642 81.8265 12.9328 82.127 13.394C82.4316 13.8511 82.8717 14.0796 83.4473 14.0796C83.9847 14.0796 84.3952 13.849 84.6787 13.3877C84.9665 12.9264 85.1104 12.2599 85.1104 11.3882ZM86.2783 14.543C86.2783 15.6094 86.0265 16.4176 85.5229 16.9678C85.0194 17.5179 84.2788 17.793 83.3013 17.793C82.9797 17.793 82.6432 17.7633 82.292 17.7041C81.9408 17.6449 81.5895 17.5581 81.2383 17.4438V16.2886C81.653 16.4832 82.0296 16.6271 82.3682 16.7202C82.7067 16.8133 83.0177 16.8599 83.3013 16.8599C83.9318 16.8599 84.391 16.6885 84.6787 16.3457C84.9665 16.0029 85.1104 15.4591 85.1104 14.7144V14.6636V13.8701C84.9242 14.2679 84.6702 14.5641 84.3486 14.7588C84.027 14.9535 83.6356 15.0508 83.1743 15.0508C82.3449 15.0508 81.6826 14.7186 81.1875 14.0542C80.6924 13.3898 80.4448 12.5011 80.4448 11.3882C80.4448 10.271 80.6924 9.38021 81.1875 8.71582C81.6826 8.05143 82.3449 7.71924 83.1743 7.71924C83.6313 7.71924 84.0186 7.81022 84.3359 7.99219C84.6533 8.17415 84.9115 8.45557 85.1104 8.83643V7.91602H86.2783V14.543Z" fill="#CEBCD4"/>
<path d="M121.25 5.52295H126.875V6.60205H122.533V9.15381H126.684V10.2329H122.533V13.9209H126.995V15H121.25V5.52295ZM134.504 10.5947V15H133.33V10.5947C133.33 9.95573 133.218 9.486 132.994 9.18555C132.769 8.88509 132.418 8.73486 131.94 8.73486C131.394 8.73486 130.973 8.92952 130.677 9.31885C130.385 9.70394 130.239 10.2583 130.239 10.9819V15H129.071V7.89062H130.239V8.95703C130.446 8.55078 130.728 8.24398 131.083 8.03662C131.438 7.82503 131.86 7.71924 132.346 7.71924C133.07 7.71924 133.609 7.95833 133.965 8.43652C134.325 8.91048 134.504 9.62988 134.504 10.5947ZM141.112 8.79834V5.12305H142.28V15H141.112V14.105C140.918 14.4562 140.657 14.7249 140.332 14.9111C140.01 15.0931 139.638 15.1841 139.214 15.1841C138.355 15.1841 137.678 14.8519 137.183 14.1875C136.692 13.5189 136.447 12.5985 136.447 11.4263C136.447 10.271 136.694 9.3654 137.189 8.70947C137.685 8.04932 138.36 7.71924 139.214 7.71924C139.642 7.71924 140.018 7.81234 140.344 7.99854C140.67 8.1805 140.926 8.4471 141.112 8.79834ZM137.678 11.4517C137.678 12.3573 137.822 13.0407 138.11 13.502C138.398 13.9632 138.823 14.1938 139.386 14.1938C139.949 14.1938 140.376 13.9611 140.668 13.4956C140.964 13.0301 141.112 12.3488 141.112 11.4517C141.112 10.5503 140.964 9.86898 140.668 9.40771C140.376 8.94222 139.949 8.70947 139.386 8.70947C138.823 8.70947 138.398 8.9401 138.11 9.40137C137.822 9.86263 137.678 10.5461 137.678 11.4517Z" fill="#CEBCD4"/>
<path d="M5.21094 42.1533C4.5957 42.1533 4.11947 42.3265 3.78223 42.6729C3.44954 43.0146 3.2832 43.5 3.2832 44.1289C3.2832 44.7578 3.45182 45.2477 3.78906 45.5986C4.13086 45.945 4.60482 46.1182 5.21094 46.1182C5.83073 46.1182 6.30697 45.9473 6.63965 45.6055C6.97689 45.2591 7.14551 44.7669 7.14551 44.1289C7.14551 43.5046 6.97461 43.0192 6.63281 42.6729C6.29557 42.3265 5.82161 42.1533 5.21094 42.1533ZM4.00781 41.5791C3.41992 41.4287 2.95964 41.1484 2.62695 40.7383C2.29883 40.3281 2.13477 39.8337 2.13477 39.2549C2.13477 38.4437 2.41048 37.8011 2.96191 37.3271C3.51335 36.8486 4.26302 36.6094 5.21094 36.6094C6.16341 36.6094 6.91536 36.8486 7.4668 37.3271C8.01823 37.8011 8.29395 38.4437 8.29395 39.2549C8.29395 39.8337 8.1276 40.3281 7.79492 40.7383C7.4668 41.1484 7.00879 41.4287 6.4209 41.5791C7.10449 41.7295 7.6263 42.0326 7.98633 42.4883C8.35091 42.944 8.5332 43.5342 8.5332 44.2588C8.5332 45.1794 8.23926 45.8994 7.65137 46.4189C7.06348 46.9385 6.25 47.1982 5.21094 47.1982C4.17188 47.1982 3.3584 46.9408 2.77051 46.4258C2.18717 45.9062 1.89551 45.1885 1.89551 44.2725C1.89551 43.5433 2.07552 42.9508 2.43555 42.4951C2.80013 42.0348 3.32422 41.7295 4.00781 41.5791ZM3.50879 39.3848C3.50879 39.9316 3.65462 40.3486 3.94629 40.6357C4.23796 40.9229 4.65951 41.0664 5.21094 41.0664C5.76693 41.0664 6.19076 40.9229 6.48242 40.6357C6.77409 40.3486 6.91992 39.9316 6.91992 39.3848C6.91992 38.8288 6.77409 38.4049 6.48242 38.1133C6.19531 37.8216 5.77148 37.6758 5.21094 37.6758C4.65951 37.6758 4.23796 37.8239 3.94629 38.1201C3.65462 38.4118 3.50879 38.8333 3.50879 39.3848Z" fill="#CEBCD4"/>
<path d="M0 52.0833H18" stroke="#B8A9BE" stroke-width="0.5" stroke-miterlimit="10"/>
<path d="M7.77441 83.0195V84.291C7.4873 84.1224 7.18197 83.9948 6.8584 83.9082C6.53483 83.8171 6.19759 83.7715 5.84668 83.7715C4.97168 83.7715 4.30859 84.1019 3.85742 84.7627C3.40625 85.4189 3.18066 86.3874 3.18066 87.668C3.39941 87.2122 3.70247 86.8636 4.08984 86.6221C4.47721 86.376 4.92155 86.2529 5.42285 86.2529C6.40723 86.2529 7.16829 86.556 7.70605 87.1621C8.24837 87.7637 8.51953 88.6182 8.51953 89.7256C8.51953 90.8285 8.24154 91.6829 7.68555 92.2891C7.12956 92.8952 6.34798 93.1982 5.34082 93.1982C4.15592 93.1982 3.28776 92.7744 2.73633 91.9268C2.1849 91.0745 1.90918 89.7347 1.90918 87.9072C1.90918 86.1846 2.23958 84.8721 2.90039 83.9697C3.56576 83.0628 4.52734 82.6094 5.78516 82.6094C6.1224 82.6094 6.45964 82.6458 6.79688 82.7188C7.13411 82.7871 7.45996 82.8874 7.77441 83.0195ZM5.31348 87.333C4.72559 87.333 4.26302 87.5449 3.92578 87.9688C3.58854 88.3926 3.41992 88.9782 3.41992 89.7256C3.41992 90.473 3.58854 91.0586 3.92578 91.4824C4.26302 91.9062 4.72559 92.1182 5.31348 92.1182C5.92415 92.1182 6.38444 91.9176 6.69434 91.5166C7.00423 91.111 7.15918 90.514 7.15918 89.7256C7.15918 88.9326 7.00423 88.3356 6.69434 87.9346C6.38444 87.5335 5.92415 87.333 5.31348 87.333Z" fill="#CEBCD4"/>
<path d="M0 99.0833H18" stroke="#B8A9BE" stroke-width="0.5" stroke-miterlimit="10"/>
<path d="M6.02441 132.052L2.80469 137.445H6.02441V132.052ZM5.79883 130.794H7.39844V137.445H8.75879V138.566H7.39844V141H6.02441V138.566H1.69727V137.261L5.79883 130.794Z" fill="#CEBCD4"/>
<path d="M0 146.083H18" stroke="#B8A9BE" stroke-width="0.5" stroke-miterlimit="10"/>
<path d="M3.5498 186.838H8.23926V188H2.03906V186.838C2.89128 185.94 3.63639 185.147 4.27441 184.459C4.91243 183.771 5.35221 183.285 5.59375 183.003C6.04948 182.447 6.3571 181.998 6.5166 181.656C6.67611 181.31 6.75586 180.957 6.75586 180.597C6.75586 180.027 6.58724 179.58 6.25 179.257C5.91732 178.933 5.45931 178.771 4.87598 178.771C4.46126 178.771 4.02604 178.847 3.57031 178.997C3.11458 179.147 2.63151 179.375 2.12109 179.681V178.286C2.59049 178.063 3.05078 177.894 3.50195 177.78C3.95768 177.666 4.40658 177.609 4.84863 177.609C5.84668 177.609 6.64876 177.876 7.25488 178.409C7.86556 178.938 8.1709 179.633 8.1709 180.494C8.1709 180.932 8.06836 181.369 7.86328 181.807C7.66276 182.244 7.33464 182.727 6.87891 183.256C6.6237 183.552 6.25228 183.962 5.76465 184.486C5.28158 185.01 4.54329 185.794 3.5498 186.838Z" fill="#CEBCD4"/>
<path d="M0 193.083H18" stroke="#B8A9BE" stroke-width="0.5" stroke-miterlimit="10"/>
<path d="M5.21094 223.644C6.30013 223.644 7.12272 224.088 7.67871 224.977C8.23926 225.865 8.51953 227.18 8.51953 228.921C8.51953 230.662 8.23926 231.977 7.67871 232.865C7.12272 233.754 6.30013 234.198 5.21094 234.198C4.12174 234.198 3.29915 233.754 2.74316 232.865C2.18717 231.977 1.90918 230.662 1.90918 228.921C1.90918 227.18 2.18717 225.865 2.74316 224.977C3.29915 224.088 4.12174 223.644 5.21094 223.644ZM5.21094 233.104C5.85807 233.104 6.33887 232.76 6.65332 232.072C6.97233 231.384 7.13184 230.334 7.13184 228.921C7.13184 228.169 7.08626 227.49 6.99512 226.884L3.74121 231.977C4.08301 232.729 4.57292 233.104 5.21094 233.104ZM5.21094 224.737C4.56836 224.737 4.08757 225.081 3.76855 225.77C3.4541 226.458 3.29688 227.508 3.29688 228.921C3.29688 229.563 3.34017 230.165 3.42676 230.726L6.6123 225.646C6.26595 225.04 5.79883 224.737 5.21094 224.737Z" fill="#CEBCD4"/>
<path d="M0 240.083H391" stroke="#B8A9BE" stroke-width="0.5" stroke-miterlimit="10"/>
<path d="M341.744 254.921L343.972 246.523H345.299L342.525 256H340.97L338.196 246.523H339.522L341.744 254.921ZM352.776 251.861V252.433H347.717V252.471C347.683 253.44 347.868 254.136 348.27 254.559C348.676 254.982 349.247 255.194 349.983 255.194C350.356 255.194 350.745 255.135 351.151 255.016C351.558 254.898 351.991 254.718 352.453 254.477V255.638C352.008 255.82 351.579 255.956 351.164 256.044C350.754 256.138 350.356 256.184 349.971 256.184C348.866 256.184 348.003 255.854 347.381 255.194C346.759 254.529 346.448 253.615 346.448 252.452C346.448 251.318 346.752 250.412 347.362 249.735C347.971 249.058 348.784 248.719 349.799 248.719C350.705 248.719 351.418 249.026 351.938 249.64C352.463 250.253 352.743 250.994 352.776 251.861ZM351.608 251.519C351.558 251.028 351.378 250.604 351.069 250.249C350.764 249.889 350.324 249.709 349.749 249.709C349.186 249.709 348.722 249.896 348.358 250.268C347.994 250.64 347.796 251.059 347.762 251.525L351.608 251.519ZM360.832 250.357C360.582 250.162 360.328 250.021 360.07 249.932C359.812 249.843 359.528 249.798 359.219 249.798C358.491 249.798 357.935 250.027 357.55 250.484C357.165 250.941 356.972 251.601 356.972 252.464V256H355.798V248.891H356.972V250.281C357.167 249.777 357.465 249.392 357.867 249.125C358.273 248.855 358.754 248.719 359.308 248.719C359.596 248.719 359.865 248.755 360.114 248.827C360.364 248.899 360.603 249.011 360.832 249.164V250.357ZM366.779 253.715C366.585 254.21 366.337 254.862 366.037 255.67C365.618 256.787 365.336 257.468 365.192 257.714C364.998 258.044 364.754 258.292 364.462 258.457C364.17 258.622 363.83 258.704 363.44 258.704H362.501V257.727H363.193C363.536 257.727 363.804 257.627 363.999 257.428C364.194 257.229 364.441 256.715 364.742 255.886L361.993 248.891H363.231L365.338 254.451L367.414 248.891H368.652L366.779 253.715ZM323.698 262.798V259.123H324.866V269H323.698V268.105C323.503 268.456 323.243 268.725 322.917 268.911C322.595 269.093 322.223 269.184 321.8 269.184C320.941 269.184 320.264 268.852 319.769 268.188C319.278 267.519 319.032 266.598 319.032 265.426C319.032 264.271 319.28 263.365 319.775 262.709C320.27 262.049 320.945 261.719 321.8 261.719C322.227 261.719 322.604 261.812 322.93 261.999C323.256 262.181 323.512 262.447 323.698 262.798ZM320.264 265.452C320.264 266.357 320.408 267.041 320.695 267.502C320.983 267.963 321.408 268.194 321.971 268.194C322.534 268.194 322.961 267.961 323.253 267.496C323.55 267.03 323.698 266.349 323.698 265.452C323.698 264.55 323.55 263.869 323.253 263.408C322.961 262.942 322.534 262.709 321.971 262.709C321.408 262.709 320.983 262.94 320.695 263.401C320.408 263.863 320.264 264.546 320.264 265.452ZM328.09 261.916H331.08V268.092H333.397V269H327.595V268.092H329.912V262.824H328.09V261.916ZM329.912 259.155H331.08V260.627H329.912V259.155ZM340.665 259.123V260.094H339.338C338.919 260.094 338.627 260.181 338.462 260.354C338.302 260.524 338.221 260.826 338.221 261.262V261.891H340.665V262.798H338.221V269H337.053V262.798H335.155V261.891H337.053V261.396C337.053 260.617 337.231 260.043 337.586 259.675C337.946 259.307 338.505 259.123 339.262 259.123H340.665ZM348.498 259.123V260.094H347.171C346.752 260.094 346.46 260.181 346.295 260.354C346.135 260.524 346.054 260.826 346.054 261.262V261.891H348.498V262.798H346.054V269H344.886V262.798H342.988V261.891H344.886V261.396C344.886 260.617 345.064 260.043 345.419 259.675C345.779 259.307 346.338 259.123 347.095 259.123H348.498ZM356.693 264.861V265.433H351.634V265.471C351.6 266.44 351.784 267.136 352.186 267.559C352.592 267.982 353.164 268.194 353.9 268.194C354.272 268.194 354.662 268.135 355.068 268.016C355.474 267.898 355.908 267.718 356.369 267.477V268.638C355.925 268.82 355.495 268.956 355.081 269.044C354.67 269.138 354.272 269.184 353.887 269.184C352.783 269.184 351.919 268.854 351.297 268.194C350.675 267.529 350.364 266.615 350.364 265.452C350.364 264.318 350.669 263.412 351.278 262.735C351.888 262.058 352.7 261.719 353.716 261.719C354.621 261.719 355.334 262.026 355.855 262.64C356.38 263.253 356.659 263.994 356.693 264.861ZM355.525 264.519C355.474 264.028 355.294 263.604 354.985 263.249C354.681 262.889 354.241 262.709 353.665 262.709C353.102 262.709 352.639 262.896 352.275 263.268C351.911 263.64 351.712 264.059 351.678 264.525L355.525 264.519ZM364.748 263.357C364.498 263.162 364.244 263.021 363.986 262.932C363.728 262.843 363.445 262.798 363.136 262.798C362.408 262.798 361.851 263.027 361.466 263.484C361.081 263.941 360.889 264.601 360.889 265.464V269H359.714V261.891H360.889V263.281C361.083 262.777 361.382 262.392 361.784 262.125C362.19 261.855 362.67 261.719 363.225 261.719C363.512 261.719 363.781 261.755 364.031 261.827C364.28 261.899 364.52 262.011 364.748 262.164V263.357ZM372.359 264.861V265.433H367.3V265.471C367.266 266.44 367.45 267.136 367.852 267.559C368.258 267.982 368.83 268.194 369.566 268.194C369.938 268.194 370.328 268.135 370.734 268.016C371.14 267.898 371.574 267.718 372.035 267.477V268.638C371.591 268.82 371.161 268.956 370.747 269.044C370.336 269.138 369.938 269.184 369.553 269.184C368.449 269.184 367.585 268.854 366.963 268.194C366.341 267.529 366.03 266.615 366.03 265.452C366.03 264.318 366.335 263.412 366.944 262.735C367.554 262.058 368.366 261.719 369.382 261.719C370.287 261.719 371 262.026 371.521 262.64C372.046 263.253 372.325 263.994 372.359 264.861ZM371.191 264.519C371.14 264.028 370.96 263.604 370.651 263.249C370.347 262.889 369.907 262.709 369.331 262.709C368.768 262.709 368.305 262.896 367.941 263.268C367.577 263.64 367.378 264.059 367.344 264.525L371.191 264.519ZM379.754 264.595V269H378.58V264.595C378.58 263.956 378.467 263.486 378.243 263.186C378.019 262.885 377.668 262.735 377.189 262.735C376.644 262.735 376.222 262.93 375.926 263.319C375.634 263.704 375.488 264.258 375.488 264.982V269H374.32V261.891H375.488V262.957C375.696 262.551 375.977 262.244 376.333 262.037C376.688 261.825 377.109 261.719 377.596 261.719C378.319 261.719 378.859 261.958 379.214 262.437C379.574 262.91 379.754 263.63 379.754 264.595ZM384.813 259.872V261.891H387.466V262.798H384.813V266.658C384.813 267.182 384.912 267.549 385.111 267.756C385.31 267.963 385.657 268.067 386.152 268.067H387.466V269H386.038C385.162 269 384.544 268.824 384.185 268.473C383.825 268.122 383.645 267.517 383.645 266.658V262.798H381.747V261.891H383.645V259.872H384.813ZM324.548 281.105V284.704H323.374V274.891H324.548V275.798C324.743 275.447 325.001 275.181 325.323 274.999C325.649 274.812 326.023 274.719 326.446 274.719C327.305 274.719 327.978 275.051 328.465 275.716C328.956 276.38 329.201 277.301 329.201 278.477C329.201 279.632 328.956 280.54 328.465 281.2C327.974 281.856 327.301 282.184 326.446 282.184C326.015 282.184 325.636 282.093 325.31 281.911C324.988 281.725 324.735 281.456 324.548 281.105ZM327.976 278.452C327.976 277.546 327.832 276.863 327.544 276.401C327.261 275.94 326.838 275.709 326.275 275.709C325.708 275.709 325.278 275.942 324.986 276.408C324.694 276.869 324.548 277.55 324.548 278.452C324.548 279.349 324.694 280.03 324.986 280.496C325.278 280.961 325.708 281.194 326.275 281.194C326.838 281.194 327.261 280.963 327.544 280.502C327.832 280.041 327.976 279.357 327.976 278.452ZM333.911 275.709C333.319 275.709 332.87 275.94 332.565 276.401C332.261 276.863 332.108 277.546 332.108 278.452C332.108 279.353 332.261 280.036 332.565 280.502C332.87 280.963 333.319 281.194 333.911 281.194C334.508 281.194 334.958 280.963 335.263 280.502C335.568 280.036 335.72 279.353 335.72 278.452C335.72 277.546 335.568 276.863 335.263 276.401C334.958 275.94 334.508 275.709 333.911 275.709ZM333.911 274.719C334.897 274.719 335.65 275.039 336.171 275.678C336.696 276.317 336.958 277.241 336.958 278.452C336.958 279.666 336.698 280.593 336.177 281.232C335.657 281.867 334.901 282.184 333.911 282.184C332.925 282.184 332.172 281.867 331.651 281.232C331.131 280.593 330.871 279.666 330.871 278.452C330.871 277.241 331.131 276.317 331.651 275.678C332.172 275.039 332.925 274.719 333.911 274.719ZM342.398 279.429C342.398 279.954 342.493 280.35 342.684 280.616C342.878 280.883 343.164 281.016 343.541 281.016H344.905V282H343.426C342.728 282 342.186 281.778 341.801 281.333C341.42 280.885 341.23 280.25 341.23 279.429V272.999H339.357V272.085H342.398V279.429ZM347.673 274.916H350.663V281.092H352.979V282H347.178V281.092H349.495V275.824H347.673V274.916ZM349.495 272.155H350.663V273.627H349.495V272.155ZM357.397 272.872V274.891H360.051V275.798H357.397V279.658C357.397 280.182 357.497 280.549 357.696 280.756C357.895 280.963 358.242 281.067 358.737 281.067H360.051V282H358.623C357.747 282 357.129 281.824 356.769 281.473C356.409 281.122 356.229 280.517 356.229 279.658V275.798H354.332V274.891H356.229V272.872H357.397ZM363.339 274.916H366.329V281.092H368.646V282H362.844V281.092H365.161V275.824H363.339V274.916ZM365.161 272.155H366.329V273.627H365.161V272.155ZM375.901 281.638C375.588 281.82 375.264 281.956 374.93 282.044C374.6 282.138 374.261 282.184 373.914 282.184C372.814 282.184 371.953 281.854 371.331 281.194C370.713 280.534 370.404 279.62 370.404 278.452C370.404 277.284 370.713 276.37 371.331 275.709C371.953 275.049 372.814 274.719 373.914 274.719C374.257 274.719 374.591 274.764 374.917 274.853C375.243 274.941 375.571 275.079 375.901 275.265V276.49C375.592 276.215 375.281 276.016 374.968 275.894C374.659 275.771 374.308 275.709 373.914 275.709C373.182 275.709 372.619 275.946 372.226 276.42C371.832 276.894 371.635 277.571 371.635 278.452C371.635 279.328 371.832 280.005 372.226 280.483C372.623 280.957 373.186 281.194 373.914 281.194C374.32 281.194 374.684 281.132 375.006 281.01C375.327 280.883 375.626 280.688 375.901 280.426V281.638ZM383.175 275.138V276.281C382.841 276.086 382.505 275.94 382.166 275.843C381.827 275.745 381.483 275.697 381.131 275.697C380.602 275.697 380.207 275.784 379.944 275.957C379.686 276.126 379.557 276.387 379.557 276.738C379.557 277.055 379.654 277.292 379.849 277.449C380.044 277.605 380.528 277.758 381.303 277.906L381.772 277.995C382.352 278.105 382.79 278.325 383.086 278.655C383.387 278.985 383.537 279.414 383.537 279.943C383.537 280.646 383.287 281.196 382.788 281.594C382.289 281.987 381.595 282.184 380.706 282.184C380.355 282.184 379.987 282.146 379.602 282.07C379.216 281.998 378.8 281.888 378.351 281.74V280.534C378.787 280.758 379.204 280.927 379.602 281.042C379.999 281.152 380.376 281.207 380.731 281.207C381.248 281.207 381.648 281.103 381.931 280.896C382.215 280.684 382.356 280.39 382.356 280.013C382.356 279.472 381.838 279.097 380.801 278.89L380.75 278.877L380.312 278.788C379.64 278.657 379.149 278.437 378.84 278.128C378.531 277.815 378.376 277.389 378.376 276.852C378.376 276.171 378.607 275.646 379.068 275.278C379.53 274.905 380.188 274.719 381.042 274.719C381.423 274.719 381.789 274.755 382.141 274.827C382.492 274.895 382.837 274.999 383.175 275.138Z" fill="#CEBCD4"/>
<path d="M313.354 262.854C313.549 262.658 313.549 262.342 313.354 262.146L310.172 258.964C309.976 258.769 309.66 258.769 309.464 258.964C309.269 259.16 309.269 259.476 309.464 259.672L312.293 262.5L309.464 265.328C309.269 265.524 309.269 265.84 309.464 266.036C309.66 266.231 309.976 266.231 310.172 266.036L313.354 262.854ZM92 262.5V263H313V262.5V262H92V262.5Z" fill="#CEBCD4" fill-opacity="0.47"/>
<path d="M45.2578 251.847V253.148C44.8685 252.898 44.4771 252.71 44.0835 252.583C43.6942 252.456 43.3006 252.393 42.9028 252.393C42.2977 252.393 41.8195 252.534 41.4683 252.818C41.117 253.097 40.9414 253.476 40.9414 253.954C40.9414 254.373 41.0557 254.693 41.2842 254.913C41.5169 255.133 41.9486 255.317 42.5791 255.465L43.252 255.617C44.1406 255.825 44.7881 256.15 45.1943 256.595C45.6006 257.039 45.8037 257.644 45.8037 258.41C45.8037 259.312 45.5244 259.999 44.9658 260.473C44.4072 260.947 43.5947 261.184 42.5283 261.184C42.084 261.184 41.6375 261.135 41.189 261.038C40.7404 260.945 40.2897 260.803 39.8369 260.613V259.248C40.3236 259.557 40.7827 259.783 41.2144 259.927C41.6502 260.071 42.0882 260.143 42.5283 260.143C43.1758 260.143 43.6794 259.999 44.0391 259.711C44.3988 259.419 44.5786 259.013 44.5786 258.493C44.5786 258.019 44.4538 257.657 44.2041 257.407C43.9587 257.158 43.5291 256.965 42.9155 256.83L42.23 256.671C41.3498 256.472 40.7108 256.172 40.313 255.77C39.9152 255.368 39.7163 254.828 39.7163 254.151C39.7163 253.305 39.9998 252.627 40.5669 252.12C41.1382 251.608 41.8957 251.352 42.8394 251.352C43.2033 251.352 43.5863 251.394 43.9883 251.479C44.3903 251.559 44.8135 251.682 45.2578 251.847ZM51.123 257.426H50.7358C50.0545 257.426 49.5404 257.547 49.1934 257.788C48.8506 258.025 48.6792 258.381 48.6792 258.854C48.6792 259.282 48.8083 259.614 49.0664 259.851C49.3245 260.088 49.6821 260.207 50.1392 260.207C50.7824 260.207 51.2881 259.984 51.6562 259.54C52.0244 259.091 52.2106 258.474 52.2148 257.687V257.426H51.123ZM53.3892 256.944V261H52.2148V259.946C51.9652 260.369 51.6499 260.683 51.269 260.886C50.8924 261.085 50.4333 261.184 49.8916 261.184C49.168 261.184 48.5903 260.981 48.1587 260.575C47.7271 260.164 47.5112 259.616 47.5112 258.931C47.5112 258.139 47.7757 257.538 48.3047 257.128C48.8379 256.717 49.6187 256.512 50.647 256.512H52.2148V256.328C52.2106 255.761 52.0667 255.351 51.7832 255.097C51.4997 254.839 51.0469 254.709 50.4248 254.709C50.027 254.709 49.625 254.767 49.2188 254.881C48.8125 254.995 48.4168 255.162 48.0317 255.382V254.214C48.4634 254.049 48.876 253.927 49.2695 253.846C49.6673 253.762 50.0524 253.719 50.4248 253.719C51.013 253.719 51.5145 253.806 51.9292 253.979C52.3481 254.153 52.6867 254.413 52.9448 254.76C53.1056 254.972 53.2199 255.234 53.2876 255.547C53.3553 255.856 53.3892 256.322 53.3892 256.944ZM58.791 254.614C58.9349 254.31 59.1169 254.085 59.3369 253.941C59.5612 253.793 59.8299 253.719 60.1431 253.719C60.7144 253.719 61.1164 253.941 61.3491 254.386C61.5861 254.826 61.7046 255.657 61.7046 256.88V261H60.6382V256.931C60.6382 255.928 60.5811 255.306 60.4668 255.065C60.3568 254.819 60.1536 254.697 59.8574 254.697C59.5189 254.697 59.2861 254.828 59.1592 255.09C59.0365 255.348 58.9751 255.962 58.9751 256.931V261H57.9087V256.931C57.9087 255.916 57.8473 255.289 57.7246 255.052C57.6061 254.815 57.3903 254.697 57.0771 254.697C56.7682 254.697 56.5524 254.828 56.4297 255.09C56.3112 255.348 56.252 255.962 56.252 256.931V261H55.1919V253.891H56.252V254.5C56.3916 254.246 56.5651 254.054 56.7725 253.922C56.984 253.787 57.2231 253.719 57.4897 253.719C57.8114 253.719 58.078 253.793 58.2896 253.941C58.5054 254.09 58.6725 254.314 58.791 254.614ZM69.4424 256.861V257.433H64.3833V257.471C64.3494 258.44 64.5335 259.136 64.9355 259.559C65.3418 259.982 65.9131 260.194 66.6494 260.194C67.0218 260.194 67.4111 260.135 67.8174 260.016C68.2236 259.898 68.6574 259.718 69.1187 259.477V260.638C68.6743 260.82 68.2448 260.956 67.8301 261.044C67.4196 261.138 67.0218 261.184 66.6367 261.184C65.5322 261.184 64.6689 260.854 64.0469 260.194C63.4248 259.529 63.1138 258.615 63.1138 257.452C63.1138 256.318 63.4185 255.412 64.0278 254.735C64.6372 254.058 65.4497 253.719 66.4653 253.719C67.3709 253.719 68.084 254.026 68.6045 254.64C69.1292 255.253 69.4085 255.994 69.4424 256.861ZM68.2744 256.519C68.2236 256.028 68.0438 255.604 67.7349 255.249C67.4302 254.889 66.9901 254.709 66.4146 254.709C65.8517 254.709 65.3883 254.896 65.0244 255.268C64.6605 255.64 64.4616 256.059 64.4277 256.525L68.2744 256.519ZM25.5483 273.105V276.704H24.374V266.891H25.5483V267.798C25.743 267.447 26.0011 267.181 26.3228 266.999C26.6486 266.812 27.0231 266.719 27.4463 266.719C28.3053 266.719 28.9782 267.051 29.4648 267.716C29.9557 268.38 30.2012 269.301 30.2012 270.477C30.2012 271.632 29.9557 272.54 29.4648 273.2C28.974 273.856 28.3011 274.184 27.4463 274.184C27.0146 274.184 26.6359 274.093 26.3101 273.911C25.9884 273.725 25.7345 273.456 25.5483 273.105ZM28.9761 270.452C28.9761 269.546 28.8322 268.863 28.5444 268.401C28.2609 267.94 27.8377 267.709 27.2749 267.709C26.7078 267.709 26.2783 267.942 25.9863 268.408C25.6943 268.869 25.5483 269.55 25.5483 270.452C25.5483 271.349 25.6943 272.03 25.9863 272.496C26.2783 272.961 26.7078 273.194 27.2749 273.194C27.8377 273.194 28.2609 272.963 28.5444 272.502C28.8322 272.041 28.9761 271.357 28.9761 270.452ZM34.9111 267.709C34.3187 267.709 33.8701 267.94 33.5654 268.401C33.2607 268.863 33.1084 269.546 33.1084 270.452C33.1084 271.353 33.2607 272.036 33.5654 272.502C33.8701 272.963 34.3187 273.194 34.9111 273.194C35.5078 273.194 35.9585 272.963 36.2632 272.502C36.5679 272.036 36.7202 271.353 36.7202 270.452C36.7202 269.546 36.5679 268.863 36.2632 268.401C35.9585 267.94 35.5078 267.709 34.9111 267.709ZM34.9111 266.719C35.8971 266.719 36.6504 267.039 37.1709 267.678C37.6956 268.317 37.958 269.241 37.958 270.452C37.958 271.666 37.6978 272.593 37.1772 273.232C36.6567 273.867 35.9014 274.184 34.9111 274.184C33.9251 274.184 33.1719 273.867 32.6514 273.232C32.1309 272.593 31.8706 271.666 31.8706 270.452C31.8706 269.241 32.1309 268.317 32.6514 267.678C33.1719 267.039 33.9251 266.719 34.9111 266.719ZM43.3979 271.429C43.3979 271.954 43.4932 272.35 43.6836 272.616C43.8783 272.883 44.1639 273.016 44.5405 273.016H45.9053V274H44.4263C43.728 274 43.1864 273.778 42.8013 273.333C42.4204 272.885 42.23 272.25 42.23 271.429V264.999H40.3574V264.085H43.3979V271.429ZM48.6729 266.916H51.6626V273.092H53.9795V274H48.1777V273.092H50.4946V267.824H48.6729V266.916ZM50.4946 264.155H51.6626V265.627H50.4946V264.155ZM58.3975 264.872V266.891H61.0508V267.798H58.3975V271.658C58.3975 272.182 58.4969 272.549 58.6958 272.756C58.8947 272.963 59.2417 273.067 59.7368 273.067H61.0508V274H59.6226C58.7466 274 58.1287 273.824 57.769 273.473C57.4093 273.122 57.2295 272.517 57.2295 271.658V267.798H55.3315V266.891H57.2295V264.872H58.3975ZM64.3389 266.916H67.3286V273.092H69.6455V274H63.8438V273.092H66.1606V267.824H64.3389V266.916ZM66.1606 264.155H67.3286V265.627H66.1606V264.155ZM76.9009 273.638C76.5877 273.82 76.264 273.956 75.9297 274.044C75.5996 274.138 75.2611 274.184 74.9141 274.184C73.8138 274.184 72.9526 273.854 72.3306 273.194C71.7127 272.534 71.4038 271.62 71.4038 270.452C71.4038 269.284 71.7127 268.37 72.3306 267.709C72.9526 267.049 73.8138 266.719 74.9141 266.719C75.2568 266.719 75.5911 266.764 75.917 266.853C76.2428 266.941 76.5708 267.079 76.9009 267.265V268.49C76.592 268.215 76.2809 268.016 75.9678 267.894C75.6589 267.771 75.3076 267.709 74.9141 267.709C74.182 267.709 73.6191 267.946 73.2256 268.42C72.832 268.894 72.6353 269.571 72.6353 270.452C72.6353 271.328 72.832 272.005 73.2256 272.483C73.6234 272.957 74.1862 273.194 74.9141 273.194C75.3203 273.194 75.6842 273.132 76.0059 273.01C76.3275 272.883 76.6258 272.688 76.9009 272.426V273.638ZM84.1753 267.138V268.281C83.841 268.086 83.5046 267.94 83.166 267.843C82.8275 267.745 82.4826 267.697 82.1313 267.697C81.6024 267.697 81.2067 267.784 80.9443 267.957C80.6862 268.126 80.5571 268.387 80.5571 268.738C80.5571 269.055 80.6545 269.292 80.8491 269.449C81.0438 269.605 81.5283 269.758 82.3027 269.906L82.7725 269.995C83.3522 270.105 83.7902 270.325 84.0864 270.655C84.3869 270.985 84.5371 271.414 84.5371 271.943C84.5371 272.646 84.2874 273.196 83.7881 273.594C83.2887 273.987 82.5947 274.184 81.7061 274.184C81.3548 274.184 80.9867 274.146 80.6016 274.07C80.2165 273.998 79.7996 273.888 79.3511 273.74V272.534C79.7869 272.758 80.2038 272.927 80.6016 273.042C80.9993 273.152 81.376 273.207 81.7314 273.207C82.2477 273.207 82.6476 273.103 82.9312 272.896C83.2147 272.684 83.3564 272.39 83.3564 272.013C83.3564 271.472 82.8381 271.097 81.8013 270.89L81.7505 270.877L81.3125 270.788C80.6396 270.657 80.1488 270.437 79.8398 270.128C79.5309 269.815 79.3765 269.389 79.3765 268.852C79.3765 268.171 79.6071 267.646 80.0684 267.278C80.5296 266.905 81.1877 266.719 82.0425 266.719C82.4233 266.719 82.7894 266.755 83.1406 266.827C83.4919 266.895 83.8368 266.999 84.1753 267.138Z" fill="#CEBCD4"/>
<path d="M74 240H55V66.341C55 65.6004 55.6805 65 56.52 65H72.48C73.3195 65 74 65.6004 74 66.341V240Z" fill="#EDE977"/>
<path d="M133 240H115V66.3462C115 65.6027 115.645 65 116.44 65H131.56C132.355 65 133 65.6027 133 66.3462V240Z" fill="#EDE977"/>
<path d="M194 240H175V67.3436C175 66.6016 175.681 66 176.52 66H192.48C193.319 66 194 66.6016 194 67.3436V240Z" fill="#EDE977"/>
<path d="M254 240H235V68.3463C235 67.6028 235.681 67 236.52 67H252.48C253.319 67 254 67.6028 254 68.3463V240Z" fill="#EDE977"/>
<path d="M372 240H355V73.344C355 72.6017 355.609 72 356.36 72H370.64C371.391 72 372 72.6017 372 73.344V240Z" fill="#EDE977"/>
<path d="M312 240H295V75.3441C295 74.6018 295.609 74 296.36 74H310.64C311.391 74 312 74.6018 312 75.3441V240Z" fill="#EDE977"/>
<path d="M114 240H97V94.3548C97 93.6066 97.6089 93 98.36 93H112.64C113.391 93 114 93.6066 114 94.3548V240Z" fill="#BC75D9"/>
<path d="M234 240H215V94.3548C215 93.6066 215.681 93 216.52 93H232.48C233.319 93 234 93.6066 234 94.3548V240Z" fill="#BC75D9"/>
<path d="M294 240H276V94.3548C276 93.6066 276.645 93 277.44 93H292.56C293.355 93 294 93.6066 294 94.3548V240Z" fill="#BC75D9"/>
<path d="M54 240H37V95.3581C37 94.6081 37.6089 94 38.36 94H52.64C53.3911 94 54 94.6081 54 95.3581V240Z" fill="#BC75D9"/>
<path d="M174 240H155V96.3551C155 95.6067 155.681 95 156.52 95H172.48C173.319 95 174 95.6067 174 96.3551V240Z" fill="#BC75D9"/>
<path d="M354 240H335V96.3551C335 95.6067 335.681 95 336.52 95H352.48C353.319 95 354 95.6067 354 96.3551V240Z" fill="#BC75D9"/>
</svg>
